<?xml version="1.0" encoding="utf-8"?>
<!-- Generator: Adobe Illustrator 27.5.0, SVG Export Plug-In . SVG Version: 6.00 Build 0)  -->
<svg version="1.1" id="Ñëîé_1" xmlns="http://www.w3.org/2000/svg" xmlns:xlink="http://www.w3.org/1999/xlink" x="0px" y="0px"
	 viewBox="0 0 500 300" style="enable-background:new 0 0 500 300;" xml:space="preserve">
<style type="text/css">
	.st0{fill:#1A1A1A;}
	.st1{font-family:'MyriadPro-Bold';}
	.st2{font-size:48px;}
</style>
<g>
	<path class="st0" d="M148.7,126l-24.4,75.7c-0.6,1.9-2.9,2.5-4.4,1.2L99.7,186l-11.9,13.1c-1.4,1.6-4.1,0.6-4.1-1.6v-24.2
		c0-0.4,0.2-0.8,0.5-1l30.8-25.7c0.1,0,0-0.1-0.1-0.1L73.4,166c-1.2,0.6-2.7,0.6-3.9,0l-24.8-11.8c-1.7-0.9-1.4-3.4,0.4-3.9
		l101-26.8C147.8,123,149.2,124.5,148.7,126z"/>
	<text transform="matrix(1 0 0 1 163.5276 177.5371)" class="st1 st2">Travel Buddy</text>
</g>
</svg>
