<svg xmlns="http://www.w3.org/2000/svg" width="271.972" height="288.188" viewBox="0 0 271.972 288.188"><defs><style>.a{fill:#fce0cd;}.b{fill:#bdbdbd;}.c{fill:#fff;}.d{fill:#a095c1;}.e{fill:#efc0a0;}.f{fill:#645d5c;}</style></defs><path class="a" d="M203.749,111.369a10.246,10.246,0,0,1,8.2-2.4,9.675,9.675,0,0,1,6.957,4.625,13.688,13.688,0,0,1,1.433,5.5,41,41,0,0,1-4.18,21.731,26.053,26.053,0,0,1-6.738,8.843,17.265,17.265,0,0,1-8.034,3.621s-.61.094-1.661.261c-.64,2.446-1.357,4.5-1.709,5.6-2.286,6.352-15.079,28.337-31.179,36.345.189,1.316.409,2.657.649,4.047.83,4.77.57,9.03,7.2,11.42.44.16,21.41,9.97,22.69,10.41,0,0-.168,42.276-60.612,42.276s-62.178-42.276-62.178-42.276c1.25-.44,21.81-10.25,22.24-10.41,6.49-2.39,6.24-6.65,7.06-11.42.24-1.433.461-2.805.65-4.165A59.981,59.981,0,0,1,85.6,179.632a70.181,70.181,0,0,1-13.181-26.178,16.716,16.716,0,0,1-9.87-3.781,26.053,26.053,0,0,1-6.738-8.843,40.994,40.994,0,0,1-4.18-21.731,13.671,13.671,0,0,1,1.432-5.5,9.679,9.679,0,0,1,6.957-4.625,10.248,10.248,0,0,1,8.2,2.4S49.5,40.246,134.838,40.246,203.749,111.369,203.749,111.369Z"/><path class="b" d="M152.508,2.678A79.751,79.751,0,0,0,119.846.962C101.777,4.188,85,13.582,71.4,28.373c-6.74,7.327-15.432,19.2-17.11,40.516-.851,10.87-.3,28.148,3.861,37.926,0,0,.428,1.034.968,2.334q.447-.11.905-.179a10.248,10.248,0,0,1,8.2,2.4l5.425-9.326c.978-2.4,1.71-4.905,3.224-7.883,3.008-5.917,4.338-9.035,10.215-14.611a81.119,81.119,0,0,0,16.769-4.35c1.776-.722,3.639-1.471,5.491-2.287a74.909,74.909,0,0,0,21.605-.672c18.258-3.511,31.026-13.883,35.832-19.692A23.233,23.233,0,0,1,180.635,58.4c11.961,11.8,18.439,26.268,19.924,42.927l3.19,10.038a10.246,10.246,0,0,1,8.2-2.4,9.819,9.819,0,0,1,1.364.3c4.958-5.5,7.879-30.568,3.566-49.018-3.765-16.1-10.473-26.121-18.473-33.823-4.273-4.114-11-8.5-16.795-9.49l-12.422-5.55C165.439,7.45,159.4,4.56,152.508,2.678Z"/><path class="c" d="M186.393,287.978c-.086-11.912-.172-32.65-.221-49.181-15.711,8.156-30.648,12.489-50.362,12.489-17.653,0-35.536-3.876-50.009-12.1-.051,16.47-.137,36.973-.223,48.791Z"/><path class="d" d="M269.966,288.188a2,2,0,0,0,1.82-2.834c-2.01-4.37-3.9-8.8-6.306-12.974-2.592-4.5-7.367-15.3-17.094-23.924-5.153-4.568-17.814-13.829-37.114-22.815-6.8-3.167-15.28-7.325-22.447-10.085a1.991,1.991,0,0,0-2.7,1.865c0,12.276.136,52.058.27,70.557Z"/><path class="d" d="M2.006,288.188a2,2,0,0,1-1.82-2.834c2.01-4.37,3.9-8.8,6.306-12.974,2.591-4.5,7.366-15.3,17.094-23.924,5.153-4.568,17.814-13.829,37.113-22.815,6.8-3.167,15.281-7.325,22.448-10.085a1.99,1.99,0,0,1,2.7,1.865c0,12.276-.135,52.058-.27,70.557Z"/><path class="e" d="M123.391,166.144a26.806,26.806,0,0,0,12.913,2.977c4.562-.03,9.242-.9,12.905-3.753,1.194-.93.976-2.983,0-3.959a2.871,2.871,0,0,0-3.96,0c.809-.631.042-.052-.164.08-.266.171-.54.328-.819.474-.164.087-1.078.492-.453.238-.371.15-.747.288-1.128.41a20.657,20.657,0,0,1-6.806.91,21.559,21.559,0,0,1-6.5-.875c-.414-.124-.817-.271-1.225-.412-.133-.046-.262-.1-.394-.153.686.254.084.037-.046-.024-.507-.237-1-.487-1.5-.748a2.861,2.861,0,0,0-3.831,1,2.83,2.83,0,0,0,1.005,3.831Z"/><path class="e" d="M135.172,135.346a61.884,61.884,0,0,1,1.461,6.688l-.1-.745a4.016,4.016,0,0,1,.026.923l.1-.744a2.266,2.266,0,0,1-.1.415l.282-.669a1.685,1.685,0,0,1-.146.267l.438-.566a1.437,1.437,0,0,1-.219.215l.567-.438a4.256,4.256,0,0,1-.53.28l.669-.282a3.875,3.875,0,0,1-.893.261l.745-.1a3.559,3.559,0,0,1-.838,0l.744.1c-.316-.044-.626-.121-.942-.163a3.091,3.091,0,0,0-2.158.282,2.8,2.8,0,0,0-1,3.831,2.68,2.68,0,0,0,1.673,1.287c.663.089,1.307.26,1.982.289a6.227,6.227,0,0,0,2.849-.667,3.979,3.979,0,0,0,2.244-2.637,6.869,6.869,0,0,0-.032-2.911c-.364-2.154-.862-4.289-1.416-6.4a2.8,2.8,0,0,0-5.4,1.489Z"/><path class="e" d="M157.549,160.211l.058.074-.438-.567a26.226,26.226,0,0,1,3.336,5.737,2.8,2.8,0,0,0,1.673,1.287,2.863,2.863,0,0,0,2.158-.283,2.825,2.825,0,0,0,1.287-1.673l.1-.744a2.8,2.8,0,0,0-.382-1.414,28.59,28.59,0,0,0-3.832-6.377,2.794,2.794,0,0,0-1.98-.82,2.8,2.8,0,0,0-2.8,2.8l.1.745a2.8,2.8,0,0,0,.72,1.235Z"/><path class="f" d="M104.081,125.879c.57-.312,1.152-.6,1.75-.852l-.764.323a19.767,19.767,0,0,1,4.946-1.261l-.851.114c.881-.115,1.765-.2,2.649-.286a3.45,3.45,0,0,0,2.263-.938,3.2,3.2,0,0,0,0-4.525,3.118,3.118,0,0,0-2.263-.937,45.25,45.25,0,0,0-5.647.774,20.483,20.483,0,0,0-5.313,2.062,3.23,3.23,0,0,0-1.148,4.378,3.266,3.266,0,0,0,4.378,1.148Z"/><path class="f" d="M161.055,123.094l.088-.014-.851.114a9.863,9.863,0,0,1,2.51.083l-.851-.114a18.061,18.061,0,0,1,4.6,1.345l-.765-.322c.725.31,1.406.687,2.1,1.049a3.2,3.2,0,0,0,3.231-5.527c-3.621-1.877-7.613-3.448-11.768-2.785a3.2,3.2,0,0,0-1.912,1.47,3.2,3.2,0,0,0,1.148,4.379,3.688,3.688,0,0,0,2.466.322Z"/></svg>