<svg xmlns="http://www.w3.org/2000/svg" width="282.453" height="291.31" viewBox="0 0 282.453 291.31"><defs><style>.a{fill:#fce0cd;}.b{fill:#89705d;}.c{fill:#fff;}.d{fill:#bdbdbd;}.e{fill:#d9d9d9;}.f{fill:#efc0a0;}.g{fill:#645d5c;}</style></defs><path class="a" d="M208.99,111.92a10.245,10.245,0,0,1,8.2-2.4,9.675,9.675,0,0,1,6.957,4.625,13.688,13.688,0,0,1,1.433,5.5,41,41,0,0,1-4.181,21.731,26.06,26.06,0,0,1-6.737,8.843,17.265,17.265,0,0,1-8.034,3.621s-.61.094-1.661.261c-.64,2.446-1.357,4.5-1.71,5.6-2.169,6.029-13.806,26.143-28.751,35.02a83.448,83.448,0,0,0,1.078,8.361c.8,4.59.55,8.67,6.89,10.96.31.1,10.03,4.72,15.46,7.29,0,0-4.077,23.317-58,23.317s-54.487-24.627-54.487-24.627c5.96-2.72,12.76-5.9,13-5.98,6.35-2.29,6.09-6.37,6.91-10.96.539-3.075.928-5.879,1.165-8.963a62.782,62.782,0,0,1-15.674-13.942,70.181,70.181,0,0,1-13.181-26.178,16.716,16.716,0,0,1-9.87-3.781,26.053,26.053,0,0,1-6.738-8.843,40.994,40.994,0,0,1-4.18-21.731,13.671,13.671,0,0,1,1.432-5.5,9.677,9.677,0,0,1,6.957-4.625,10.249,10.249,0,0,1,8.2,2.4S60.079,40.8,138.3,40.8C218.3,40.8,208.99,111.92,208.99,111.92Z"/><path class="b" d="M0,291.31c5.973-12.027,15.787-32.934,28.446-43.913a84.9,84.9,0,0,1,22.007-14.132c9.922-4.624,31.811-13.068,42.022-17.09l43.972,11.55h8.31l45.221-11.55c10.212,4.022,32.1,12.466,42.022,17.09A84.864,84.864,0,0,1,254.007,247.4c12.66,10.979,22.473,31.886,28.446,43.913Z"/><path class="c" d="M165.435,249.347c9.586-9.833,16.081-21.559,23.271-33.314a1.6,1.6,0,0,0,.054-1.584,54.149,54.149,0,0,0-10.742-14.283A111.028,111.028,0,0,1,145.977,222.5c-.664.3-1.4.668-1.617,1.364a2.57,2.57,0,0,0,.37,1.81,103.679,103.679,0,0,0,6.627,8.558c4.145,5.072,9.265,11.195,12.416,15.046A1.117,1.117,0,0,0,165.435,249.347Z"/><path class="c" d="M136.592,225.479a102.738,102.738,0,0,1-6.581,8.49c-3.845,4.706-8.542,10.33-11.7,14.165a1.982,1.982,0,0,1-2.962.123c-9.135-9.6-15.433-20.948-22.4-32.328a1.613,1.613,0,0,1-.054-1.6,53.971,53.971,0,0,1,10.649-14.156,110.333,110.333,0,0,0,31.8,22.16c.659.3,1.389.66,1.609,1.35A2.6,2.6,0,0,1,136.592,225.479Z"/><path class="c" d="M157.077,241.17c-1.929-2.33-3.917-4.735-5.72-6.941-3.389-4.147-6.127-7.592-6.606-8.517-.032.013-8.147.013-8.3.013-.687,1.131-3.276,4.38-6.438,8.244-2.941,3.6-6.38,7.736-9.246,11.2.484.468.756.739.756.739,3.214,3.183,14.2,13.323,18.3,16.919a1.989,1.989,0,0,0,2.65-.02c3.821-3.448,13.546-12.448,17.7-16.863,0,0,.162-.172.462-.479C159.513,244.11,158.307,242.655,157.077,241.17Z"/><path class="d" d="M172.459,5.315A73.351,73.351,0,0,0,155.033.834c-16.784-1.95-38.9-1.344-53.534,11.418a34.781,34.781,0,0,1-6.278,4.567,48.875,48.875,0,0,1-4.536,2.029C77.2,24.685,68.946,38.007,64.826,55.63c-4.251,18.181-3.544,40.931.537,53.882a10.224,10.224,0,0,1,8.1,2.408l1.868,1.687.043-.6c.527-7.451,1.2-15.322,5.529-21.407,2.751-3.866,5.467-6.5,7.512-10.786s2.405-10.633,3.547-15.231c1.86-7.491,7.079-12.663,16.886-14.75,13-2.335,24.647-4.018,37.057-2.4,10.093,1.314,23.843,6.008,33.313,9.736,8,2.889,14.5,6.536,17.112,10.666,3.254,5.145,4.358,13.438,4.888,19.334.309,3.435.889,8,1.334,13.111.123,1.414,1.539,11.972,2.581,11.972a6.824,6.824,0,0,0,3.856-1.327,10.246,10.246,0,0,1,8.015-2.425l.6-3.109c5.386-28.028,2.557-54.473-9.413-70.978-1.922-2.65-6.408-7.784-8.711-10.418a72.384,72.384,0,0,0-7.867-8.5A64.016,64.016,0,0,0,172.459,5.315Z"/><path class="e" d="M146.007,235.079c1.888,2.378,3.828,4.715,5.764,7.053a2.81,2.81,0,0,0,1.979.82,2.848,2.848,0,0,0,1.98-.82,2.813,2.813,0,0,0,.82-1.98,3.171,3.171,0,0,0-.82-1.979c-1.935-2.339-3.875-4.676-5.763-7.053a2.8,2.8,0,0,0-1.98-.82,2.85,2.85,0,0,0-1.98.82,2.817,2.817,0,0,0-.82,1.98l.1.744a2.8,2.8,0,0,0,.72,1.235Z"/><path class="e" d="M130.469,231.2c-1.829,2.285-3.7,4.537-5.564,6.791a3.01,3.01,0,0,0-.82,1.98,2.85,2.85,0,0,0,.82,1.98,2.819,2.819,0,0,0,1.98.82,2.744,2.744,0,0,0,1.98-.82c1.866-2.254,3.735-4.507,5.564-6.791a3.037,3.037,0,0,0,.82-1.98,2.85,2.85,0,0,0-.82-1.98,2.814,2.814,0,0,0-1.98-.82,2.718,2.718,0,0,0-1.98.82Z"/><path class="f" d="M128.632,166.7a26.806,26.806,0,0,0,12.913,2.977c4.562-.03,9.242-.9,12.905-3.753,1.193-.93.976-2.983,0-3.959a2.871,2.871,0,0,0-3.96,0c.809-.631.042-.052-.164.08-.266.171-.54.328-.819.474-.165.087-1.079.491-.453.238-.371.15-.747.288-1.129.41a20.647,20.647,0,0,1-6.805.91,21.559,21.559,0,0,1-6.5-.875c-.414-.124-.817-.271-1.225-.412-.133-.046-.262-.1-.394-.153.685.254.084.037-.046-.024-.507-.237-1-.487-1.5-.748a2.861,2.861,0,0,0-3.831,1,2.83,2.83,0,0,0,1.005,3.831Z"/><path class="f" d="M140.413,135.9a62.159,62.159,0,0,1,1.461,6.687l-.1-.744a4.016,4.016,0,0,1,.025.923l.1-.744a2.186,2.186,0,0,1-.1.415l.282-.669a1.685,1.685,0,0,1-.146.267l.437-.567a1.392,1.392,0,0,1-.218.216l.567-.438a4.393,4.393,0,0,1-.53.28l.669-.282a3.824,3.824,0,0,1-.893.26l.744-.1a3.506,3.506,0,0,1-.838,0l.745.1c-.316-.044-.626-.121-.942-.163a3.091,3.091,0,0,0-2.158.282,2.8,2.8,0,0,0-1,3.831,2.675,2.675,0,0,0,1.673,1.286c.663.09,1.307.26,1.981.29a6.224,6.224,0,0,0,2.849-.667,3.978,3.978,0,0,0,2.245-2.637,6.869,6.869,0,0,0-.032-2.911c-.364-2.154-.862-4.289-1.416-6.4a2.8,2.8,0,0,0-5.4,1.489Z"/><path class="f" d="M164.531,158.429l.057.073-.438-.566a26.207,26.207,0,0,1,3.337,5.736,2.79,2.79,0,0,0,1.673,1.287,2.863,2.863,0,0,0,2.158-.282A2.83,2.83,0,0,0,172.6,163l.1-.745a2.785,2.785,0,0,0-.382-1.413,28.548,28.548,0,0,0-3.831-6.377,2.794,2.794,0,0,0-1.98-.82,2.85,2.85,0,0,0-1.98.82,2.814,2.814,0,0,0-.82,1.98l.1.744a2.8,2.8,0,0,0,.72,1.236Z"/><path class="g" d="M109.322,124.832c.57-.312,1.152-.6,1.75-.852l-.765.323a19.774,19.774,0,0,1,4.947-1.261l-.851.114c.881-.115,1.765-.2,2.649-.286a3.45,3.45,0,0,0,2.263-.938,3.2,3.2,0,0,0,0-4.525,3.118,3.118,0,0,0-2.263-.937,45.25,45.25,0,0,0-5.647.774,20.483,20.483,0,0,0-5.313,2.062,3.23,3.23,0,0,0-1.148,4.378,3.266,3.266,0,0,0,4.378,1.148Z"/><path class="g" d="M166.3,122.047l.089-.014-.851.114a9.854,9.854,0,0,1,2.509.083l-.85-.114a18.073,18.073,0,0,1,4.6,1.345l-.765-.322c.724.31,1.406.687,2.1,1.049a3.2,3.2,0,0,0,3.23-5.527c-3.62-1.877-7.612-3.448-11.767-2.785a3.2,3.2,0,0,0-1.912,1.47,3.2,3.2,0,0,0,1.148,4.379,3.686,3.686,0,0,0,2.465.322Z"/></svg>