<svg xmlns="http://www.w3.org/2000/svg" width="356.099" height="286.399" viewBox="0 0 356.099 286.399"><defs><style>.a{fill:#a98a75;}.b{fill:#fff;}.c{fill:#fce0cd;}.d{fill:#a095c1;}.e{fill:#8e6c55;}.f{fill:#b3b3b3;}.g{fill:#efc0a0;}.h{fill:#645d5c;}.i{fill:#d9d9d9;}</style></defs><path class="a" d="M198.922,192.623l-9.424-19.46c-1.98-4.743-4.077-7.71-8.4-12.3a48.094,48.094,0,0,0-12.2-9.765c-10.307-5.727-22.037-8.363-32.767-12.057a16.245,16.245,0,0,0-1.6-.382,173.1,173.1,0,0,0-29.537-2.407c-16.117,0-27.426.353-30.733,1.111-.651.149-2,.618-2,.618a277.221,277.221,0,0,0-33.389,13.845,55.457,55.457,0,0,0-12.331,9.341,55.643,55.643,0,0,0-7.138,9.405,30.333,30.333,0,0,0-2.1,4.2,141.862,141.862,0,0,0-7.051,25.146C6.7,221.822,3.326,251.429,0,282.378H198.922Z"/><path class="b" d="M98.473,150.546c2.14-2.24,4.032-4.213,5.129-5.323h2.67c1.952,1.974,6.418,6.683,10.33,10.761l-.581.275a25.728,25.728,0,0,1-10.74,2.412,28.009,28.009,0,0,1-11.9-2.8C95.059,154.121,96.839,152.256,98.473,150.546Z"/><path class="c" d="M149.121,69.6a.992.992,0,0,0,1.377,1.048,7.148,7.148,0,0,1,3.16-.556,6.338,6.338,0,0,1,5.638,3.259c1.876,3.387,1.689,9.565.325,13.367-.965,2.692-2.542,6.809-6.223,9.717a7.528,7.528,0,0,1-5.831,1.576l-.556-.1a44.059,44.059,0,0,1-2.089,5.385c-1.43,3.686-8.738,15.889-18.081,21.88,0,1.686,0,3.066,0,3.066a212.457,212.457,0,0,1-20.566,16.989H103.6a212.457,212.457,0,0,1-20.566-16.989s0-1.231,0-2.852A40.858,40.858,0,0,1,71.586,115.2a51.928,51.928,0,0,1-9.534-18.755A7.39,7.39,0,0,1,55.8,94.763c-3.58-3.033-5.015-7.2-5.888-9.924C48.68,80.993,48.7,74.811,50.7,71.491a6.335,6.335,0,0,1,5.745-3.065,7.2,7.2,0,0,1,3.021.609.993.993,0,0,0,1.406-1.044c-1.2-7.87-1.481-33,44.008-33C150.76,34.987,150.284,61.642,149.121,69.6Z"/><path class="c" d="M308.744,93.82a1,1,0,0,0,1.393,1.053,7.09,7.09,0,0,1,3.066-.589,6.258,6.258,0,0,1,5.628,3.11c1.917,3.308,1.85,9.411.576,13.19-.9,2.677-2.38,6.771-5.959,9.712a7.428,7.428,0,0,1-5.727,1.667l-.55-.091a43.691,43.691,0,0,1-1.959,5.356c-1.329,3.631-8.194,15.625-17.182,21.766a24.479,24.479,0,0,0,2.783,8.645c1.887,3.065,6.6,5.717,11.712,8.036l-.42,4.384q-.087,1.511-.166,3.1c-14.778,3.707-22.6,4.88-34.748,4.884-20.351.006-25.285-2.425-32.692-4.857-.007-3.359-.011-6.4-.012-9.049a42.835,42.835,0,0,0,9.358-4.078,4.159,4.159,0,0,0,1.4-1.068,3.337,3.337,0,0,0,.348-1.128c.383-2.183.779-4.378,1.163-6.56-5.015-2.183-9.48-5.867-13.723-10.923a51.27,51.27,0,0,1-9.77-18.336,7.288,7.288,0,0,1-6.2-1.538c-3.592-2.926-5.088-7.013-6-9.686-1.29-3.773-1.384-9.876.518-13.192a6.257,6.257,0,0,1,5.614-3.135,7.057,7.057,0,0,1,3.236.652.99.99,0,0,0,1.4-.986c-.685-8.5-.157-39.79,44.793-39.79C311.288,54.373,310,85.135,308.744,93.82Z"/><path class="b" d="M174.522,284c.933-8.466,1.439-13.9,2.663-21.372,2.532-16.668,4.8-37.608,9.984-59.376,2.028-8.484,5.256-17.148,11.7-23.016,3.528-3.2,7.872-5.316,12.168-7.392,6.276-3.024,16.218-6.786,23.448-9.62,0,23.75.312,81.334,0,120.776Z"/><path class="b" d="M301.041,284.157c0-37.624-.519-86.534,1.064-114.1l.42-4.384.025-.269c13.943,5.984,29.008,12.708,36.527,25.941,4.416,7.8,5.652,16.944,6.792,25.836,1.884,14.628,7.12,58.54,7.824,66.816Z"/><path class="d" d="M301.041,284.157c0-36.254-.482-82.986.9-110.994-14.779,3.707-22.6,4.88-34.75,4.884-20.354.007-25.287-2.426-32.695-4.856.055,27.39.263,76.116-.011,110.808Z"/><path class="b" d="M103.6,145.223a212.457,212.457,0,0,1-20.566-16.989,91.606,91.606,0,0,0-9.381,9.256c4.538,6.9,9.414,14.624,14.865,21.759a1,1,0,0,0,1.514.09C94.332,154.921,101.075,147.779,103.6,145.223Z"/><path class="b" d="M106.272,145.223a212.457,212.457,0,0,0,20.566-16.989,91.606,91.606,0,0,1,9.381,9.256c-4.538,6.9-9.414,14.624-14.865,21.759a1,1,0,0,1-1.514.09C115.542,154.921,108.8,147.779,106.272,145.223Z"/><path class="e" d="M37.322,201.422c-.173,20.933-1.384,41.846-2.157,62.76-.212,5.726-.388,11.457-.729,17.177-.184,3.086,4.617,3.075,4.8,0,.618-10.371.8-20.766,1.277-31.144q.747-16.168,1.244-32.348c.164-5.48.32-10.962.365-16.445.025-3.089-4.775-3.092-4.8,0Z"/><path class="f" d="M157.372,42.606a56.459,56.459,0,0,0-4.9-14.8C143.813,10.644,124.919.332,106.039.01,93.614-.2,82.96,3.1,74.084,9.662a25.347,25.347,0,0,0-8.252,9.545,3.171,3.171,0,0,1-2.614,1.741l-.045,0a3.236,3.236,0,0,0-2.2,1.1C55.1,28.678,51.873,40.019,52,51.568A67.521,67.521,0,0,0,53.827,68.88a8.022,8.022,0,0,1,2.613-.454,6.993,6.993,0,0,1,4.189,1.282.992.992,0,0,0,1.552-.671C63.106,62.786,63.8,55,71.239,46.53c1.7-1.935,6.431-3.6,10.779-5.261,4.136-1.584,17.13-1.386,22.341-1.046,10.9-1.448,25.075.177,32.841,6.905a37.081,37.081,0,0,1,6.318,6.486c3.27,4.88,4.2,9.872,4.544,16.714a1,1,0,0,0,1.532.794,6.993,6.993,0,0,1,4.064-1.034,8.074,8.074,0,0,1,2.377.461C158.864,62.139,159.157,52.025,157.372,42.606Z"/><path class="g" d="M96.224,107.982a17.958,17.958,0,0,0,8.492,2.133c2.814.049,6.129-.354,8.456-2.1a2.462,2.462,0,0,0,.861-3.284,2.424,2.424,0,0,0-3.283-.861,6.53,6.53,0,0,1-.908.571c-.091.048-.184.091-.275.137-.348.177-.01-.03.143-.053a6.073,6.073,0,0,0-.791.282,12.7,12.7,0,0,1-1.919.427c.548-.081-.195.013-.246.017q-.3.027-.6.042c-.479.027-.96.034-1.44.026q-.658-.01-1.316-.062c-.24-.019-.479-.044-.718-.07.344.038.044.007-.134-.023a14.358,14.358,0,0,1-1.932-.449c-.27-.084-.535-.181-.8-.279-.454-.168.073.087.132.06a1.768,1.768,0,0,1-.338-.154c-.328-.155-.646-.327-.963-.5a2.4,2.4,0,1,0-2.423,4.145Z"/><path class="g" d="M103.906,87.831c.344,1.411.652,2.836.863,4.272l-.086-.638a2.758,2.758,0,0,1,.016.673l.086-.638a1.45,1.45,0,0,1-.071.268l.242-.573a1.036,1.036,0,0,1-.1.171l.376-.486a.932.932,0,0,1-.144.137l.485-.375a2.882,2.882,0,0,1-.346.176l.574-.242a2.5,2.5,0,0,1-.581.158l.638-.085a2.348,2.348,0,0,1-.543-.01l.638.085c-.2-.032-.4-.085-.608-.116a2.624,2.624,0,0,0-1.85.242,2.4,2.4,0,0,0-.861,3.284,2.317,2.317,0,0,0,1.435,1.1c.481.074.945.193,1.437.223a4.562,4.562,0,0,0,2.144-.5,3.126,3.126,0,0,0,1.734-2.047,5.093,5.093,0,0,0,0-2.2c-.217-1.4-.511-2.786-.846-4.162a2.424,2.424,0,0,0-2.953-1.676,2.45,2.45,0,0,0-1.676,2.952Z"/><path class="h" d="M81.289,75.09c-.763,2.338-.384,7.752,4.06,8.288,5.886.066,6.311-6.465,4.382-9.573C88.152,71.261,83.4,70.133,81.289,75.09Z"/><path class="h" d="M128.6,75.9c.683,2.362.119,7.76-4.341,8.144-5.884-.136-6.086-6.678-4.053-9.717C121.867,71.838,126.654,70.873,128.6,75.9Z"/><path class="g" d="M120,102.582a7.154,7.154,0,0,1,.609.693l-.375-.486a8.88,8.88,0,0,1,1.079,1.9l-.242-.573q.2.48.368.974a2.555,2.555,0,0,0,1.1,1.434,1.8,1.8,0,0,0,.893.285,1.823,1.823,0,0,0,.957-.043,2.429,2.429,0,0,0,1.434-1.1,2.4,2.4,0,0,0,.242-1.849,11.734,11.734,0,0,0-2.674-4.624,2.475,2.475,0,0,0-1.7-.7,2.443,2.443,0,0,0-1.7.7,2.414,2.414,0,0,0-.7,1.7,2.5,2.5,0,0,0,.7,1.7Z"/><path class="g" d="M279.059,126.615a7.154,7.154,0,0,1,.609.693l-.375-.486a8.856,8.856,0,0,1,1.079,1.9l-.242-.573c.135.32.256.645.368.973a2.557,2.557,0,0,0,1.1,1.435,1.8,1.8,0,0,0,.893.285,1.823,1.823,0,0,0,.957-.043,2.429,2.429,0,0,0,1.434-1.1,2.4,2.4,0,0,0,.242-1.85,11.73,11.73,0,0,0-2.674-4.623,2.475,2.475,0,0,0-1.7-.7,2.439,2.439,0,0,0-1.7.7,2.412,2.412,0,0,0-.7,1.7,2.506,2.506,0,0,0,.7,1.7Z"/><path class="i" d="M202.828,180.119a76.466,76.466,0,0,1,12.581-6.665c4.522-2.013,9.144-3.8,13.755-5.594a2.47,2.47,0,0,0,1.676-2.952,2.418,2.418,0,0,0-2.952-1.676c-4.867,1.9-9.736,3.795-14.514,5.906a77.438,77.438,0,0,0-12.968,6.836,2.464,2.464,0,0,0-.862,3.284,2.422,2.422,0,0,0,3.284.861Z"/><path class="i" d="M307.736,170.276c9.65,4.354,19.5,9.438,26.269,17.828,6.971,8.635,8.314,20.028,9.666,30.662,1.958,15.406,3.781,30.831,5.558,46.259.728,6.317,1.52,12.638,2.064,18.974a2.461,2.461,0,0,0,2.4,2.4,2.419,2.419,0,0,0,2.4-2.4c-1.2-14.018-3.1-28-4.771-41.97q-1.338-11.154-2.729-22.3c-1.382-10.938-2.558-22.512-8.876-31.9-7.022-10.437-18.369-16.644-29.558-21.693a2.473,2.473,0,0,0-3.284.861,2.42,2.42,0,0,0,.861,3.284Z"/><path class="i" d="M206.34,218.677c-.177,2.511-.475,5.008-.608,7.523-.236,4.454-.119,8.905,0,13.36.257,9.376.445,18.754.713,28.13.132,4.612.277,9.225.5,13.833.15,3.075,4.951,3.093,4.8,0-.429-8.765-.613-17.543-.825-26.316-.223-9.19-.816-18.456-.456-27.645.117-2.973.462-5.92.671-8.885a2.421,2.421,0,0,0-2.4-2.4,2.447,2.447,0,0,0-2.4,2.4Z"/><path class="i" d="M317.543,216.557c.831,16.93,1.174,33.884.927,50.834q-.11,7.518-.372,15.032c-.108,3.09,4.692,3.086,4.8,0q.9-25.776.031-51.571-.232-7.15-.586-14.3c-.151-3.075-4.951-3.093-4.8,0Z"/><path class="f" d="M217.041,55.2A52.115,52.115,0,0,1,249.2,27.714a46.522,46.522,0,0,1,15.57-1.867c7.837.25,14.7,1.292,20.79,3.634a56.956,56.956,0,0,1,9.392,4.877l.378.246,7.814,6.888a40.544,40.544,0,0,1,9.169,12.831,44.211,44.211,0,0,1,3.6,10.477c1.487,7.138,3.347,21.319-.082,30a7.675,7.675,0,0,0-2.622-.514,7.114,7.114,0,0,0-2.878.51.992.992,0,0,1-.721.025c-1.48-.543-3.552-1.308-3.552-1.308-6.019-1.783-13.615-12.114-16.1-16.824-1.531-2.9-3.347-8.552-4.79-13.607a.993.993,0,0,0-1.744-.328,64.457,64.457,0,0,1-31.565,22.1,1.073,1.073,0,0,1-.386.047L242.4,84.3a.989.989,0,0,0-.677.208,202.654,202.654,0,0,1-17.948,12.437.982.982,0,0,1-1.269-.2,6.639,6.639,0,0,0-5.317-2.241c-.139,0-.275.013-.408.026a27.532,27.532,0,0,1-2.907-8.1c-1.181-4.842-1.328-15.245-.093-21.332A44.4,44.4,0,0,1,217.041,55.2Z"/><path class="g" d="M255.62,132.689a17.78,17.78,0,0,0,8.57,1.971,13.986,13.986,0,0,0,8.679-2.594,2.4,2.4,0,0,0,0-3.394,2.474,2.474,0,0,0-3.394,0c.737-.577.209-.165.019-.043-.169.11-.344.211-.523.305-.092.048-.187.092-.28.14-.19.1-.4.066.137-.048-.24.052-.485.188-.721.264a13.454,13.454,0,0,1-2.019.465c.362-.058.055-.008-.139.012s-.4.037-.6.05c-.478.032-.957.045-1.436.043q-.644,0-1.286-.043c-.2-.013-.393-.028-.589-.048-.061-.006-.784-.117-.231-.021a16.65,16.65,0,0,1-1.889-.415q-.4-.117-.783-.262c-.085-.031-.168-.067-.253-.1-.456-.165.522.249.116.047-.32-.159-.643-.31-.96-.476a2.4,2.4,0,1,0-2.423,4.144Z"/><path class="g" d="M262.833,112.61a39.615,39.615,0,0,1,.944,4.275l-.085-.638a2.589,2.589,0,0,1,.017.59l.086-.638a1.434,1.434,0,0,1-.065.266l.242-.573a1.05,1.05,0,0,1-.093.171l.375-.486a.955.955,0,0,1-.139.138l.486-.375a2.814,2.814,0,0,1-.339.18l.574-.242a2.53,2.53,0,0,1-.571.168l.638-.086a2.235,2.235,0,0,1-.536,0l.638.086c-.415-.057-.824-.134-1.241-.189a2.383,2.383,0,0,0-1.7.7,2.4,2.4,0,0,0,0,3.394l.486.375a2.4,2.4,0,0,0,1.211.328l.051.007-.638-.086a9.925,9.925,0,0,0,1.445.2,4.684,4.684,0,0,0,2.154-.556,3.1,3.1,0,0,0,1.637-2.077,5.283,5.283,0,0,0-.043-2.154c-.241-1.364-.554-2.717-.908-4.057a2.48,2.48,0,0,0-1.1-1.434,2.4,2.4,0,0,0-3.526,2.71Z"/><path class="h" d="M240.393,100.5c-.709,2.323-.232,7.661,4.167,8.1,5.811-.047,6.106-6.5,4.143-9.534C247.1,96.588,242.383,95.565,240.393,100.5Z"/><path class="h" d="M286.933,100.4c.719,2.32.266,7.66-4.131,8.124-5.811-.022-6.135-6.477-4.186-9.516C280.213,96.514,284.92,95.47,286.933,100.4Z"/><path class="i" d="M311.853,119.818a6.081,6.081,0,0,0-6.2,6.164c0,3.847,2.4,6.279,6.2,6.279,3.892,0,6.2-2.432,6.2-6.279A6.076,6.076,0,0,0,311.853,119.818Z"/><path class="i" d="M219.053,119.818a6.081,6.081,0,0,0-6.2,6.164c0,3.847,2.4,6.279,6.2,6.279,3.892,0,6.2-2.432,6.2-6.279A6.076,6.076,0,0,0,219.053,119.818Z"/></svg>