<svg xmlns="http://www.w3.org/2000/svg" width="243.65" height="182.237" viewBox="0 0 243.65 182.237"><defs><style>.a{fill:#fff;}.b{fill:#ffda71;}.c{fill:#74c66d;}.d{fill:#211715;}</style></defs><path class="a" d="M223.551,70.125a144.2,144.2,0,0,0,3.76-35.178c-.095-6.932-7.873-11.076-14.444-7.752L175.4,46.146l-1.491-10.5a235.647,235.647,0,0,0-6.35-26.61c-3.14-10.27-12.02-6.99-16.51-1.47C145.5,14.4,141.01,21.43,135,29.13c-4.11,5.28-9.22,11.39-10.95,17.86-1.35,5.01-1.07,10.07-.51,15.24.62,5.62,1.08,10.29,1.361,16.128a128.647,128.647,0,0,0-18.373-11.8C99.45,63,89.605,62.744,81.455,65.862a24.078,24.078,0,0,0-11.423,8.576c-1.213,3.591-.388,8.582,1.2,17.506,1.373,7.7,5.273,17.343,7.922,19.738,6.446,4.307,11.5,12.337,14.055,17.469,4.04,8.107,22.193,52.808,78.087,36.737,7.993,11.192,23.842,19.16,31.266,9.781,9.328,8.037,23.725,2.7,29.685-1.107a18.352,18.352,0,0,0,6.974-7.623c1.583-3.333,2.024-5.787,2.024-11.818,0-3.95-4.42-9.42-10.47-11.75-8.27-3.2-16.51-5.27-24.67-8.33a46.8,46.8,0,0,1-9.16-4.18,32.655,32.655,0,0,1-9.277-9.935l.073-.033c10.33-4.655,19.7-12.514,25.157-22.532A114.446,114.446,0,0,0,223.551,70.125Z"/><path class="b" d="M71.819,84.571A46.035,46.035,0,0,0,58.041,96.486c5.4,0,10.434-.166,16.093-.477Z"/><path class="c" d="M20.329,75.918c2.049-1.226,8.017-1.292,15.631.116,6.483,1.2,11.793,3.507,18.679,6.953q.75.594,1.481,1.21c-7.479,2.213-15.964,3.319-23.674,1.622-6.629-1.459-13.5-6.98-12.838-9.1A1.51,1.51,0,0,1,20.329,75.918Z"/><path class="c" d="M25.479,47.745a1.942,1.942,0,0,0-1.507.34C22.5,49.5,25.131,55.691,30.649,63.027c4.349,5.782,9.265,9.7,16.4,15-1.316-7.857-4.122-16.2-9.206-22.509C34.379,51.225,28.441,47.981,25.479,47.745Z"/><path class="c" d="M2.542,52.389l.017-.039c.968-2.073,9.39-1.289,17.016,2.878C24.656,58,30.347,61.77,33.606,66.593c-6.032,1.065-13.829.715-19.5-2.359C6.188,59.947,1.457,54.9,2.542,52.389Z"/><path class="d" d="M46.573,74.7A76.925,76.925,0,0,1,34.559,64.062a55.014,55.014,0,0,1-5.087-6.946,30.046,30.046,0,0,1-3.051-5.884c-.121-.348-.234-.7-.323-1.059-.052-.209-.1-.418-.135-.629.013.075.094.5.016.074-.025-.137.006-.279-.007-.416-.03-.312-.178.562-.019.137.138-.371-.1.212-.11.226.092-.144-.434.4-.643.52-.386.225.045.032.1,0-.435.247-.311.126-.16.046.07-.036.749.064.12-.021a4.011,4.011,0,0,1,.424.08A13.488,13.488,0,0,1,28,50.975a23.746,23.746,0,0,1,10.388,9.491,50.737,50.737,0,0,1,6.221,17.469,2.422,2.422,0,0,0,2.952,1.677,2.453,2.453,0,0,0,1.676-2.953C47.1,64.933,41.8,52.012,30.284,46.766c-1.87-.852-4.159-1.8-6.259-1.31a3.833,3.833,0,0,0-2.846,4.162,16.3,16.3,0,0,0,2.144,6.413,55.4,55.4,0,0,0,5.254,8.208c4.359,5.776,9.822,10.277,15.573,14.6a2.417,2.417,0,0,0,3.284-.861,2.459,2.459,0,0,0-.861-3.284Z"/><path class="d" d="M56.032,81.005c-5.7-2.85-11.535-5.573-17.788-6.952-5.306-1.17-11.4-2.183-16.8-1.056-1.689.352-3.543,1.206-4.107,2.98-.635,2,.7,3.9,2.008,5.282a26.193,26.193,0,0,0,15.1,7.343,53.25,53.25,0,0,0,22.188-2.047c2.962-.858,1.7-5.491-1.276-4.629C45.4,84.807,33.458,86.1,24.643,79.548a14.891,14.891,0,0,1-1.909-1.683c-.105-.11-.634-.756-.437-.481-.105-.146-.19-.3-.292-.451-.277-.4-.05-.037-.054-.09-.021-.341-.056.6.013.129a2.328,2.328,0,0,1-.2.754c-.182.4-.293.389-.109.16.2-.253-.443.45-.088.086a1.185,1.185,0,0,1,.286-.148c-.5.114-.2.083-.068.044.384-.114.763-.212,1.156-.288.083-.016.592-.092.242-.046.182-.024.368-.04.551-.056.454-.04.908-.063,1.363-.077,1.128-.034,2.257,0,3.383.071a56.063,56.063,0,0,1,8.075,1.122c6.02,1.273,11.575,3.818,17.049,6.556,2.755,1.378,5.189-2.761,2.423-4.145Z"/><path class="d" d="M35.486,65.1c-3.5-4.9-8.484-8.443-13.673-11.377-4.786-2.7-10.506-5.007-16.107-4.876-1.832.043-4.018.409-5.09,2.082C-.43,52.565,0,54.59.851,56.2a17.259,17.259,0,0,0,4.205,4.822,45.165,45.165,0,0,0,7.627,5.17c5.883,3.2,12.974,3.862,19.536,3.02a2.478,2.478,0,0,0,2.4-2.4,2.413,2.413,0,0,0-2.4-2.4A31.535,31.535,0,0,1,17.627,63.2a29.91,29.91,0,0,1-6.541-3.592A26.263,26.263,0,0,1,6.2,55.473a9.811,9.811,0,0,1-1.1-1.5,4.067,4.067,0,0,1-.2-.387c.21.419.019.055-.023-.074-.047-.144-.082-.289-.117-.437.091.386.138.235.032-.01.037.085-.163.551-.016.2.088-.214.156-.18-.085.194-.155.241-.328.441-.374.389l-.134.054c.115-.042.232-.079.35-.111s.261-.062.394-.089c.084-.017.447-.052.029-.007.249-.026.5-.036.752-.042,4.422-.1,9.012,1.655,12.828,3.744,4.721,2.586,9.626,5.685,12.807,10.132a2.468,2.468,0,0,0,3.284.861,2.42,2.42,0,0,0,.861-3.284Z"/><path class="d" d="M44.239,78.958a60.614,60.614,0,0,1,13.075,9.536,16.944,16.944,0,0,1,4.045,5.425c1.068,2.584.537,5.141-.388,7.681a2.421,2.421,0,0,0,1.676,2.952,2.448,2.448,0,0,0,2.952-1.676,14.807,14.807,0,0,0,.641-9.511,19.359,19.359,0,0,0-4.693-7.418A61.954,61.954,0,0,0,46.661,74.813c-2.706-1.494-5.13,2.65-2.422,4.145Z"/><path class="d" d="M133.6,82c-4.926-3.824-9.885-7.618-15.063-11.1-4.342-2.918-8.914-5.912-13.848-7.732-8.133-3-17.646-2.343-25.537,1.061a26.236,26.236,0,0,0-11.194,9,2.422,2.422,0,0,0,.861,3.284,2.45,2.45,0,0,0,3.284-.861c4.265-6.1,12.04-9.05,19.241-9.492a29.8,29.8,0,0,1,11.2,1.339c4.248,1.4,8.289,4.087,12.061,6.552,5.384,3.518,10.52,7.4,15.6,11.346a2.48,2.48,0,0,0,3.394,0,2.415,2.415,0,0,0,0-3.394Z"/><path class="d" d="M77.947,113.755c10.605,7.209,13.995,20.323,20.835,30.5,7.956,11.842,19.23,21.267,33.1,25.235,10.9,3.116,22.424,2.7,33.426.374,3.02-.638,1.742-5.266-1.276-4.628-9.461,2-19.36,2.452-28.705.2a51.083,51.083,0,0,1-19.446-9.422,61.385,61.385,0,0,1-7.168-6.747c-1.026-1.135-2.006-2.309-2.957-3.508-.046-.057-.459-.592-.12-.151q-.153-.2-.3-.4c-.218-.29-.435-.579-.65-.872q-.626-.853-1.228-1.727a89.893,89.893,0,0,1-6.814-11.861c-3.906-8.048-8.723-16.009-16.271-21.14-2.561-1.741-4.966,2.416-2.423,4.145Z"/><path class="d" d="M185.6,122.132a38.147,38.147,0,0,0,8.643,9.738c3.595,2.741,7.933,4.281,12.138,5.821,4.658,1.7,9.41,3.134,14.131,4.648,4.18,1.341,8.821,2.474,12.535,4.883a15.288,15.288,0,0,1,4.208,3.966,12.146,12.146,0,0,1,1.154,2,5.508,5.508,0,0,1,.443,1.931c.07,3.084,4.87,3.095,4.8,0-.08-3.553-2.182-6.79-4.641-9.215-3.309-3.266-7.41-4.86-11.723-6.365-4.691-1.638-9.456-3.048-14.176-4.6a80.271,80.271,0,0,1-13.253-5.153c-4.306-2.333-7.471-6.03-10.115-10.082-1.681-2.577-5.839-.174-4.144,2.423Z"/><path class="d" d="M90.34,83.955a4,4,0,1,0-4-4,4.045,4.045,0,0,0,4,4Z"/><path class="d" d="M70.608,82.5a48.022,48.022,0,0,0-14.264,12.29,2.447,2.447,0,0,0-.5,2.622,2.412,2.412,0,0,0,2.194,1.475c5.368,0,10.732-.184,16.093-.477a2.4,2.4,0,0,0,0-4.8c-5.361.293-10.725.474-16.093.477l1.7,4.1a44.185,44.185,0,0,1,13.293-11.54A2.4,2.4,0,1,0,70.608,82.5Z"/><path class="d" d="M130.757,87.6a36.773,36.773,0,0,0,15.128-12.85c2.191-3.232,3.819-6.769,5.869-10.082a24.271,24.271,0,0,1,8.461-7.95c3.743-2.257,7.732-4.116,11.629-6.087l12.67-6.41,25.563-12.93c2.926-1.481,5.907-3.442,9.249-2.7a6.932,6.932,0,0,1,5.324,4.643,18.084,18.084,0,0,1,.27,5.119q-.027,3-.171,6.006c-.2,4.116-.557,8.231-1.116,12.314a128.782,128.782,0,0,1-5.766,24.442c-2.592,7.523-5.832,15.266-10.661,21.65-9.676,12.788-25.1,19.682-40.827,20.823-2.2.16-4.408.227-6.615.232-3.089.007-3.094,4.807,0,4.8,9.14-.021,18.424-1.212,26.933-4.69A59.5,59.5,0,0,0,207,110.326c5.915-6.13,9.777-13.581,13.015-21.387a123.358,123.358,0,0,0,7.354-25.384A149.556,149.556,0,0,0,229.725,37.5c.011-3.787-.354-7.184-3.044-10.081a12.407,12.407,0,0,0-9.035-3.793c-4.373.022-8.219,2.622-11.992,4.531l-13.337,6.747L165.642,48.4a71.971,71.971,0,0,0-11.3,6.5,30.023,30.023,0,0,0-8.237,9.972c-3.34,6.148-6.853,12.087-12.891,15.935a43.971,43.971,0,0,1-4.881,2.65,2.422,2.422,0,0,0-.861,3.284,2.454,2.454,0,0,0,3.284.861Z"/><path class="d" d="M127.3,78.36c-.227-4.624-.62-9.234-1.111-13.838-.5-4.671-1.139-9.472-.407-14.156,1.408-9.009,8.243-15.917,13.514-22.929,2.834-3.77,5.538-7.634,8.317-11.444,2.211-3.03,4.369-6.443,7.255-8.885a8.675,8.675,0,0,1,6.095-2.316c-.425-.041.239.051.374.085a5.113,5.113,0,0,1,.764.246c-.327-.141.343.214.475.3.032.02.365.25.112.058a4.724,4.724,0,0,1,.385.336,8.838,8.838,0,0,1,2.173,3.865,204.637,204.637,0,0,1,6.35,26.61,2.42,2.42,0,0,0,2.952,1.676,2.453,2.453,0,0,0,1.677-2.952A215.113,215.113,0,0,0,170.212,9.47c-1.06-3.424-2.586-7.039-6.047-8.644a10.525,10.525,0,0,0-9.054.457c-3.2,1.513-5.432,4.122-7.557,6.855-3.042,3.914-5.9,7.96-8.8,11.978-2.961,4.1-6.087,8.062-9.154,12.081a47.708,47.708,0,0,0-7.244,12.225c-1.979,5.375-1.877,11.254-1.31,16.869.574,5.688,1.178,11.357,1.458,17.069.151,3.075,4.952,3.093,4.8,0Z"/><path class="d" d="M134.571,162.726A48.056,48.056,0,0,0,146.8,178.875a2.462,2.462,0,0,0,3.394,0,2.421,2.421,0,0,0,0-3.394A43.84,43.84,0,0,1,138.715,160.3a2.419,2.419,0,0,0-3.283-.861,2.454,2.454,0,0,0-.861,3.283Z"/><path class="d" d="M168.507,166.048a40.229,40.229,0,0,0,13.048,12.409c4.6,2.689,10.15,4.552,15.5,3.393a12.906,12.906,0,0,0,7.205-4.484h-3.394c9.215,7.765,23.085,5.285,32.593-.732,2.6-1.647.2-5.8-2.422-4.144-7.413,4.69-19.285,7.795-26.777,1.482-.911-.768-2.523-1.074-3.394,0a9.041,9.041,0,0,1-2.917,2.5,10.594,10.594,0,0,1-2.864.876,15.855,15.855,0,0,1-8-1.441,33.723,33.723,0,0,1-14.436-12.279c-1.7-2.559-5.863-.159-4.145,2.423Z"/></svg>