<svg xmlns="http://www.w3.org/2000/svg" width="283.628" height="296.05" viewBox="0 0 283.628 296.05"><defs><style>.a{fill:#fce0cd;}.b{fill:#fff;}.c{fill:#7a7473;}.d{fill:#d9d9d9;}.e{fill:#efc0a0;}.f{fill:#645d5c;}</style></defs><path class="a" d="M212.251,108.58a2.144,2.144,0,0,0,2.958,1.814,10.523,10.523,0,0,1,5.418-.655,9.776,9.776,0,0,1,7.03,4.674,13.819,13.819,0,0,1,1.448,5.562,41.428,41.428,0,0,1-4.224,21.96,26.331,26.331,0,0,1-6.809,8.936,17.449,17.449,0,0,1-8.118,3.659l-.025,0a2.15,2.15,0,0,0-1.732,1.523c-.558,1.909-1.114,3.483-1.415,4.4-2.207,5.991-13.886,25.746-28.98,34.927a2.15,2.15,0,0,0-1.047,2.045c.243,2.4.583,4.789,1,7.157.807,4.63.561,8.751,6.963,11.066.315.106,10.137,4.771,15.626,7.366l3.346,1.484a2.134,2.134,0,0,1,.96,3.071c-6.515,10.476-26.72,29.527-60.947,29.527-37.535,0-59.282-19.672-64.5-29.543a2.138,2.138,0,0,1,1-2.95c2.646-1.213,6.476-2.9,6.476-2.9,6.016-2.754,12.891-5.963,13.136-6.051,6.419-2.315,6.156-6.436,6.98-11.066.476-2.745.844-5.275,1.093-7.966a2.142,2.142,0,0,0-1.01-2,65.024,65.024,0,0,1-15.038-13.471,69.822,69.822,0,0,1-13.046-24.9,2.15,2.15,0,0,0-1.732-1.513l-1.3-.2a17.449,17.449,0,0,1-8.118-3.659,26.344,26.344,0,0,1-6.809-8.936,41.428,41.428,0,0,1-4.224-21.96,13.819,13.819,0,0,1,1.448-5.562,9.776,9.776,0,0,1,7.03-4.674,10.525,10.525,0,0,1,5.606.733,2.127,2.127,0,0,0,2.937-1.723c1.41-11.955,10.552-51.2,69.8-51.2C203.932,57.551,211.4,96.431,212.251,108.58Z"/><path class="b" d="M6.12,293.27a2.138,2.138,0,0,1-1.942-3.032c1.979-4.308,3.85-8.668,6.219-12.784,2.592-4.5,7.367-15.3,17.1-23.924,5.152-4.568,17.814-13.829,37.113-22.815,3.992-1.859,8.561-4.059,13.1-6.114a2.128,2.128,0,0,1,2.069.184,111.8,111.8,0,0,0,124.027-.02,2.123,2.123,0,0,1,2.069-.184c4.555,2.06,9.142,4.269,13.147,6.134,19.3,8.986,31.961,18.247,37.114,22.815,9.727,8.625,14.5,19.422,17.094,23.924,2.369,4.116,4.241,8.476,6.219,12.784a2.138,2.138,0,0,1-1.942,3.032Z"/><path class="c" d="M114.121,2.256A69.875,69.875,0,0,0,81.464,18.915a2.149,2.149,0,0,0,.443,3.477l2.052,1.09a2.136,2.136,0,0,1,.188,3.659c-9.9,6.716-17.642,18.733-21.282,29.423-4.334,12.726-5.722,30.669-.974,51.858a2.126,2.126,0,0,0,2.488,1.609c.135-.026.271-.049.407-.069a10.454,10.454,0,0,1,7.548,1.826,2.146,2.146,0,0,0,2.743-.168c18.53-17.5,34.884-28.456,51.263-41.14a2.138,2.138,0,0,1,3.315.923c1.194,3.182,3.216,7.853,3.831,8.1,1.142.465,13.158-7.029,22.2-12.614a2.117,2.117,0,0,1,1.584-.264c3,.677,12.591,2.937,13.9,3.247a2.085,2.085,0,0,1,.3.093,53.544,53.544,0,0,1,16.723,9.822c9.535,8.2,17.333,19.827,22.421,30.555a2.107,2.107,0,0,0,2.954.944,10.421,10.421,0,0,1,6.762-1.327l.071.011a2.17,2.17,0,0,0,2.413-1.415c4.523-13.122,4.926-31.364-1.278-48.712-4.543-12.7-15.825-26-23.909-29.834a1.928,1.928,0,0,1-.3-.175l-11.283-8.112a2.071,2.071,0,0,1-.455-.451C175.635,7.805,160.639.7,139.534.058A102.482,102.482,0,0,0,114.121,2.256Z"/><path class="d" d="M72.169,224.08c-13.42,6.264-26.729,12.689-38.815,21.332a75.862,75.862,0,0,0-11.408,9.612,78.476,78.476,0,0,0-11.437,16.348c-1.36,2.5-2.771,4.986-4.077,7.514-2.194,4.245-4.024,8.666-6.1,12.971a2.875,2.875,0,0,0,1.005,3.831,2.825,2.825,0,0,0,3.831-1c1.8-3.75,3.427-7.585,5.263-11.319,1.238-2.518,2.646-4.942,3.967-7.416A82.505,82.505,0,0,1,24.1,261a55.873,55.873,0,0,1,6.488-6.456c.712-.6,1.438-1.183,2.171-1.759.151-.119.546-.423.169-.133.226-.174.453-.346.68-.518q.723-.546,1.455-1.081a162.092,162.092,0,0,1,15.119-9.734c8.034-4.607,16.428-8.493,24.814-12.407a2.824,2.824,0,0,0,1-3.831,2.864,2.864,0,0,0-3.831-1Z"/><path class="d" d="M209.326,229.241c13.1,6.132,26.066,12.429,37.885,20.841q1.467,1.044,2.9,2.13c.194.147.387.294.58.443-.377-.29.018.014.17.133.4.313.793.627,1.186.946a56.965,56.965,0,0,1,5.666,5.25,73.329,73.329,0,0,1,10.695,15.459c1.348,2.489,2.758,4.956,4.049,7.475,2.146,4.183,3.952,8.529,5.99,12.765a2.825,2.825,0,0,0,3.83,1,2.86,2.86,0,0,0,1-3.831c-5.711-11.875-10.965-24.318-19.538-34.5-7.269-8.633-17.278-14.978-26.955-20.567-7.974-4.606-16.307-8.482-24.641-12.383a2.878,2.878,0,0,0-3.83,1,2.823,2.823,0,0,0,1,3.831Z"/><path class="e" d="M130.245,167.712a27.05,27.05,0,0,0,13.034,3c4.6-.03,9.325-.9,13.02-3.783,1.194-.93.976-2.983,0-3.96a2.873,2.873,0,0,0-3.96,0c.807-.628.034-.046-.172.086-.268.172-.545.331-.827.479-.164.086-1.081.494-.464.244q-.562.228-1.141.414a21.011,21.011,0,0,1-6.886.92,21.948,21.948,0,0,1-6.573-.885c-.417-.125-.825-.273-1.237-.416-.135-.047-.265-.106-.4-.155.681.253.074.033-.053-.027-.512-.24-1.016-.492-1.516-.756a2.861,2.861,0,0,0-3.831,1,2.831,2.831,0,0,0,1,3.831Z"/><path class="e" d="M142.163,136.608a62.69,62.69,0,0,1,1.478,6.757l-.1-.744a4.1,4.1,0,0,1,.025.933l.1-.744a2.249,2.249,0,0,1-.1.419l.283-.669a1.811,1.811,0,0,1-.148.27l.437-.567a1.417,1.417,0,0,1-.22.218l.566-.438a4.339,4.339,0,0,1-.535.283l.669-.282a3.9,3.9,0,0,1-.9.263l.744-.1a3.582,3.582,0,0,1-.847,0l.745.1c-.32-.045-.633-.122-.952-.165a3.091,3.091,0,0,0-2.158.282,2.8,2.8,0,0,0-1,3.831,2.68,2.68,0,0,0,1.673,1.287c.668.09,1.316.261,1.994.291a6.267,6.267,0,0,0,2.865-.67,3.993,3.993,0,0,0,2.254-2.647,6.907,6.907,0,0,0-.033-2.926c-.367-2.177-.871-4.335-1.431-6.47a2.8,2.8,0,1,0-5.4,1.489Z"/><path class="f" d="M105.745,117.8c-1.052,3.706-.269,11.8,6.4,12.646a2.8,2.8,0,0,0,.409.02c8.985-.2,9.443-10.288,6.375-15.047-2.514-3.9-9.874-5.538-13.071,2.073A2.621,2.621,0,0,0,105.745,117.8Z"/><path class="f" d="M179.372,117.8c1.052,3.706.269,11.8-6.4,12.646a2.775,2.775,0,0,1-.408.02c-8.985-.205-9.444-10.288-6.376-15.048,2.514-3.9,9.874-5.537,13.072,2.075A2.728,2.728,0,0,1,179.372,117.8Z"/></svg>