<svg xmlns="http://www.w3.org/2000/svg" width="274.273" height="295.957" viewBox="0 0 274.273 295.957"><defs><style>.a{fill:#fce0cd;}.b{fill:#f4b467;}.c{fill:#957f6e;}.d{fill:#efc0a0;}.e{fill:#645d5c;}</style></defs><path class="a" d="M199.018,229.474c-1.29-.44-22.43-10.33-22.87-10.49-6.68-2.41-6.42-6.71-7.26-11.51a92.8,92.8,0,0,1-1.34-10.939c17.359-7.371,31.339-30.755,33.772-37.361.366-1.109,1.109-3.2,1.772-5.673.89-.157,1.392-.234,1.392-.234a17.406,17.406,0,0,0,8.1-3.65,26.237,26.237,0,0,0,6.79-8.912,41.313,41.313,0,0,0,4.213-21.9,13.777,13.777,0,0,0-1.444-5.547,9.749,9.749,0,0,0-7.011-4.661,10.327,10.327,0,0,0-8.263,2.417s5.922-57.288-70.824-57.288c-72.164,0-67.775,57.288-67.775,57.288A10.328,10.328,0,0,0,60,108.6a9.753,9.753,0,0,0-7.012,4.661,13.792,13.792,0,0,0-1.443,5.547,41.313,41.313,0,0,0,4.213,21.9,26.237,26.237,0,0,0,6.79,8.912,17.406,17.406,0,0,0,8.1,3.65s1,.153,2.639.4A70.253,70.253,0,0,0,86.677,179.81c6.031,7.218,12.764,12.754,20.086,16.241A90.691,90.691,0,0,1,105.4,207.47c-.843,4.807-.579,9.1-7.262,11.517-.442.159-21.58,10.046-22.867,10.485,0,0,2.762,36.976,64.391,36.976S199.018,229.474,199.018,229.474Z"/><path class="b" d="M0,295.957c2.547-5.272,4.715-10.731,7.642-15.816,2.592-4.5,7.367-15.3,17.1-23.924,5.152-4.569,17.814-13.829,37.113-22.816,3.48-1.62,7.4-3.5,11.357-5.319l.179.126a111.715,111.715,0,0,0,127.5-.054l.127-.09c3.978,1.822,7.915,3.711,11.408,5.337,19.3,8.987,31.961,18.247,37.114,22.816,9.727,8.625,14.5,19.422,17.094,23.924,2.927,5.085,5.1,10.544,7.642,15.816"/><path class="c" d="M80.8,208.083c9.692-1.474,17.92-6.163,21.573-11.642l1.27-2.037A62.988,62.988,0,0,1,86.677,179.81a70.238,70.238,0,0,1-13.391-26.141c-1.643-.249-2.639-.4-2.639-.4a17.406,17.406,0,0,1-8.1-3.65,21.375,21.375,0,0,1-2.813-2.764,34.415,34.415,0,0,0-3.481,11.5,56.313,56.313,0,0,0-.389,7.67q.014.782.058,1.567c.3,5.593,1.61,11.291,1.887,16.862.28,6.071-1.3,12.047-7.09,14.013-.229.078-.275.819-.268,1.007a2.637,2.637,0,0,0,.464,1.3,8.969,8.969,0,0,0,2.969,2.6C60.346,207.335,70.281,209.682,80.8,208.083Z"/><path class="c" d="M217.761,65.436c-.261-1.523-.528-2.934-.787-4.2C209.792,26.017,174.321-1.937,137.124.105c-37.2-2.042-72.668,25.912-79.85,61.129-1.946,9.5-1.713,25.749.056,33.332l3.562,13.95a10.249,10.249,0,0,1,7.374,2.5C82.968,100.816,107.9,83.1,120.816,72c-1.062,6.591-4.836,17.8-.082,16.648,19.849-4.6,38.872-13.864,50.375-28.325,2.424,8.538,6.431,20.073,9.375,25.113,4.165,7.133,16.235,23.182,26.381,25.58a10.327,10.327,0,0,1,8.263-2.417,9.848,9.848,0,0,1,1.288.281C221.585,96.906,219.843,77.573,217.761,65.436Z"/><path class="d" d="M125.683,166.2a26.994,26.994,0,0,0,13,3c4.591-.03,9.3-.9,12.99-3.775,1.194-.931.976-2.984,0-3.96a2.871,2.871,0,0,0-3.96,0c.807-.629.036-.048-.17.085-.267.171-.543.33-.825.477-.164.086-1.08.493-.461.242q-.561.228-1.138.414a20.933,20.933,0,0,1-6.865.917,21.812,21.812,0,0,1-6.553-.883c-.417-.124-.823-.272-1.234-.414-.134-.047-.264-.106-.4-.155.682.253.077.034-.051-.026-.511-.239-1.013-.491-1.512-.754a2.861,2.861,0,0,0-3.831,1,2.831,2.831,0,0,0,1.005,3.831Z"/><path class="d" d="M137.566,135.173a62.645,62.645,0,0,1,1.473,6.739l-.1-.744a4.021,4.021,0,0,1,.025.93l.1-.744a2.218,2.218,0,0,1-.1.418l.282-.668a1.756,1.756,0,0,1-.147.269l.437-.567a1.411,1.411,0,0,1-.22.217l.567-.438a4.391,4.391,0,0,1-.534.283l.669-.283a3.872,3.872,0,0,1-.9.263l.745-.1a3.565,3.565,0,0,1-.845,0l.745.1c-.319-.044-.631-.121-.95-.164a3.091,3.091,0,0,0-2.158.282,2.8,2.8,0,0,0-1,3.831,2.683,2.683,0,0,0,1.673,1.287c.667.089,1.314.261,1.991.291a6.251,6.251,0,0,0,2.861-.67,3.986,3.986,0,0,0,2.251-2.644,6.888,6.888,0,0,0-.032-2.922c-.367-2.171-.869-4.323-1.427-6.453a2.8,2.8,0,0,0-5.4,1.489Z"/><path class="e" d="M101.3,116.261c-1.126,3.657-.392,12.071,6.537,12.787,9.158-.055,9.645-10.227,6.562-15.01C111.873,110.122,104.451,108.493,101.3,116.261Z"/><path class="e" d="M174.636,116.261c1.126,3.658.392,12.071-6.537,12.787-9.158-.055-9.646-10.227-6.563-15.01C164.06,110.122,171.482,108.494,174.636,116.261Z"/></svg>