<svg xmlns="http://www.w3.org/2000/svg" width="287.974" height="299.16" viewBox="0 0 287.974 299.16"><defs><style>.a{fill:#fce0cd;}.b{fill:#bdbdbd;}.c{fill:#fff;}.d{fill:#3f88c9;}.e{fill:#d9d9d9;}.f{fill:#efc0a0;}.g{fill:#645d5c;}</style></defs><path class="a" d="M213.3,115.233a10.352,10.352,0,0,1,8.285-2.424,9.777,9.777,0,0,1,7.031,4.674,13.813,13.813,0,0,1,1.447,5.561A41.428,41.428,0,0,1,225.835,145a26.331,26.331,0,0,1-6.809,8.936,17.449,17.449,0,0,1-8.118,3.659l-1.388.214c-.668,2.494-1.416,4.595-1.784,5.71-2.264,6.145-14.495,26.775-30.153,35.621.244,2.846.631,5.694,1.123,8.508.807,4.63.561,8.751,6.963,11.066.316.106,10.137,4.771,15.626,7.367,0,0,7.284,35.4-54.938,35.4s-58.736-36.712-58.736-36.712c6.016-2.753,12.891-5.963,13.136-6.051,6.419-2.315,6.156-6.436,6.98-11.066.553-3.189.96-6.088,1.2-9.284a63.933,63.933,0,0,1-16.157-14.153,70.455,70.455,0,0,1-13.427-26.209l-2.647-.407a17.449,17.449,0,0,1-8.118-3.659A26.328,26.328,0,0,1,61.783,145a41.428,41.428,0,0,1-4.225-21.96,13.83,13.83,0,0,1,1.448-5.561,9.775,9.775,0,0,1,7.03-4.674,10.354,10.354,0,0,1,8.286,2.424s-21-65.9,69.072-65.9S213.3,115.233,213.3,115.233Z"/><path class="b" d="M204.319,105.386c-5.668-5.1-2.452-24.832-6.669-32.339-5.032-8.96-11.257-11.734-21.022-13.9-3.461-.883-28.608-5.122-42.841-4.426-11.007.538-20.974,3.926-31.679,8.01-15.054,5.321-21,31.331-21.113,42.456-.231,2.1-5.781,10.142-6.567,10.147a10.336,10.336,0,0,0-8.392-2.521,9.84,9.84,0,0,0-1.323.292c-6.622-29.489-3.42-55.208,9.684-77.656,8.528-14.608,23.81-26.916,38.314-28.613,2.047-.24,9.669-1.866,11.382-2.672,17.2-8.1,45.562-4.177,59.545,10.064a27.315,27.315,0,0,0,6.534,4.569c.882.4,3.774,1.776,4.712,2.017,14,5.8,22.649,19.2,27.044,36.976,4.6,18.61,3.948,42.013-.351,55.024a10.346,10.346,0,0,0-8.281,2.423c-.473-.457-4.322-4.143-4.772-4.622a55.772,55.772,0,0,1-4.205-5.225"/><path class="c" d="M285.213,296.378c-6.318-12.988-15.488-31.6-27.511-42.755-2.179,14.031-4.028,26.466-6.4,42.751Z"/><path class="c" d="M2.76,296.378c5.724-11.525,14.974-31.2,26.875-42.487,1.336,12.334,4.368,28.746,6.313,42.483Z"/><path class="d" d="M251.3,296.374c2.373-16.285,4.222-28.72,6.4-42.751q-.64-.592-1.291-1.158a81.343,81.343,0,0,0-22.007-14.132c-9.42-3.849-33.242-13.014-42.461-16.975-8.476,1.975-42.809,9.086-44.821,9.436h-7.456c-2.421-.516-40.977-8.961-44.432-9.551-9.427,4.048-32.412,13.163-42.022,17.09a81.312,81.312,0,0,0-22.007,14.132q-.793.689-1.573,1.428c1.339,12.337,4.37,28.747,6.315,42.481Z"/><path class="e" d="M262.139,262.52c8.589,10.613,14.714,23.057,20.656,35.271a2.827,2.827,0,0,0,3.831,1,2.859,2.859,0,0,0,1-3.831c-6.174-12.69-12.612-25.383-21.532-36.4a2.819,2.819,0,0,0-3.96,0,2.866,2.866,0,0,0,0,3.96Z"/><path class="e" d="M5.178,297.791c5.9-11.888,11.7-24.075,19.88-34.608a2.893,2.893,0,0,0,0-3.96c-.966-.966-3.026-1.2-3.959,0C12.591,270.174,6.479,282.6.342,294.965a2.87,2.87,0,0,0,1,3.831,2.827,2.827,0,0,0,3.831-1Z"/><path class="c" d="M167.315,256.34c10.289-10.225,17.028-22.611,24.629-34.982a54.826,54.826,0,0,0-11.166-15.087A111.019,111.019,0,0,1,148.736,228.6c-.663.3-1.4.668-1.616,1.364a2.565,2.565,0,0,0,.37,1.81,103.315,103.315,0,0,0,6.627,8.557C158.626,245.851,164.287,252.612,167.315,256.34Z"/><path class="c" d="M119.676,255.958c-10.211-10.147-16.9-22.438-24.441-34.715a54.418,54.418,0,0,1,11.081-14.972,110.172,110.172,0,0,0,31.8,22.16c.658.3,1.392.664,1.6,1.354a2.552,2.552,0,0,1-.367,1.8,102.592,102.592,0,0,1-6.577,8.493C128.3,245.549,122.681,252.258,119.676,255.958Z"/><path class="f" d="M169.425,162.061c.041.051.081.1.121.155l-.438-.567a22.756,22.756,0,0,1,3.016,4.941l-.282-.669c.106.256.2.514.293.776a2.964,2.964,0,0,0,1.286,1.673,2.8,2.8,0,0,0,3.831-1,2.8,2.8,0,0,0,.283-2.158,24.41,24.41,0,0,0-4.15-7.107,2.794,2.794,0,0,0-1.98-.82,2.852,2.852,0,0,0-1.98.82,2.823,2.823,0,0,0-.82,1.98l.1.744a2.8,2.8,0,0,0,.72,1.236Z"/><path class="f" d="M131.5,170.559a27.054,27.054,0,0,0,13.035,3c4.6-.03,9.325-.9,13.019-3.783,1.194-.93.977-2.983,0-3.96a2.871,2.871,0,0,0-3.959,0c.806-.628.034-.046-.172.086q-.4.258-.827.479c-.164.086-1.081.494-.465.244q-.562.228-1.141.414a21.005,21.005,0,0,1-6.885.92,21.948,21.948,0,0,1-6.573-.885c-.418-.125-.826-.273-1.237-.416-.135-.047-.266-.106-.4-.155.68.253.074.033-.054-.027-.512-.24-1.015-.492-1.515-.756a2.861,2.861,0,0,0-3.831,1,2.83,2.83,0,0,0,1,3.831Z"/><path class="f" d="M143.414,139.455a62.686,62.686,0,0,1,1.477,6.757l-.1-.744a4.045,4.045,0,0,1,.025.933l.1-.744a2.247,2.247,0,0,1-.1.419l.282-.669a1.647,1.647,0,0,1-.148.27l.438-.567a1.469,1.469,0,0,1-.221.218l.567-.438a4.339,4.339,0,0,1-.535.283l.668-.282a3.874,3.874,0,0,1-.9.263l.745-.1a3.582,3.582,0,0,1-.847,0l.744.1c-.319-.045-.633-.122-.952-.165a3.088,3.088,0,0,0-2.157.282,2.8,2.8,0,0,0-1,3.831,2.683,2.683,0,0,0,1.673,1.287c.668.09,1.316.261,2,.291a6.263,6.263,0,0,0,2.864-.67,3.99,3.99,0,0,0,2.254-2.647,6.907,6.907,0,0,0-.032-2.926c-.368-2.177-.871-4.335-1.431-6.47a2.8,2.8,0,1,0-5.4,1.489Z"/><path class="g" d="M107.04,120.493c-1.128,3.668-.393,12.1,6.555,12.822,9.183-.055,9.672-10.255,6.58-15.05C117.645,114.338,110.2,112.705,107.04,120.493Z"/><path class="g" d="M180.577,120.494c1.129,3.667.393,12.1-6.554,12.821-9.183-.055-9.672-10.255-6.581-15.051C169.973,114.338,177.415,112.705,180.577,120.494Z"/></svg>