<svg xmlns="http://www.w3.org/2000/svg" width="478.701" height="236.106" viewBox="0 0 478.701 236.106"><defs><style>.a{fill:#211715;}</style></defs><path class="a" d="M88.728,105.469c0-2.563-.019-5.127,0-7.69a2,2,0,0,0-4,0c-.019,2.563,0,5.127,0,7.69a2,2,0,0,0,4,0Z"/><path class="a" d="M50.478,97.459c.01,2.337,0,4.673,0,7.01a2,2,0,0,0,4,0c0-2.337.01-4.673,0-7.01a2,2,0,0,0-4,0Z"/><path class="a" d="M71.41,29.814c-2.327,1.709-5.141,2.73-7.767,3.877a33.949,33.949,0,0,0-8.334,4.644c-2,1.664-2.668,4.1-4.5,5.762-2.112,1.914-4.625,3.331-6.8,5.17-2.3,1.946-4.153,4.652-3.2,7.78.748,2.456,4.61,1.409,3.857-1.063a2.86,2.86,0,0,1-.119-.43c.006.043.02.242-.005.008-.01-.1.019-.694-.027-.378a2.09,2.09,0,0,1,.453-1.135,10.9,10.9,0,0,1,2.275-2.288c2.086-1.672,4.409-3.035,6.4-4.835a10.933,10.933,0,0,0,2.373-2.887A7.9,7.9,0,0,1,57.744,41.5c2.049-1.867,4.829-3,7.334-4.1,2.81-1.24,5.855-2.3,8.35-4.133a2.059,2.059,0,0,0,.718-2.736,2.015,2.015,0,0,0-2.736-.718Z"/><path class="a" d="M87.071,34.516c4.766,1.041,5.3,5.893,6.674,9.812.83,2.376,1.726,4.729,2.513,7.12a24.157,24.157,0,0,1,1.5,6.313c.109,2.564,4.109,2.578,4,0-.225-5.307-2.789-10.429-4.462-15.386-.824-2.444-1.3-5.03-2.738-7.222a10.2,10.2,0,0,0-6.423-4.494c-2.509-.547-3.581,3.308-1.063,3.857Z"/><path class="a" d="M96.154,19.212a1.986,1.986,0,0,1,2.563-.906c.991.375,1.732,1.663,2.323,2.5a29.855,29.855,0,0,0,2.6,3.477c.779.815,1.657,1.524,2.4,2.374a16.664,16.664,0,0,1,3.239,7.133,13.76,13.76,0,0,1,.138,3.539,14.08,14.08,0,0,0,.6,4.635,16.45,16.45,0,0,0,1.4,3.047,3.331,3.331,0,0,1,.566,2.024c-.151,1.916-1.256,3.835-1.968,5.585a2.013,2.013,0,0,0,1.4,2.461,2.051,2.051,0,0,0,2.461-1.4,24.866,24.866,0,0,0,2.031-5.9c.3-2.2-.525-3.737-1.5-5.623-1.618-3.129-.508-6.574-1.383-9.867a20.183,20.183,0,0,0-4.4-8.739c-.838-.91-1.853-1.665-2.622-2.635-1.094-1.378-1.98-2.908-3.119-4.256a6.411,6.411,0,0,0-4.943-2.487A5.7,5.7,0,0,0,92.7,17.193c-1.1,2.312,2.346,4.344,3.454,2.019Z"/><path class="a" d="M90.712,12.164c-.827-3.651-5.06-6.107-8.107-7.691A40.881,40.881,0,0,0,69.01.182a18.061,18.061,0,0,0-6.824.31,15.921,15.921,0,0,0-5.924,3.247,24.65,24.65,0,0,1-4.79,3.518c-2.016.932-4.156,0-6.253.536a9.346,9.346,0,0,0-5.34,4.472c-1.313,2.163-1.915,4.778-3.56,6.737s1.17,4.8,2.828,2.828a22.947,22.947,0,0,0,3.128-5.476c.718-1.571,1.542-3.3,3.043-4.271,1.656-1.069,3.9-.163,5.767-.523A11.743,11.743,0,0,0,55.853,9.2c1.5-1.139,2.864-2.463,4.435-3.5A10.413,10.413,0,0,1,65.913,4a30.781,30.781,0,0,1,12.1,2.721,30,30,0,0,1,6.08,3.337c1.117.81,2.492,1.98,2.763,3.174.568,2.509,4.425,1.447,3.857-1.064Z"/><path class="a" d="M46.71,14.536A57.065,57.065,0,0,0,30.38,28.067c-2.268,2.755-4.768,6.045-4.2,9.836.237,1.57,1.479,2.859,1.611,4.392a9.912,9.912,0,0,1-.509,4.091,9.363,9.363,0,0,0-.6,5.376A12.8,12.8,0,0,0,28.7,55.836c1.393,2.154,4.857.151,3.454-2.019a8.062,8.062,0,0,1-1.665-3.5,6.774,6.774,0,0,1,.65-2.866,10.888,10.888,0,0,0,.509-2.393,9.786,9.786,0,0,0-.554-5.511,8.454,8.454,0,0,1-1-2.308,4.864,4.864,0,0,1,.633-2.748c1.793-3.561,5.008-6.664,7.926-9.318a53.5,53.5,0,0,1,10.07-7.181c2.251-1.25.236-4.706-2.019-3.454Z"/><path class="a" d="M61.919,21.181c.751.012,1.5.052,2.248.129.173.017.345.037.517.058.378.047-.464-.081.193.029.346.057.691.113,1.034.182a21.911,21.911,0,0,1,2.239.569q.5.155.988.338c.195.072.39.147.581.227-.241-.1.106.051.186.088a15.477,15.477,0,0,1,1.885,1.027c.282.182.562.371.828.576-.256-.2.222.191.221.19q.189.163.372.334.4.373.766.785c.089.1.174.2.259.3.386.463-.158-.274.172.233.184.283.373.56.539.855.1.178.2.36.286.543.026.053.247.569.133.284a2.062,2.062,0,0,0,2.46,1.4,2.014,2.014,0,0,0,1.4-2.46c-2.784-6.9-10.348-9.575-17.3-9.689-2.575-.042-2.576,3.958,0,4Z"/><path class="a" d="M79.648,19.7c.183.11.358.228.533.35.22.152-.046-.012-.1-.083a2.366,2.366,0,0,0,.239.2c.3.263.529.584.814.854-.337-.319-.145-.19-.052-.06q.09.126.174.255c.112.172.217.35.314.531.088.163.165.331.245.5.108.223-.153-.418-.035-.078.034.1.072.194.105.292a8.023,8.023,0,0,1,.3,1.143c.015.081.022.166.041.246-.125-.518-.033-.249-.018-.1q.03.312.037.627c0,.189,0,.378-.008.567a3.672,3.672,0,0,0-.054.63c-.024-.159.064-.425,0-.092-.019.105-.04.209-.063.313-.046.209-.1.415-.163.62a2,2,0,1,0,3.857,1.063,9.885,9.885,0,0,0-4.142-11.236A2,2,0,1,0,79.648,19.7Z"/><path class="a" d="M52.788,25.6a13.717,13.717,0,0,0-6.671,1.892,38.22,38.22,0,0,0-4.862,4.425c-1.353,1.3-.216,3.257,1.414,3.414-.312-.03-.3-.108-.433-.276-.05-.065.086-.292.052-.314a5.946,5.946,0,0,1-.3.513c-.164.272-.319.547-.467.828-.462.881-.891,1.781-1.33,2.674-.477.973-.956,1.946-1.468,2.9-.226.422-.457.841-.709,1.248a3.049,3.049,0,0,0-.293.448c.01-.027.256-.277-.031.02-1.792,1.85,1.033,4.681,2.828,2.828a12.149,12.149,0,0,0,1.838-2.863c.66-1.257,1.274-2.538,1.9-3.812.484-.982,1.078-1.92,1.547-2.9a3.671,3.671,0,0,0-3.131-5.293l1.414,3.414q1.562-1.5,3.123-2.993c.165-.158.33-.319.5-.471.085-.075.178-.145.261-.223.262-.249-.371.235.053-.034A9.44,9.44,0,0,1,52.788,29.6a2.049,2.049,0,0,0,2-2,2.017,2.017,0,0,0-2-2Z"/><path class="a" d="M104.482,59.758a2.8,2.8,0,0,1,4.164.737,7.479,7.479,0,0,1,.441,3.21,17.041,17.041,0,0,1-.393,3.679,16.043,16.043,0,0,1-2.782,6.346,4.151,4.151,0,0,1-2.029,1.665,26.9,26.9,0,0,1-3.076.442,2.012,2.012,0,0,0-1.4,2.46,2.053,2.053,0,0,0,2.46,1.4,14.3,14.3,0,0,0,4.231-.867,9.671,9.671,0,0,0,3.46-3.35,20.807,20.807,0,0,0,3.376-9.381c.375-3.054.381-6.988-2.1-9.206a6.967,6.967,0,0,0-9.18.04,2.015,2.015,0,0,0,0,2.828,2.043,2.043,0,0,0,2.828,0Z"/><path class="a" d="M99.886,73.564A18.71,18.71,0,0,1,98.8,78.611c-.135.413-.272.825-.431,1.229.215-.545-.055.108-.1.209-.076.159-.151.318-.23.475a43.921,43.921,0,0,1-3.664,5.993c-3.165,4.423-7.468,9.2-12.973,10.5-2.5.588-1.445,4.446,1.063,3.857,6.463-1.518,11.44-6.918,15.188-12.09,3.245-4.479,6.008-9.561,6.237-15.217.1-2.574-3.9-2.569-4,0Z"/><path class="a" d="M38.588,55.847a6.967,6.967,0,0,0-9.18-.04c-2.624,2.352-2.473,6.54-2.032,9.738.8,5.788,4.942,14.867,12.205,13.365,2.52-.521,1.453-4.377-1.063-3.857-1.769.366-3.457-1.377-4.383-2.678a17.415,17.415,0,0,1-2.98-9.937,7.166,7.166,0,0,1,.441-3.025,2.8,2.8,0,0,1,4.163-.737,2.057,2.057,0,0,0,2.829,0,2.017,2.017,0,0,0,0-2.829Z"/><path class="a" d="M36.052,69.561c.825,6.733,2.571,13.392,6.457,19.055,4.457,6.5,11.341,12.3,19.329,13.509a2.064,2.064,0,0,0,2.46-1.4,2.014,2.014,0,0,0-1.4-2.46c-7.112-1.081-13.267-6.153-17.174-12.02-3.312-4.973-4.979-11-5.675-16.687a2.064,2.064,0,0,0-2-2,2.011,2.011,0,0,0-2,2Z"/><path class="a" d="M60.851,113.05c-.961,1.707-2.093,3.323-3.2,4.934q-.867,1.257-1.755,2.5-.384.537-.774,1.069a4.646,4.646,0,0,0-.307.413c-.168.3.058-.12.041-.113l1.01-.273.043,0,.882.515a13.79,13.79,0,0,1-1.819-2.456q-1.02-1.5-1.984-3.035c-1.113-1.763-2.194-3.549-3.207-5.371-.292-.523-.543-1.073-.84-1.592-.2-.344.078.233.069.171-.056-.412.032.9-.01.77-.05-.156.191-.362,0-.1a5.308,5.308,0,0,0,.274-.568c.45-.883.974-1.732,1.507-2.568a11.569,11.569,0,0,1,1.491-2.209l-1.946.514c-.29-.044-.332-.268,0,0,.14.115.282.23.424.344.451.36.91.71,1.369,1.06.976.745,1.963,1.474,2.95,2.2,1.962,1.45,4.282,3.138,5.993,4.476a10.291,10.291,0,0,1,1.919,1.605,9.947,9.947,0,0,1,.53,1.2c.345.728.739,1.445,1.041,2.191,1.109,2.743,2.374,5.411,3.643,8.084a2.018,2.018,0,0,0,2.737.718,2.045,2.045,0,0,0,.717-2.737c-.68-1.432-1.359-2.866-2.024-4.3-.275-.593-.548-1.186-.812-1.784-.05-.114-.294-.724-.142-.322-.063-.168-.119-.339-.182-.506-.829-2.2-1.735-4.631-3.578-6.153-3.54-2.923-7.362-5.5-11-8.294-.187-.144.021.016.05.038l-.26-.2c-.133-.106-.267-.211-.4-.319a8.2,8.2,0,0,0-1.135-.9c-1.949-1.078-3.083.667-4.028,2.056-.742,1.092-1.455,2.212-2.088,3.371-.533.976-1.206,2.144-.927,3.3.4,1.653,1.665,3.327,2.516,4.761,1.512,2.55,3.094,5.069,4.821,7.48,1.1,1.54,2.519,3.446,4.651,2.192.991-.583,1.728-1.985,2.384-2.9a81.885,81.885,0,0,0,4.813-7.23c1.265-2.246-2.189-4.264-3.454-2.019Z"/><path class="a" d="M71.645,126.819c1.428-2.971,2.828-5.923,4.105-8.957.428-1.019.621-2.078,1.313-2.673.145-.125.3-.243.447-.362-.376.3.236-.175.3-.222.4-.3.806-.589,1.212-.878,3.643-2.589,7.712-5.423,11.186-7.78l-1.01.273.31-.04-1.414-.586a11.775,11.775,0,0,1,1.505,2c.6.854,1.191,1.721,1.727,2.618.205.343.363.733.582,1.064.111.167.018-.257-.014,0,.183-1.505.021-1.032-.015-.732.015-.121.241-.483.067-.168-.066.12-.121.248-.183.37-.153.3-.317.6-.482.9-1.029,1.859-2.147,3.671-3.3,5.456q-.956,1.482-1.96,2.931a12.585,12.585,0,0,1-2.01,2.611l.882-.514,0-.018,1.01.273c.223.1.3.44.048.134-.1-.119-.177-.254-.263-.381-.234-.344-.46-.692-.685-1.042-.6-.932-1.19-1.874-1.771-2.819-1.12-1.821-2.244-3.651-3.233-5.548-1.19-2.283-4.644-.263-3.454,2.019,1.172,2.247,2.519,4.41,3.859,6.559,1.109,1.78,2.677,5.39,5.291,4.756,1.52-.369,2.457-2.155,3.307-3.345.906-1.268,1.77-2.566,2.61-3.879a62.152,62.152,0,0,0,3.7-6.271,3.2,3.2,0,0,0,.4-2.472,11.912,11.912,0,0,0-1.672-3.07q-1.044-1.587-2.2-3.1c-.471-.614-.788-1.238-1.564-1.579a2.769,2.769,0,0,0-2.848.7c-.2.158-.169.131.034-.022-.139.1-.279.208-.419.31-.378.277-.762.546-1.146.815-.926.647-1.86,1.283-2.794,1.919-2.041,1.389-4.09,2.766-6.1,4.2-.887.629-1.775,1.266-2.614,1.958a7.386,7.386,0,0,0-1.87,3.091c-1.367,3.161-2.724,6.138-4.329,9.477-1.11,2.31,2.338,4.341,3.454,2.019Z"/><path class="a" d="M26.137,147.356c.342,9.837.136,19.688.45,29.527.152,4.776.123,9.728,1.469,14.347a89.461,89.461,0,0,0,6.6,16.047c3.071,5.907,6.9,11.35,10.5,16.931,1.392,2.154,4.856.151,3.453-2.019-3.16-4.891-6.508-9.668-9.337-14.765a91.456,91.456,0,0,1-6.76-15.334A28.131,28.131,0,0,1,31,185.243c-.176-2.321-.285-4.647-.37-6.973-.2-5.417-.257-10.838-.3-16.258-.043-4.884-.023-9.774-.193-14.656-.089-2.567-4.089-2.579-4,0Z"/><path class="a" d="M23.015,233.1c-2.349-3.456-4.943-6.8-7.017-10.433-1.753-3.071-3.49-6.151-5.136-9.28A57.5,57.5,0,0,1,6.3,203.012a57.9,57.9,0,0,1-2.259-14.573A287.331,287.331,0,0,1,5.45,153.487c.461-5.1,1.294-10.294,3.589-14.927a29.167,29.167,0,0,1,8.9-10.547,95.028,95.028,0,0,1,13.908-7.991c5.1-2.553,10.26-4.967,15.351-7.53,2.3-1.159.276-4.61-2.019-3.454-9.114,4.59-18.733,8.528-27.282,14.15a36.051,36.051,0,0,0-10.252,9.82,36.6,36.6,0,0,0-5.581,15.264C1.241,153.794.949,159.414.617,164.984Q.059,174.32,0,183.678A75.708,75.708,0,0,0,1.386,199.93a50.93,50.93,0,0,0,4.149,11.786c1.964,4.03,4.153,7.948,6.37,11.843,2.289,4.022,5.058,7.731,7.656,11.555,1.439,2.117,4.906.118,3.454-2.019Z"/><path class="a" d="M97.03,29.516c-.588-.076-.157-.009-.032.027.072.021.431.105.113.028-.3-.073.015.018.1.065a2.7,2.7,0,0,0,.316.205c-.156-.056-.3-.248-.061-.032.079.073.156.147.23.225a2.222,2.222,0,0,0,.259.293c-.143-.089-.219-.3-.036-.035a6.506,6.506,0,0,1,.382.624c.055.1.319.486.289.6-.107-.256-.133-.315-.079-.175.02.052.04.1.059.155l.1.247c.079.2.159.4.242.592a30.407,30.407,0,0,0,2.664,5.294,2,2,0,0,0,3.454-2.019,21.721,21.721,0,0,1-1.43-2.555q-.35-.711-.674-1.434c-.106-.237-.207-.476-.311-.713.252.573-.045-.119-.108-.279a10.645,10.645,0,0,0-1.8-3.227,5.6,5.6,0,0,0-3.665-1.882,1.985,1.985,0,0,0-1.414.586,2,2,0,0,0,0,2.828,2.349,2.349,0,0,0,1.414.586Z"/><path class="a" d="M94,113.1c1.6.647,3.211,1.248,4.819,1.865.887.341,1.772.684,2.654,1.036q.7.278,1.393.565l.321.134c.285.117-.281-.122,0,0l.7.3a2.054,2.054,0,0,0,2.736-.718,2.022,2.022,0,0,0-.717-2.736c-3.566-1.557-7.235-2.843-10.839-4.3a2.005,2.005,0,0,0-2.46,1.4A2.06,2.06,0,0,0,94,113.1Z"/><path class="a" d="M63.36,83.472c1.952,1.91,5.012,2.489,7.636,2.487s5.685-.577,7.638-2.487a2,2,0,0,0-2.829-2.829c-.077.076-.436.368-.131.134s-.162.1-.264.165c-.161.1-.327.191-.5.276-.114.057-.23.108-.346.162.208-.1.291-.112.028-.02a11.272,11.272,0,0,1-1.654.453c-.027,0-.621.1-.223.045-.169.022-.339.037-.508.051q-.606.051-1.215.05c-.371,0-.742-.013-1.112-.041-.2-.016-.409-.034-.613-.06.286.036,0-.005-.132-.029a10.1,10.1,0,0,1-1.677-.444c-.106-.038-.531-.245-.039-.005-.1-.047-.194-.088-.29-.135-.188-.093-.372-.193-.551-.3a2.789,2.789,0,0,0-.4-.27c.362.135.332.284.154.111-.049-.048-.1-.092-.149-.14a2,2,0,0,0-2.829,2.829Z"/><path class="a" d="M69.952,68.925a29.508,29.508,0,0,1,.7,3.2l-.071-.531a1.921,1.921,0,0,1,.012.442l.071-.532a1.05,1.05,0,0,1-.048.2l.2-.478a.755.755,0,0,1-.07.128l.313-.405a.689.689,0,0,1-.105.1l.405-.313a1.983,1.983,0,0,1-.254.134l.478-.2a1.825,1.825,0,0,1-.428.124l.532-.071a1.689,1.689,0,0,1-.4,0l.532.072c-.151-.021-.3-.058-.451-.079a1.515,1.515,0,0,0-.8-.035,1.486,1.486,0,0,0-.743.237,2,2,0,0,0-.718,2.736,1.912,1.912,0,0,0,1.195.919c.377.051.742.146,1.125.163a3.658,3.658,0,0,0,1.7-.41A2.525,2.525,0,0,0,74.5,72.674a4.014,4.014,0,0,0-.015-1.745c-.175-1.032-.413-2.055-.679-3.067a2,2,0,0,0-2.46-1.4,2.038,2.038,0,0,0-1.4,2.46Z"/><path class="a" d="M53.354,59.756c-.535,1.739-.187,5.739,3.108,6.079,4.354-.026,4.586-4.862,3.12-7.136C58.382,56.837,54.853,56.063,53.354,59.756Z"/><path class="a" d="M88.221,59.756c.536,1.739.187,5.739-3.107,6.079-4.355-.026-4.586-4.862-3.121-7.136C83.193,56.837,86.722,56.063,88.221,59.756Z"/><path class="a" d="M71.858,137.236q-.018-5.758-.026-11.519a2,2,0,1,0-4,0q0,5.76.026,11.519a2,2,0,0,0,4,0Z"/><path class="a" d="M378.878,112.05a10.409,10.409,0,0,1-.093,1.071c-.039.382-.086.762-.136,1.142l.071-.531q-.044.318-.09.636a1.506,1.506,0,0,0-.036.8,1.486,1.486,0,0,0,.237.743,2.238,2.238,0,0,0,1.195.919,2.025,2.025,0,0,0,1.542-.2l.4-.313a2,2,0,0,0,.515-.883c.1-.653.186-1.307.26-1.963q.043-.375.078-.751c.02-.22.053-.446.053-.667a2.06,2.06,0,0,0-.586-1.414,2.216,2.216,0,0,0-1.414-.586,2.018,2.018,0,0,0-1.414.586,2.078,2.078,0,0,0-.586,1.414Z"/><path class="a" d="M415.907,115.3q-.1-.629-.19-1.26l.071.531q-.168-1.26-.26-2.529a2.124,2.124,0,0,0-.586-1.414,2,2,0,0,0-2.828,0,1.975,1.975,0,0,0-.586,1.414c.1,1.447.284,2.89.522,4.321a2.008,2.008,0,0,0,.919,1.2,2.038,2.038,0,0,0,1.541.2,2.017,2.017,0,0,0,1.195-.919l.2-.478a2.018,2.018,0,0,0,0-1.063Z"/><path class="a" d="M430.044,67.565a34.569,34.569,0,0,0-2.632-12.312c-1.787-4.381-4.518-8.645-9.147-10.35a2.018,2.018,0,0,0-2.46,1.4,2.042,2.042,0,0,0,1.4,2.46,9.431,9.431,0,0,1,3.846,3.089,21.262,21.262,0,0,1,2.785,5.171,36.355,36.355,0,0,1,1.671,5.855q.141.708.254,1.421c.091.572.066.362.137,1,.083.755.138,1.512.149,2.271.038,2.572,4.038,2.579,4,0Z"/><path class="a" d="M412.4,44.245a15.143,15.143,0,0,0-2.562-5.777,10,10,0,0,0-2.075-1.771,13.337,13.337,0,0,0-2.676-1.468,2.009,2.009,0,0,0-1.541.2,2,2,0,0,0-.717,2.736,2.321,2.321,0,0,0,1.2.919c-.711-.285-.107-.04.068.05s.359.194.535.3c.366.214.723.445,1.072.687.175.122.347.248.519.375.2.145-.38-.306-.132-.1.07.058.141.114.21.173.092.078.758.632.713.729.011-.024-.349-.473-.1-.125.051.073.1.147.15.221q.138.213.259.434c.086.155.166.312.242.472.043.091.083.183.124.274.157.344-.168-.429-.04-.093.351.928.637,1.873.9,2.829a2,2,0,1,0,3.857-1.063Z"/><path class="a" d="M404.419,43.511a19.481,19.481,0,0,0-3.8-3.961,20.825,20.825,0,0,0-3.886-2.275,20.314,20.314,0,0,0-4.073-1.306,16.87,16.87,0,0,0-4.518-.551,2.044,2.044,0,0,0-2,2,2.019,2.019,0,0,0,2,2,10.1,10.1,0,0,1,1.738.08c.218.026-.24-.043.134.022.2.034.393.066.589.1.333.061.664.13.993.2.663.149,1.322.321,1.972.519.269.081.536.167.8.261.118.041.233.088.351.128.444.153-.374-.2-.006-.005a28.239,28.239,0,0,1,3.506,1.991c.094.067.342.261.125.089.151.12.3.244.444.37q.376.329.728.683a16.842,16.842,0,0,1,1.444,1.668,2.064,2.064,0,0,0,2.737.717,2.014,2.014,0,0,0,.717-2.736Z"/><path class="a" d="M382.066,43.6a16.523,16.523,0,0,0-8.691,2.521,13.238,13.238,0,0,0-5.23,6.918,39.938,39.938,0,0,0-.928,8.085,26.52,26.52,0,0,1-.42,3.616,8.47,8.47,0,0,1-.434,1.524,3.036,3.036,0,0,1-.478.682c-1.862,1.785.969,4.611,2.828,2.828,1.735-1.664,2.074-4.283,2.324-6.549.272-2.471.249-5.03.615-7.457a8.889,8.889,0,0,1,.723-2.642,11.594,11.594,0,0,1,2.532-3.172,11.781,11.781,0,0,1,7.159-2.354c2.561-.131,2.577-4.132,0-4Z"/><path class="a" d="M431.307,73.905a2.8,2.8,0,0,1,4.1.658,6.351,6.351,0,0,1,.477,2.86,16.7,16.7,0,0,1-.244,3.357,17.565,17.565,0,0,1-2.352,6.213c-.814,1.293-2.194,3.2-3.913,2.738-2.489-.664-3.552,3.193-1.063,3.857,3.465.924,6.173-1.328,8.061-4.021a20.672,20.672,0,0,0,3.36-9.309c.375-3.066.4-6.99-2.093-9.221a6.947,6.947,0,0,0-9.157.039,2.016,2.016,0,0,0,0,2.829,2.044,2.044,0,0,0,2.828,0Z"/><path class="a" d="M426.715,88.737a18.609,18.609,0,0,1-1.082,5.027c-.135.411-.271.822-.43,1.225.216-.547-.053.1-.1.206-.077.158-.151.317-.229.474a43.808,43.808,0,0,1-3.652,5.971c-3.152,4.407-7.44,9.169-12.924,10.457-2.5.589-1.444,4.447,1.064,3.858,6.441-1.513,11.4-6.9,15.138-12.052,3.235-4.464,5.988-9.529,6.217-15.166.1-2.575-3.9-2.57-4,0Z"/><path class="a" d="M365.024,71.076a6.949,6.949,0,0,0-9.157-.039c-2.549,2.283-2.466,6.323-2.063,9.444a20.382,20.382,0,0,0,3.525,9.357c1.949,2.67,4.866,4.977,8.344,4.21,2.513-.554,1.45-4.411-1.063-3.857-1.678.37-3.4-1.7-4.21-2.918a17.3,17.3,0,0,1-2.5-6.318,16.578,16.578,0,0,1-.281-3.306,6.686,6.686,0,0,1,.481-3.086,2.8,2.8,0,0,1,4.1-.658,2.055,2.055,0,0,0,2.828,0,2.016,2.016,0,0,0,0-2.829Z"/><path class="a" d="M362.409,85.34a40.444,40.444,0,0,0,7.42,18.845c4.584,6.232,11.1,11.823,18.976,13.019a2.065,2.065,0,0,0,2.46-1.4,2.014,2.014,0,0,0-1.4-2.46c-6.985-1.061-12.826-5.929-16.846-11.539a36.959,36.959,0,0,1-4.771-9.07,37.9,37.9,0,0,1-1.842-7.4,2.064,2.064,0,0,0-2-2,2.011,2.011,0,0,0-2,2Z"/><path class="a" d="M417.733,24.185c-4.382-4.334-10.5-6.448-16.528-7.093a30.362,30.362,0,0,0-9.114.392,21.448,21.448,0,0,0-4.029,1.214c-.342.142-.678.316-1.024.445.4-.149,0-.022-.172.025-.613.166-1.226.327-1.845.468s-1.218.266-1.83.382c-.224.042-.448.081-.672.119-.268.046.1-.008.125-.012-.349.053-.7.088-1.049.142a19.2,19.2,0,0,0-4.557,1.354,29.057,29.057,0,0,0-8.723,5.893A40.055,40.055,0,0,0,357.9,45.985c-2.23,8.269-1.963,16.916-.27,25.255.511,2.52,4.368,1.453,3.857-1.064-2.621-12.907-1.17-27.861,7.96-38.075a27.812,27.812,0,0,1,7.327-5.934,24.691,24.691,0,0,1,7.6-2.316c1.035-.2,2.069-.421,3.087-.7,1.064-.288,2.04-.79,3.086-1.135a23.708,23.708,0,0,1,7.892-1.1c5.856.105,12.208,1.889,16.46,6.095,1.832,1.812,4.662-1.015,2.828-2.829Z"/><path class="a" d="M421.127,30.623c6.627,2.787,9.957,9.767,11.539,16.372A52.757,52.757,0,0,1,434,59.738a40.543,40.543,0,0,1-1.4,11.041c-.724,2.476,3.135,3.533,3.857,1.064,1.912-6.536,1.913-13.794,1.036-20.5-.874-6.667-2.857-13.413-7.2-18.678a20.79,20.79,0,0,0-8.1-5.9,2.011,2.011,0,0,0-2.46,1.4,2.053,2.053,0,0,0,1.4,2.46Z"/><path class="a" d="M407.905,94.16a5.842,5.842,0,0,1,1,1l-.313-.405a5.918,5.918,0,0,1,.76,1.305l-.2-.478a5.951,5.951,0,0,1,.28.863,2,2,0,0,0,2.461,1.4,2.024,2.024,0,0,0,1.2-.919,2.138,2.138,0,0,0,.2-1.541,8.546,8.546,0,0,0-.493-1.364,5.814,5.814,0,0,0-.459-.869,7.317,7.317,0,0,0-1.6-1.815,2.222,2.222,0,0,0-1.414-.586,2.037,2.037,0,0,0-1.415.586,2.013,2.013,0,0,0-.585,1.414l.071.532a2,2,0,0,0,.514.882Z"/><path class="a" d="M389.969,98.81c1.958,1.917,5.029,2.5,7.661,2.5s5.7-.578,7.663-2.5a2,2,0,1,0-2.828-2.828c-.078.076-.438.369-.133.135s-.163.1-.265.166c-.162.1-.329.192-.5.277-.114.057-.231.108-.347.163.209-.1.287-.11.026-.019a11.33,11.33,0,0,1-1.661.454c-.026,0-.621.1-.226.046-.169.022-.34.038-.51.052-.406.034-.813.049-1.22.05-.372,0-.745-.013-1.116-.042-.2-.015-.411-.034-.616-.06.285.036,0-.006-.135-.029a10.178,10.178,0,0,1-1.683-.446c-.106-.038-.532-.246-.041-.006-.1-.047-.195-.088-.291-.136-.189-.093-.374-.193-.554-.3a2.649,2.649,0,0,0-.4-.27c.357.129.334.284.153.109-.049-.047-.1-.092-.149-.14a2,2,0,0,0-2.829,2.828Z"/><path class="a" d="M396.59,84.208a30.007,30.007,0,0,1,.7,3.218l-.071-.532a2,2,0,0,1,.012.444l.071-.532a1.062,1.062,0,0,1-.049.2l.2-.478a.81.81,0,0,1-.071.129l.313-.405a.689.689,0,0,1-.1.1l.4-.313a2.217,2.217,0,0,1-.255.135l.478-.2a1.857,1.857,0,0,1-.43.125l.532-.071a1.7,1.7,0,0,1-.4,0l.531.072c-.152-.022-.3-.059-.453-.079a1.523,1.523,0,0,0-.8-.036,1.48,1.48,0,0,0-.744.238,2,2,0,0,0-.717,2.736,1.913,1.913,0,0,0,1.195.919c.377.051.743.146,1.127.163a3.673,3.673,0,0,0,1.7-.41,2.531,2.531,0,0,0,1.38-1.659,4.027,4.027,0,0,0-.016-1.748c-.175-1.036-.415-2.063-.681-3.08a2,2,0,0,0-2.46-1.4,2.037,2.037,0,0,0-1.4,2.46Z"/><path class="a" d="M379.916,75c-.537,1.746-.187,5.762,3.121,6.1,4.372-.026,4.6-4.882,3.133-7.165C384.965,72.074,381.422,71.3,379.916,75Z"/><path class="a" d="M414.925,75c.538,1.746.188,5.762-3.12,6.1-4.372-.026-4.605-4.882-3.133-7.165C409.877,72.074,413.42,71.3,414.925,75Z"/><path class="a" d="M445.1,201.793c2.29.407,4.559.918,6.82,1.46a2,2,0,1,0,1.064-3.857c-2.262-.542-4.53-1.053-6.82-1.46a2.156,2.156,0,0,0-1.541.2,2,2,0,0,0,.477,3.655Z"/><path class="a" d="M335.937,147.371c.063-.182.131-.363.2-.544.1-.252-.03.087-.068.152.049-.084.08-.182.121-.271.15-.329.315-.653.491-.969.192-.345.4-.681.615-1.009q.159-.238.325-.471c.062-.087.127-.172.189-.259.212-.295-.193.239-.037.045a20.42,20.42,0,0,1,1.642-1.824q.441-.43.906-.832c.174-.151.351-.3.53-.443a1.84,1.84,0,0,0,.218-.173q-.3.234-.129.1c.056-.043.111-.085.168-.126a2.19,2.19,0,0,0,.919-1.2,2.043,2.043,0,0,0-.2-1.541,2.02,2.02,0,0,0-2.736-.717,19.383,19.383,0,0,0-7.009,9.015,2.012,2.012,0,0,0,1.4,2.46,2.049,2.049,0,0,0,2.461-1.4Z"/><path class="a" d="M456.4,234.11A45.424,45.424,0,0,0,473.858,222.6c4.981-5.415,5.368-13.147,4.447-20.055-1.009-7.576-3.006-15.12-4.876-22.523-1.884-7.457-4-14.853-6.175-22.23-2.258-7.662-4.453-16.037-11.606-20.653-2.169-1.4-4.177,2.062-2.018,3.454,5.556,3.586,7.42,10.329,9.182,16.281,2.064,6.976,4.095,13.964,5.935,21q2.862,10.947,5.09,22.042c1.183,5.855,1.731,12.422-1.352,17.814-1.632,2.855-4.619,5.187-7.224,7.138a39.826,39.826,0,0,1-9.92,5.384,2.055,2.055,0,0,0-1.4,2.46,2.017,2.017,0,0,0,2.46,1.4Z"/><path class="a" d="M347.548,222.59q.015,5.754-.01,11.51a2,2,0,1,0,4,0q.03-5.755.01-11.51a2,2,0,0,0-4,0Z"/><path class="a" d="M344.517,153.878c-.471-2.363-.91-4.732-1.282-7.113s-.478-4.785-.867-7.142c-.1-.613-.186-.343.384-.7.526-.33,1.038-.682,1.571-1,.9-.546,1.825-1.049,2.753-1.547q2.844-1.529,5.731-2.971a194.077,194.077,0,0,1,23.353-9.552c2.419-.834,1.379-4.7-1.064-3.857a209.117,209.117,0,0,0-20.491,8.112c-3.164,1.48-6.281,3.062-9.359,4.713a44.351,44.351,0,0,0-5.087,3.052c-1.82,1.315-1.884,2.877-1.681,4.962.462,4.74,1.251,9.442,2.182,14.111.5,2.523,4.359,1.455,3.857-1.063Z"/><path class="a" d="M410.057,139.106a64.333,64.333,0,0,0,9.05-12.272c.654-1.077,1.3-2.159,1.959-3.235a2.986,2.986,0,0,0,.655-1.959,5.529,5.529,0,0,0-.865-1.893,26.252,26.252,0,0,0-4.724-6.063,2.034,2.034,0,0,0-2.828,0,47.35,47.35,0,0,1-7.809,6.327c-1.365.885-2.772,1.707-4.218,2.453-1.32.682-3.229,1.172-3.676,2.8a3.794,3.794,0,0,0,1.009,3.277c.931,1.234,1.912,2.43,2.891,3.626,1.9,2.321,3.834,4.617,5.728,6.944a2.013,2.013,0,0,0,2.828,0,2.047,2.047,0,0,0,0-2.829c-1.58-1.942-3.19-3.861-4.782-5.794-.9-1.088-1.793-2.177-2.671-3.281-.257-.322-.515-.643-.758-.976a3.733,3.733,0,0,0-.313-.444c-.177-.171.02-.286,0,.008l-.273,1.01q-.441.365.012.1l.337-.155c.338-.16.677-.32,1.013-.486q1.029-.51,2.033-1.071,2.069-1.153,4.023-2.5a52.218,52.218,0,0,0,7.457-6.179H413.3a23.84,23.84,0,0,1,4.726,6.4V120.9c-3.281,5.351-6.338,10.895-10.8,15.38C405.411,138.1,408.238,140.934,410.057,139.106Z"/><path class="a" d="M387.841,136.277c-4.575-4.6-7.71-10.282-11.074-15.769v2.019a24.461,24.461,0,0,1,4.85-6.57h-2.828a53.647,53.647,0,0,0,7.63,6.322q2,1.376,4.122,2.561.944.526,1.91,1.01.516.26,1.039.5c.172.082.344.162.518.24q.452.264.03-.087l-.273-1.009c-.018-.226.192-.18-.01.016a2.726,2.726,0,0,0-.258.368c-.269.376-.56.736-.847,1.1-.9,1.131-1.818,2.247-2.737,3.362-1.632,1.98-3.28,3.946-4.9,5.936a2.06,2.06,0,0,0,0,2.829,2.014,2.014,0,0,0,2.828,0c1.9-2.336,3.841-4.641,5.75-6.97,1.013-1.236,2.025-2.473,2.993-3.745.751-.986,1.47-2.115,1.109-3.425-.44-1.6-2.269-2.08-3.57-2.745-1.482-.757-2.925-1.592-4.324-2.491a48.565,48.565,0,0,1-8.182-6.6,2.037,2.037,0,0,0-2.828,0,26.711,26.711,0,0,0-4.736,6.035,8.337,8.337,0,0,0-.941,1.823,2.772,2.772,0,0,0,.63,2.242c.672,1.1,1.336,2.21,2.006,3.314a65.882,65.882,0,0,0,9.265,12.564C386.831,140.933,389.66,138.1,387.841,136.277Z"/><path class="a" d="M447.248,234.1c-.107-9.535-.006-19.071.239-28.6.234-9.126.152-18.372,1.751-27.378,1.607-9.054,4.04-17.936,5.676-26.984q.613-3.393,1.056-6.814.213-1.638.371-3.282c.105-1.1.391-2.386-.124-3.423-.846-1.7-3.379-2.854-4.973-3.757-1.79-1.014-3.622-1.963-5.453-2.9a191.075,191.075,0,0,0-25.641-10.737c-2.442-.832-3.491,3.031-1.064,3.857a187.881,187.881,0,0,1,17.571,6.879q4.07,1.862,8.038,3.931c1.388.721,2.772,1.449,4.14,2.207q1.077.6,2.12,1.253c.482.3,1.607.841,1.808,1.288l-.273-1.01a22.27,22.27,0,0,1-.375,4.526c-.181,1.538-.406,3.071-.657,4.6-.5,3.023-1.1,6.027-1.74,9.021-1.3,6.069-2.789,12.1-3.953,18.2-.578,3.029-1.069,6.074-1.443,9.135-.363,2.966-.329,6.019-.443,9q-.368,9.633-.543,19.273-.2,10.857-.088,21.717c.029,2.572,4.029,2.579,4,0Z"/><path class="a" d="M258.257,88.029A40.8,40.8,0,0,1,257.121,69.7c.657-4.639,2.158-9.56,5.174-13.242a20.721,20.721,0,0,1,5.685-4.506c2.834-1.673,5.779-3.169,8.677-4.728a69.606,69.606,0,0,1,8.84-4.468,15.859,15.859,0,0,1,6.34-.791c4.813.252,10.427,1.792,13.962,5.24,1.844,1.8,4.675-1.027,2.829-2.828-3.785-3.692-9.278-5.505-14.417-6.182a24.007,24.007,0,0,0-7.646.113c-3.007.571-5.794,2.165-8.459,3.6-3.409,1.832-6.831,3.642-10.223,5.505a31.857,31.857,0,0,0-7.5,5.2c-3.558,3.608-5.62,8.65-6.671,13.531-1.595,7.405-1.687,15.715.686,22.95.8,2.436,4.662,1.393,3.857-1.063Z"/><path class="a" d="M312.417,50.378c6.7,1.473,10.835,8.841,12.776,14.832a41.816,41.816,0,0,1,.989,22.045c-.572,2.506,3.284,3.576,3.857,1.064a45.755,45.755,0,0,0-1.225-24.878,33.948,33.948,0,0,0-5.314-9.984c-2.478-3.152-6.029-6.059-10.02-6.937-2.508-.551-3.58,3.3-1.063,3.858Z"/><path class="a" d="M310.486,66.66a26.913,26.913,0,0,1,8.264,16.969,2.056,2.056,0,0,0,2,2,2.014,2.014,0,0,0,2-2,31.165,31.165,0,0,0-9.436-19.8c-1.857-1.784-4.689,1.041-2.828,2.828Z"/><path class="a" d="M303.965,62.035c-1.277,3.092-4.786,4.261-7.681,5.277a41.078,41.078,0,0,1-12.262,2.349c-2.566.1-2.579,4.1,0,4a46.541,46.541,0,0,0,14.238-2.815,22.69,22.69,0,0,0,5.547-2.631,11.388,11.388,0,0,0,4.015-5.116,2.011,2.011,0,0,0-1.4-2.46,2.05,2.05,0,0,0-2.46,1.4Z"/><path class="a" d="M289.461,59.13a24.364,24.364,0,0,1-5.553,7.767A20.423,20.423,0,0,1,275.3,71.12c-3.221.821-6.44,1.358-8.842,3.883a17.8,17.8,0,0,0-4.008,8.4c-.571,2.507,3.284,3.576,3.857,1.064.611-2.676,1.573-5.758,3.888-7.456a11.022,11.022,0,0,1,4.151-1.567,32.879,32.879,0,0,0,4.739-1.372,23.253,23.253,0,0,0,8.243-4.907,27.877,27.877,0,0,0,5.59-8.015,2.058,2.058,0,0,0-.718-2.736,2.017,2.017,0,0,0-2.736.717Z"/><path class="a" d="M324.026,90.5a2.457,2.457,0,0,1,3.624.637,6.626,6.626,0,0,1,.4,2.919,15.535,15.535,0,0,1-.359,3.372,14.693,14.693,0,0,1-2.564,5.849,3.721,3.721,0,0,1-1.794,1.476,25.011,25.011,0,0,1-2.852.41,2.014,2.014,0,0,0-1.4,2.46,2.055,2.055,0,0,0,2.461,1.4,13.447,13.447,0,0,0,3.957-.818,9.141,9.141,0,0,0,3.26-3.159,19.445,19.445,0,0,0,3.15-8.77c.35-2.874.34-6.552-1.993-8.638a6.609,6.609,0,0,0-8.717.037,2.015,2.015,0,0,0,0,2.828,2.043,2.043,0,0,0,2.829,0Z"/><path class="a" d="M319.515,104.2a17.173,17.173,0,0,1-1,4.64c-.126.385-.254.767-.4,1.144.216-.555-.223.454-.3.613a40.783,40.783,0,0,1-3.372,5.514c-2.915,4.08-6.882,8.5-11.957,9.689-2.505.588-1.444,4.446,1.064,3.857,6.037-1.419,10.684-6.464,14.182-11.3,3.017-4.169,5.574-8.9,5.787-14.16.1-2.574-3.9-2.569-4,0Z"/><path class="a" d="M262.936,87.673a6.609,6.609,0,0,0-8.717-.037c-2.474,2.22-2.339,6.15-1.921,9.17.755,5.462,4.67,13.9,11.494,12.492a2,2,0,1,0-1.063-3.857c-1.571.325-3.081-1.268-3.9-2.415a16,16,0,0,1-2.742-9.139,6.234,6.234,0,0,1,.395-2.749,2.46,2.46,0,0,1,3.624-.637,2.055,2.055,0,0,0,2.829,0,2.016,2.016,0,0,0,0-2.828Z"/><path class="a" d="M260.335,100.49c.777,6.336,2.427,12.607,6.126,17.912,4.165,5.972,10.5,11.292,17.888,12.418a2.064,2.064,0,0,0,2.46-1.4,2.015,2.015,0,0,0-1.4-2.46c-6.5-.992-12.128-5.584-15.737-10.931a35.822,35.822,0,0,1-5.34-15.542,2.063,2.063,0,0,0-2-2,2.012,2.012,0,0,0-2,2Z"/><path class="a" d="M277.668,127.32a12.976,12.976,0,0,1-.161,1.558c-.069.568.065-.422-.019.145l-.063.425c-.044.287-.091.574-.139.861-.127.749-.214,1.509-.368,2.253-.064.313-.2.612-.261.92.019-.092.223-.465.069-.175-.037.07-.071.142-.111.21s-.086.135-.127.2c-.17.281.021-.075.106-.13a2.773,2.773,0,0,0-.363.371c-.271.269.391-.248.05-.037-.086.053-.168.111-.254.163s-.185.107-.28.155c-.057.03-.405.217-.136.075s-.112.038-.175.063c-.116.047-.918.379-.26.11a2.2,2.2,0,0,0-1.195.919,2,2,0,0,0,2.259,2.938,3.911,3.911,0,0,0,.695-.292c-.469.316-.221.1-.019.019a9.519,9.519,0,0,0,1.021-.47,5.782,5.782,0,0,0,1.35-1.034,5.891,5.891,0,0,0,1.424-2.662c.2-.8.278-1.636.417-2.45.127-.745.236-1.493.335-2.243a14.593,14.593,0,0,0,.2-1.9,2,2,0,0,0-4,0Z"/><path class="a" d="M310.728,134.753c-.281-.128-.561-.259-.848-.372-.489-.191.221.12-.035,0-.108-.053-.219-.1-.326-.159-.08-.042-.492-.365-.558-.344q.34.27.169.127c-.044-.037-.087-.075-.129-.115s-.107-.1-.158-.158c-.185-.2-.093-.265.041.074a1.206,1.206,0,0,0-.116-.172c-.09-.144-.15-.306-.238-.45.315.517.059.124,0-.095-.053-.182-.1-.367-.134-.553-.163-.8-.264-1.622-.394-2.43-.05-.309-.094-.617-.14-.926q-.031-.219.009.069l-.024-.186c-.018-.154-.037-.308-.055-.463a16.031,16.031,0,0,1-.16-1.775,2,2,0,0,0-4,0,27.526,27.526,0,0,0,.5,4.251c.144.905.247,1.834.453,2.728a6.024,6.024,0,0,0,1.4,2.716,5.66,5.66,0,0,0,1.343,1.056,6.4,6.4,0,0,0,.716.35c-.093-.04,1.167.548.337.132.11.055.223.1.335.154a2.05,2.05,0,0,0,2.736-.718,2.023,2.023,0,0,0-.717-2.736Z"/><path class="a" d="M303.07,109.653a4.79,4.79,0,0,1,.819.822l-.312-.405a4.895,4.895,0,0,1,.626,1.075l-.2-.478a4.8,4.8,0,0,1,.231.711,2.238,2.238,0,0,0,.919,1.195,2.244,2.244,0,0,0,1.541.2,2.022,2.022,0,0,0,1.2-.919,2.133,2.133,0,0,0,.2-1.541,7.581,7.581,0,0,0-.44-1.207,4.8,4.8,0,0,0-.379-.716,7.971,7.971,0,0,0-.765-1,4.711,4.711,0,0,0-.607-.566,2.054,2.054,0,0,0-2.828,0,2.01,2.01,0,0,0-.586,1.414l.071.532a2,2,0,0,0,.515.882Z"/><path class="a" d="M285.7,114.278c1.837,1.8,4.71,2.351,7.182,2.349s5.346-.55,7.184-2.349a2,2,0,1,0-2.829-2.828c-.077.075-.42.353-.107.113s-.129.08-.229.141q-.225.138-.461.256a1.6,1.6,0,0,0-.32.15c.1-.113.391-.148.061-.033a10.58,10.58,0,0,1-1.534.42c-.05.009-.616.091-.168.036q-.236.029-.471.048-.562.046-1.126.046c-.344,0-.688-.012-1.031-.038q-.285-.021-.568-.056c.285.035.086.009-.084-.021a9.4,9.4,0,0,1-1.555-.412c-.062-.022-.124-.046-.186-.07-.143-.057-.082-.03.185.08a1.121,1.121,0,0,0-.269-.125c-.174-.086-.345-.179-.511-.281-.122-.075-.241-.187-.369-.25.519.252.229.187.034,0a2,2,0,0,0-2.828,2.828Z"/><path class="a" d="M291.769,100.728a27.405,27.405,0,0,1,.65,2.971l-.072-.532a1.757,1.757,0,0,1,.011.41l.072-.532a1.062,1.062,0,0,1-.045.185l.2-.478a.81.81,0,0,1-.065.119l.313-.405a.67.67,0,0,1-.1.1l.4-.312a1.966,1.966,0,0,1-.236.124l.478-.2a1.705,1.705,0,0,1-.4.115l.532-.071a1.543,1.543,0,0,1-.372,0l.532.072c-.141-.02-.278-.054-.419-.073a1.523,1.523,0,0,0-.8-.036,1.48,1.48,0,0,0-.744.238,2,2,0,0,0-.717,2.736,1.913,1.913,0,0,0,1.195.919c.362.049.713.14,1.081.156a3.536,3.536,0,0,0,1.647-.4,2.482,2.482,0,0,0,1.345-1.623,3.878,3.878,0,0,0-.015-1.695c-.161-.957-.382-1.906-.629-2.844a2,2,0,0,0-2.46-1.4,2.017,2.017,0,0,0-1.195.919,2.1,2.1,0,0,0-.2,1.541Z"/><path class="a" d="M276.522,92.189c-.5,1.612-.173,5.32,2.881,5.636,4.037-.024,4.252-4.508,2.893-6.616C281.183,89.483,277.912,88.765,276.522,92.189Z"/><path class="a" d="M308.847,92.189c.5,1.612.173,5.32-2.881,5.636-4.037-.025-4.252-4.508-2.893-6.616C304.186,89.483,307.457,88.765,308.847,92.189Z"/><path class="a" d="M275.324,148.923a55.866,55.866,0,0,0,17.742,2.971,59.171,59.171,0,0,0,17.162-2.941c2.446-.771,1.4-4.634-1.064-3.857a55.36,55.36,0,0,1-16.1,2.8,52.343,52.343,0,0,1-16.678-2.828c-2.452-.805-3.5,3.056-1.064,3.857Z"/><path class="a" d="M314.21,234.105c-.966-25.619-2.1-51.238-2.427-76.875q-.134-10.512-.065-21.026l-2.531,1.929c4.461.618,8.844,2.651,12.9,4.511,5.957,2.732,12.163,5.938,16.858,10.6,6.076,6.031,7.341,15.048,8.975,23.051a167.368,167.368,0,0,1,3.561,27.9c.164,4.993-.186,10.19-2.265,14.807-2.119,4.708-5.894,8.546-9.194,12.434-1.657,1.951,1.159,4.794,2.828,2.828,3.165-3.728,6.637-7.383,9.03-11.681a31.511,31.511,0,0,0,3.569-13.719,96.435,96.435,0,0,0-.72-14.44q-.738-7.561-2.136-15.03c-.9-4.833-1.8-9.74-3.043-14.5a34.522,34.522,0,0,0-5.439-11.767c-4.259-5.708-10.949-9.5-17.219-12.609a105.587,105.587,0,0,0-10.187-4.407,30.841,30.841,0,0,0-6.455-1.835,2.036,2.036,0,0,0-2.532,1.928c-.19,25.357.682,50.7,1.652,76.039q.417,10.93.84,21.862c.1,2.566,4.1,2.578,4,0Z"/><path class="a" d="M241.965,161.649a25.516,25.516,0,0,1,5.924-9.007,43.2,43.2,0,0,1,7.126-5.215,90.645,90.645,0,0,1,15.9-7.59,27.725,27.725,0,0,1,5.322-1.6l-2.532-1.928c.5,25.491-.057,50.987-.619,76.472q-.235,10.659-.451,21.318c-.049,2.575,3.951,2.575,4,0,.488-25.44,1.249-50.877,1.264-76.323q.006-10.734-.194-21.467a2.036,2.036,0,0,0-2.532-1.929,25.778,25.778,0,0,0-4.757,1.4c-2.672.953-5.3,2.043-7.882,3.215-5.911,2.679-11.793,5.844-16.709,10.13a28.154,28.154,0,0,0-7.317,10.509,2.07,2.07,0,0,0,.718,2.737,2.013,2.013,0,0,0,2.736-.718Z"/><path class="a" d="M230.7,206.27a34.662,34.662,0,0,0,3.169,15.429c2.194,4.4,5.824,7.96,8.977,11.665,1.671,1.963,4.488-.878,2.828-2.828-2.863-3.366-6.118-6.567-8.18-10.52-2.195-4.209-2.774-9.064-2.794-13.746-.011-2.574-4.011-2.579-4,0Z"/><path class="a" d="M254.074,173.159c-.545,15.851-1.368,31.7-2.324,47.533-.241,3.989-.492,7.979-.822,11.962-.212,2.565,3.789,2.551,4,0,1.379-16.64,2.031-33.359,2.762-50.037.138-3.152.275-6.3.384-9.458.088-2.574-3.912-2.571-4,0Z"/><path class="a" d="M327.783,173.159c.594,7.353.808,14.744,1.095,22.113.358,9.228.67,18.457,1.032,27.685.146,3.717.29,7.434.5,11.148.145,2.559,4.146,2.576,4,0-.951-16.761-1.237-33.558-2.015-50.327-.164-3.541-.328-7.085-.613-10.619-.206-2.548-4.208-2.57-4,0Z"/><path class="a" d="M150.63,134.091c-.036-.009-.074-.011-.11-.02a1.526,1.526,0,0,0-.8-.036,2.057,2.057,0,0,0-1.662,1.433l-.072.532a1.987,1.987,0,0,0,.273,1.009l.313.405a2,2,0,0,0,.882.514c.037.009.074.011.11.02a2.057,2.057,0,0,0,2.461-1.4l.071-.531a1.991,1.991,0,0,0-.273-1.01l-.313-.4a1.992,1.992,0,0,0-.882-.515Z"/><path class="a" d="M141.758,122.34c0-6.533,2.3-12.754,3.151-19.176a181.807,181.807,0,0,0,1.189-23.8c0-2.574-4-2.578-4,0a176.085,176.085,0,0,1-1.157,23.561c-.886,6.509-3.183,12.778-3.183,19.419,0,2.574,4,2.578,4,0Z"/><path class="a" d="M219.548,79.36a107.26,107.26,0,0,0,4.515,31.02,35.413,35.413,0,0,1,1.9,10.86c0,2.574,4,2.578,4,0a36.215,36.215,0,0,0-1.6-10.55c-.481-1.582-1-3.15-1.44-4.744a88.7,88.7,0,0,1-2.659-14.226c-.439-4.106-.648-8.232-.706-12.36-.036-2.572-4.036-2.579-4,0Z"/><path class="a" d="M214.889,79.568a2.408,2.408,0,0,1,3.423.451,5.057,5.057,0,0,1,.486,2.565,15.143,15.143,0,0,1-.214,3.118c-.676,3.7-2.558,8.145-6.676,8.884a2.017,2.017,0,0,0-1.4,2.46,2.044,2.044,0,0,0,2.46,1.4c6.295-1.129,9.3-8.235,9.772-13.941.243-2.933,0-6.278-2.533-8.178a6.521,6.521,0,0,0-8.15.416,2.015,2.015,0,0,0,0,2.828,2.044,2.044,0,0,0,2.829,0Z"/><path class="a" d="M206.172,111.294c4.073-4.777,7.994-10.68,8.226-17.174a2,2,0,0,0-4,0,16.131,16.131,0,0,1-.912,4.329c-.141.438-.314.87-.448,1.31-.067.219.221-.462.021-.058-.044.088-.082.179-.123.268-.119.252-.244.5-.371.751a40.719,40.719,0,0,1-5.221,7.746,2.052,2.052,0,0,0,0,2.828,2.016,2.016,0,0,0,2.828,0Z"/><path class="a" d="M154.661,76.74a6.522,6.522,0,0,0-8.149-.416c-2.539,1.894-2.776,5.25-2.533,8.178.474,5.7,3.477,12.812,9.771,13.941a2.057,2.057,0,0,0,2.46-1.4,2.017,2.017,0,0,0-1.4-2.46c-4.118-.739-6-5.179-6.677-8.884a15.031,15.031,0,0,1-.216-2.943,5.834,5.834,0,0,1,.416-2.621,2.4,2.4,0,0,1,3.5-.57,2.054,2.054,0,0,0,2.828,0,2.015,2.015,0,0,0,0-2.828Z"/><path class="a" d="M152.05,90.463c.765,6.239,2.386,12.413,6.02,17.641,4.109,5.91,10.376,11.174,17.674,12.289a2.065,2.065,0,0,0,2.461-1.4,2.016,2.016,0,0,0-1.4-2.461c-6.42-.98-11.971-5.518-15.525-10.8a35.291,35.291,0,0,1-5.233-15.27,2.064,2.064,0,0,0-2-2,2.012,2.012,0,0,0-2,2Z"/><path class="a" d="M194.6,52.745c.931,3.136,1.772,6.314,2.927,9.377a42.835,42.835,0,0,0,3.12,6.266c2.574,4.456,6.024,9.728,11.264,11.226,2.479.709,3.538-3.149,1.063-3.857a11.244,11.244,0,0,1-5.163-3.908,38.552,38.552,0,0,1-4-5.991,35.4,35.4,0,0,1-2.669-5.469c-1.023-2.86-1.818-5.8-2.682-8.707-.73-2.462-4.592-1.414-3.857,1.063Z"/><path class="a" d="M194.994,50.473A41.179,41.179,0,0,1,180.17,62.7a35.9,35.9,0,0,1-4.378,1.718c-.3.1-1.12.187-1.321.4l.26-.03a1.386,1.386,0,0,1,1.36.934c-.064-.006-.024-.016-.03-.162-.009-.222,0-.443.008-.664.118-2.446.876-4.854,1.184-7.283.229-1.806-2.289-2.519-3.414-1.414-7.165,7.031-14.514,13.944-22.275,20.316-1.99,1.635.854,4.451,2.829,2.829,7.76-6.372,15.11-13.286,22.274-20.316l-3.414-1.415c-.309,2.435-1.374,5.456-1.179,8.142.107,1.483.884,2.937,2.541,3.018,1.587.077,3.546-.912,4.986-1.494A43.93,43.93,0,0,0,197.823,53.3a2.065,2.065,0,0,0,0-2.828,2.014,2.014,0,0,0-2.829,0Z"/><path class="a" d="M198.561,29.8a42.8,42.8,0,0,0-17.354-2.36,43.9,43.9,0,0,0-19.006,5.63A34.4,34.4,0,0,0,151.1,42.6a43.125,43.125,0,0,0-6.62,14.143,75.627,75.627,0,0,0-2.391,22.622c.079,2.568,4.079,2.579,4,0-.345-11.175,1-23.226,7.157-32.849,5.48-8.559,15.87-13.776,25.795-14.893A39.8,39.8,0,0,1,197.5,33.661a2.016,2.016,0,0,0,2.46-1.4,2.046,2.046,0,0,0-1.4-2.461Z"/><path class="a" d="M223.551,79.361a79.608,79.608,0,0,0,.033-10.269,66.974,66.974,0,0,0-.889-9.018,42.436,42.436,0,0,0-8.87-19.6,31.039,31.039,0,0,0-8.142-7.22c-2.253-1.25-4.273,2.2-2.019,3.454a27.808,27.808,0,0,1,6.5,5.661,31.541,31.541,0,0,1,5.288,8.105,47,47,0,0,1,4.1,17.952,82.01,82.01,0,0,1,0,10.94c-.211,2.566,3.79,2.552,4,0Z"/><path class="a" d="M168.685,117.34c-.015,1.259.029,2.519-.035,3.778a10.251,10.251,0,0,1-.17,1.554c-.059.286-.151.562-.217.845-.1.442.123-.084-.067.2-.058.085-.119.178-.169.269-.191.345.266-.27.029-.041-.215.208-.406.441-.626.647-.236.223-.482.435-.733.641-.136.111-.274.221-.412.33.341-.268-.116.082-.231.167a70.617,70.617,0,0,1-8.5,5.157c-.789.423-1.577.868-2.393,1.237a2.016,2.016,0,0,0-.717,2.737,2.047,2.047,0,0,0,2.736.717,67.214,67.214,0,0,0,6.409-3.493,53.025,53.025,0,0,0,4.611-3,12.662,12.662,0,0,0,3.355-3.2,9.139,9.139,0,0,0,1.035-3.968c.143-1.521.072-3.052.091-4.577.032-2.575-3.968-2.576-4,0Z"/><path class="a" d="M157.009,135.537c7.93,5.142,18.056,7.7,27.429,7.973,2.575.074,2.573-3.926,0-4-8.7-.251-18.054-2.657-25.41-7.427-2.167-1.405-4.174,2.057-2.019,3.454Z"/><path class="a" d="M217.51,210.907c1.231,7.918,2.555,15.822,3.855,23.729a2.015,2.015,0,0,0,2.46,1.4,2.047,2.047,0,0,0,1.4-2.46c-1.3-7.907-2.624-15.811-3.855-23.729a2.014,2.014,0,0,0-2.46-1.4,2.049,2.049,0,0,0-1.4,2.46Z"/><path class="a" d="M189.127,121.63c2.01-4.6,6.415-7.377,11.069-8.83a22.706,22.706,0,0,1,14.819.585,23.234,23.234,0,0,1,11.647,9.542A25.661,25.661,0,0,1,230,140.063a19.047,19.047,0,0,1-3.6,8.411c-1.761,2.273-4.07,4.577-4.312,7.593-.207,2.566,3.8,2.552,4,0a7.568,7.568,0,0,1,1.552-2.745c.839-1.139,1.783-2.2,2.605-3.349a21.909,21.909,0,0,0,3.608-8.847,30.09,30.09,0,0,0-3.4-19.623c-5.786-10.308-18.885-15.929-30.322-12.854-5.916,1.591-11.928,5.147-14.467,10.962a2.064,2.064,0,0,0,.718,2.736,2.014,2.014,0,0,0,2.736-.717Z"/><path class="a" d="M185.43,120.013a41.213,41.213,0,0,0-2.277,25.544c.925,3.925,2.383,8.227,5.474,11a13.508,13.508,0,0,0,11.207,3.209,2.015,2.015,0,0,0,1.4-2.461,2.052,2.052,0,0,0-2.461-1.4,9.24,9.24,0,0,1-8.128-2.992c-2.3-2.58-3.249-6.387-3.908-9.688a36.573,36.573,0,0,1,2.15-21.191,2.068,2.068,0,0,0-.717-2.736,2.014,2.014,0,0,0-2.737.717Z"/><path class="a" d="M191.461,157.438c-4.2,3.689-8.3,7.568-10.284,12.933l3.343-.883a43.9,43.9,0,0,0-4.287-3.5c-1.318-.942-2.888-2.219-4.562-2.349-1.792-.139-2.9.981-4.06,2.175l-3.9,4.026a2.052,2.052,0,0,0,0,2.829c2.4,2.8,4.787,5.611,7.208,8.392a40.163,40.163,0,0,0,7.263,6.852,9.938,9.938,0,0,0,4.695,2.024,6.536,6.536,0,0,0,4.553-1.71A11.344,11.344,0,0,0,193.805,186c.555-.769.986-1.632,1.5-2.429,1.4-2.169-2.06-4.177-3.454-2.019-.46.712-.864,1.457-1.319,2.172-.2.318.142-.147-.026.042-.1.116-.211.225-.323.334a13.256,13.256,0,0,1-1.074.906c-1.062.83-1.817,1.205-3.091.579a16.662,16.662,0,0,1-3.407-2.349,54.369,54.369,0,0,1-5.7-5.957q-3.192-3.713-6.378-7.431v2.829l2.765-2.852q.732-.756,1.463-1.51a4.705,4.705,0,0,1,.558-.571c.272-.193-.282-.138.1-.078a5.008,5.008,0,0,1,1.474.883c.573.375,1.138.764,1.69,1.169a35.709,35.709,0,0,1,3.107,2.6,2.028,2.028,0,0,0,3.343-.882c1.709-4.631,5.648-8,9.256-11.167,1.938-1.7-.9-4.521-2.829-2.829Z"/><path class="a" d="M177.067,199.281a8.479,8.479,0,0,1,6.169-6.511,17.787,17.787,0,0,1,5.478-.71,8.129,8.129,0,0,1,4.685,1.217,2.019,2.019,0,0,0,2.736-.718,2.04,2.04,0,0,0-.717-2.736,11.7,11.7,0,0,0-6.387-1.757,21.084,21.084,0,0,0-7.191.955c-4.288,1.442-7.723,4.662-8.63,9.2a2.05,2.05,0,0,0,1.4,2.46,2.019,2.019,0,0,0,2.461-1.4Z"/><path class="a" d="M176.927,164.43c.584-2.257.183-5.08-1.631-6.706a3.764,3.764,0,0,0-3.588-.928,4.88,4.88,0,0,0-2.629,2.42l2.737-.717c-2.154-1.477-4.844-2.479-7.468-1.844a6.749,6.749,0,0,0-4.7,4.718,7.794,7.794,0,0,0,.992,6.515,11.06,11.06,0,0,0,5.673,4.215,2,2,0,1,0,1.064-3.857c-.124-.042-.246-.086-.367-.133-.2-.079-.243-.1-.123-.048.142.062-.316-.158-.383-.193a11.5,11.5,0,0,1-1.09-.662c-.33-.221.108.12-.214-.167-.145-.13-.291-.257-.431-.394s-.265-.283-.4-.422c-.3-.31.057.127-.166-.2a7.082,7.082,0,0,1-.625-1.08q-.088-.192.017.032c-.045-.121-.085-.244-.122-.368-.051-.17-.085-.343-.125-.515-.115-.5-.023.336-.015-.172,0-.178-.012-.355-.006-.533.006-.145.055-.536,0-.177a5.96,5.96,0,0,1,.131-.607c.046-.172.1-.339.162-.506.051-.134.04-.111-.033.071.049-.106.1-.21.158-.313.084-.153.18-.3.273-.446.211-.336-.2.155.117-.137.126-.116.243-.243.37-.36-.3.278.061-.04.15-.095a3.23,3.23,0,0,1,.461-.245c-.322.131.327-.069.4-.087q.212-.039-.009-.012c.106-.011.211-.018.317-.021a4.866,4.866,0,0,1,.744.024c-.326-.039.3.068.318.073.213.05.425.111.633.179a4.679,4.679,0,0,1,.953.412,13.089,13.089,0,0,1,1.325.808,2.022,2.022,0,0,0,2.736-.717,5.045,5.045,0,0,1,.425-.663c-.153.183,0-.01.068-.036-.182.071-.077.048.052-.012a.827.827,0,0,1-.595.063c.108.014.224.179.059.029.039.036.334.395.231.247-.01-.015.165.32.173.34a4.059,4.059,0,0,1,.234.874c.052.352,0-.215,0,.142,0,.151.008.3,0,.452a1.858,1.858,0,0,1-.118.7,2,2,0,1,0,3.857,1.063Z"/><path class="a" d="M223.316,159.558c.979.377,1.856,2,2.346,2.925a30.38,30.38,0,0,1,2.044,5.387,45.771,45.771,0,0,1,1.942,12.14c.066,2.569,4.066,2.579,4,0a49.719,49.719,0,0,0-2.455-14.371c-1.217-3.668-2.871-8.419-6.813-9.938a2.016,2.016,0,0,0-2.46,1.4,2.045,2.045,0,0,0,1.4,2.46Z"/><path class="a" d="M224.174,200.776a22.361,22.361,0,0,1-3.832,3.755l.405-.313-.228.175a2.238,2.238,0,0,0-.919,1.195,2,2,0,0,0,1.4,2.46,1.937,1.937,0,0,0,1.542-.2A24.42,24.42,0,0,0,227,203.6a2.222,2.222,0,0,0,.586-1.414,2.032,2.032,0,0,0-.586-1.414,2.01,2.01,0,0,0-1.414-.586,1.936,1.936,0,0,0-1.414.586Z"/><path class="a" d="M202.348,135.41a10.253,10.253,0,0,1-2.152-.042l.532.071c-.087-.012-.175-.025-.262-.039a1.511,1.511,0,0,0-.8-.035,1.492,1.492,0,0,0-.744.237,2.238,2.238,0,0,0-.919,1.195,2.027,2.027,0,0,0,.2,1.541l.312.405a2,2,0,0,0,.883.514,12.161,12.161,0,0,0,2.945.153,2.057,2.057,0,0,0,2-2,2.029,2.029,0,0,0-.586-1.414,1.97,1.97,0,0,0-1.414-.586Z"/><path class="a" d="M189.084,135.371l-.03,0,.532-.072a7.684,7.684,0,0,1-1.987.02l.532.071c-.05-.007-.1-.015-.15-.025a1.512,1.512,0,0,0-.8-.035,1.489,1.489,0,0,0-.744.237,2.238,2.238,0,0,0-.919,1.195l-.072.532a2,2,0,0,0,.274,1.009,1.977,1.977,0,0,0,1.195.919,8.109,8.109,0,0,0,1.523.144,12.043,12.043,0,0,0,1.706-.142,2.233,2.233,0,0,0,1.2-.92,1.487,1.487,0,0,0,.238-.743,1.526,1.526,0,0,0-.036-.8,2.025,2.025,0,0,0-.919-1.195l-.478-.2a2.018,2.018,0,0,0-1.063,0Z"/><path class="a" d="M194.153,146.818a16.227,16.227,0,0,0-2.145-.176,2.056,2.056,0,0,0-2,2l.071.532a2.01,2.01,0,0,0,.515.883l.405.312a1.987,1.987,0,0,0,1.009.273,14.458,14.458,0,0,1,1.5.088l-.532-.071.114.016a2.244,2.244,0,0,0,1.541-.2,2.235,2.235,0,0,0,.919-1.2l.072-.531a2,2,0,0,0-.273-1.01l-.313-.4a2,2,0,0,0-.883-.515Z"/><path class="a" d="M217.775,140.638a4.162,4.162,0,0,1,.423-.259c-.247.134-.091.041.088-.006a2.516,2.516,0,0,1,.257-.059c-.209.025-.239.033-.09.023.145.015.3,0,.446.008-.438-.023.028.034.127.06.349.088-.124-.106.04.015.1.075.225.13.331.2-.51-.354.083.08.031.089q-.231-.309-.1-.095.1.192-.023-.068c.012.051.137.52.076.249s.018.211.023.268c.014.187.025.374.033.562.014.341.017.682,0,1.023-.006.154-.019.308-.027.462-.033.583.085-.374-.02.2a8.057,8.057,0,0,1-.211.9,4.472,4.472,0,0,1-.187.528c.16-.356-.118.2-.126.212-.135.245-.291.476-.444.71-.279.422.268-.278-.073.094-.108.118-.213.238-.327.35-.1.095-.206.181-.3.275-.147.141.235-.134-.078.053-.225.135-.452.253-.688.37-.2.1.313-.1-.049.013-.159.05-.314.111-.474.159s-.31.09-.467.127c-.129.031-.606.109-.04.033a2.2,2.2,0,0,0-1.414.586,2.032,2.032,0,0,0-.586,1.414c.043.964.889,2.149,2,2a8.38,8.38,0,0,0,5.042-2.316A9.14,9.14,0,0,0,223.4,143.3c.191-1.929.118-4.359-1.455-5.722a5.163,5.163,0,0,0-6.185-.391,2.044,2.044,0,0,0-.717,2.737,2.024,2.024,0,0,0,2.736.717Z"/><path class="a" d="M197.319,116.63c-.015.038-.03.075-.046.112l.2-.478a6.4,6.4,0,0,1-.789,1.35l.312-.4a6.686,6.686,0,0,1-1.193,1.19l.405-.313a6.55,6.55,0,0,1-1.35.791l.478-.2a6.587,6.587,0,0,1-.682.244,2.09,2.09,0,0,0-1.195.919,2,2,0,0,0,2.259,2.938,8.561,8.561,0,0,0,3.331-1.9,8.785,8.785,0,0,0,1.232-1.441,8.336,8.336,0,0,0,.893-1.746,2,2,0,0,0-.2-1.541,2,2,0,0,0-2.737-.717l-.4.313a1.992,1.992,0,0,0-.515.882Z"/><path class="a" d="M203.506,119.035l.014.094-.072-.532a8.644,8.644,0,0,1,.029,2.215l.072-.532a5.963,5.963,0,0,1-.4,1.52l.2-.478a4.431,4.431,0,0,1-.547.933l.313-.405a3.747,3.747,0,0,1-.59.591l.405-.313a3.62,3.62,0,0,1-.724.43l.478-.2a4.157,4.157,0,0,1-.413.149,2,2,0,1,0,1.063,3.857,5.611,5.611,0,0,0,3.57-3.26,9.478,9.478,0,0,0,.459-5.13,2,2,0,0,0-.92-1.195,2,2,0,0,0-2.736.717l-.2.478a2.018,2.018,0,0,0,0,1.063Z"/><path class="a" d="M195.291,160.976c4.089,1.131,8.627,1.113,12.832,1a52.876,52.876,0,0,0,15.11-2.219c2.431-.807,1.389-4.672-1.064-3.857a48.991,48.991,0,0,1-14.046,2.076c-3.883.111-8.041.179-11.768-.852-2.485-.687-3.545,3.171-1.064,3.857Z"/><path class="a" d="M158.018,131.81a24.489,24.489,0,0,0-8.809,3.283,2.02,2.02,0,0,0-.718,2.736,2.04,2.04,0,0,0,2.737.718c.729-.407,1.469-.795,2.223-1.154.348-.165.7-.319,1.051-.478.247-.111-.364.15-.118.049l.237-.1c.172-.07.346-.139.52-.2.578-.22,1.165-.42,1.761-.585.266-.074.534-.141.8-.2.131-.028.262-.053.394-.076.056-.009.112-.016.168-.027.213-.041-.585.074-.25.034a2.186,2.186,0,0,0,1.414-.586,2.033,2.033,0,0,0,.586-1.414c-.044-.977-.887-2.134-2-2Z"/><path class="a" d="M229.239,148.763c10.793,10.63,15.8,26.368,16.261,41.248q.084,2.76-.047,5.522a9.347,9.347,0,0,1-.99,4.511,9.221,9.221,0,0,1-9.3,4.654c-3.655-.326-6.507-2.43-9.163-4.785a96.146,96.146,0,0,1-7.908-8.026,6.44,6.44,0,0,0-.875-.993c-.3-.2,0-.161-.147-.054-.066.049-.265.515.127.223a18.422,18.422,0,0,0,1.834-1.974c1.47-1.51,3-2.967,4.525-4.415,1.451-1.373,2.915-2.732,4.354-4.118.036-.035.841-.742.8-.806l-.252.032c-.3-.024-.333.029-.1.157.1.231.589.475.8.644,1.018.811,2.044,1.611,3.055,2.432a2.058,2.058,0,0,0,2.828,0,2.014,2.014,0,0,0,0-2.828c-.955-.776-1.924-1.534-2.887-2.3-1.046-.831-2.055-1.934-3.464-2.032-2.118-.147-3.514,1.785-4.908,3.1-3.055,2.89-6.215,5.708-9.032,8.837a5.392,5.392,0,0,0-1.589,2.6,3.886,3.886,0,0,0,1.22,3.324q1.862,2.133,3.816,4.183c2.951,3.089,6.109,6.322,9.788,8.552a15.769,15.769,0,0,0,13.75,1.26,12.649,12.649,0,0,0,7.552-9.842,71.221,71.221,0,0,0-2.631-26.189c-2.732-9.565-7.466-18.726-14.6-25.752-1.836-1.808-4.666,1.018-2.828,2.828Z"/><path class="a" d="M177.06,103.009c1.816,1.778,4.656,2.326,7.1,2.324s5.284-.545,7.1-2.324a2,2,0,0,0-2.828-2.828c-.077.075-.418.35-.1.109s-.124.076-.224.137c-.147.091-.3.174-.453.252a1.666,1.666,0,0,0-.316.148c.115-.111.387-.147.066-.035a10.423,10.423,0,0,1-1.511.413c-.055.011-.615.091-.159.035-.154.019-.309.035-.464.048-.369.031-.74.045-1.11.045-.339,0-.679-.012-1.017-.037-.187-.015-.374-.033-.56-.056.284.035.1.012-.075-.02a9.33,9.33,0,0,1-1.533-.405c-.259-.095-.258-.218.006.012a1.305,1.305,0,0,0-.265-.123c-.172-.085-.341-.176-.5-.277-.121-.075-.238-.183-.364-.246.525.262.23.187.039,0a2,2,0,1,0-2.828,2.828Z"/><path class="a" d="M183.041,89.638a27.38,27.38,0,0,1,.64,2.928l-.072-.531a1.761,1.761,0,0,1,.011.4l.072-.532a1.03,1.03,0,0,1-.045.182l.2-.478a.775.775,0,0,1-.064.117l.312-.405a.61.61,0,0,1-.095.1l.4-.313a2.045,2.045,0,0,1-.231.123l.477-.2a1.7,1.7,0,0,1-.391.114l.532-.071a1.609,1.609,0,0,1-.367,0l.532.072c-.139-.02-.274-.053-.413-.072a1.523,1.523,0,0,0-.8-.036,1.48,1.48,0,0,0-.744.238,2,2,0,0,0-.718,2.736,1.918,1.918,0,0,0,1.2.919c.359.048.707.138,1.073.155a3.522,3.522,0,0,0,1.638-.4,2.474,2.474,0,0,0,1.339-1.617,3.857,3.857,0,0,0-.014-1.687c-.16-.943-.378-1.878-.62-2.8a2,2,0,0,0-2.461-1.4,2.025,2.025,0,0,0-1.2.92,2.1,2.1,0,0,0-.2,1.541Z"/><path class="a" d="M168.036,81.211c-.489,1.59-.171,5.246,2.84,5.557,3.98-.024,4.192-4.444,2.852-6.523C172.631,78.544,169.406,77.836,168.036,81.211Z"/><path class="a" d="M199.9,81.211c.49,1.59.171,5.246-2.84,5.557-3.98-.024-4.192-4.444-2.852-6.523C195.309,78.544,198.534,77.836,199.9,81.211Z"/><path class="a" d="M164.531,197.553c3.2,1.156,6.475,2.1,9.748,3.033,1.675.478,3.349.945,5.044,1.346.887.211,1.777.411,2.666.619a10.669,10.669,0,0,1,2.378.574c.925.488.628,2.1.674,2.979q.125,2.347.216,4.7c.133,3.486.211,6.976.139,10.464-.053,2.575,3.947,2.575,4,0,.078-3.763-.018-7.529-.172-11.289q-.1-2.546-.249-5.089c-.1-1.7-.291-3.328-1.644-4.537-1.394-1.245-3.413-1.456-5.167-1.861-2.013-.465-4.013-.954-6-1.524-3.546-1.018-7.1-2.015-10.572-3.268-2.425-.875-3.47,2.989-1.063,3.857Z"/><path class="a" d="M186.918,205.98a19.659,19.659,0,0,0,8.055-2.562,68.179,68.179,0,0,1,7.927-3.59c1.476-.538,3.657-1.13,3.408,1.213-.225,2.116-2.8,3.315-4.429,4.2-1.428.775-1.24,3.35.477,3.655,4.336.77,8.278-.5,12.319-1.9.884-.3,1.772-.606,2.677-.843a2.8,2.8,0,0,1,1.813-.146c1.438.665-1.857,3.266-2.43,3.775-6.006,5.329-14.258,10.947-22.625,7.5a2.013,2.013,0,0,0-2.46,1.4,2.05,2.05,0,0,0,1.4,2.46c7.666,3.156,16.421-.4,22.538-5.165,1.594-1.243,3.109-2.584,4.615-3.931,1.534-1.374,3.126-3.046,3.315-5.2a4.486,4.486,0,0,0-2.873-4.528,7.576,7.576,0,0,0-5.149.21c-3.9,1.176-7.874,3.257-12.072,2.511l.478,3.656c2.543-1.382,5.366-3.159,6.165-6.142.72-2.685-.272-5.947-3.053-6.974a7.27,7.27,0,0,0-4.972.316c-1.731.62-3.435,1.335-5.107,2.1-3.211,1.466-6.388,3.8-10.013,3.984-2.561.132-2.577,4.133,0,4Z"/><path class="a" d="M216.318,188.513a25.408,25.408,0,0,0-4.659-1.6,29.34,29.34,0,0,1-3.746-1.487,13.861,13.861,0,0,1-5.484-4.51,17.447,17.447,0,0,1-1.913-3.738,22.273,22.273,0,0,1-.783-2.483,7.12,7.12,0,0,1,.109-2.993,5.223,5.223,0,0,1,.395-2.193c.4-.569,1.075-.381,1.631-.706.625-.366.5-.348.257-.284a1.686,1.686,0,0,1,.523.033,8.169,8.169,0,0,1,2.19.833,73.434,73.434,0,0,0,11.728,4.989c1.328.391,3.068-1.016,2.461-2.46a10.944,10.944,0,0,1-1.02-3.1,2.368,2.368,0,0,1,.114-1.047,3.47,3.47,0,0,1,.318-.583c.089-.15.516-.432.165-.292-.391.155.162.063.264.071a3.3,3.3,0,0,0,.8-.006c.42-.08.22-.055.284-.03-.337-.128.04.065.2.268-.081-.1.329.514.409.645,1.965,3.258,3.162,7.024,4.449,10.583.868,2.4,4.735,1.366,3.857-1.063-.973-2.691-1.969-5.374-3.1-8-.8-1.849-1.675-4.059-3.214-5.437a5.477,5.477,0,0,0-6.844.3c-2.42,2.556-1.765,5.831-.534,8.755l2.46-2.46a51.617,51.617,0,0,1-9.641-4c-2.474-1.309-6.106-3.261-8.545-.852l1.414-.586a5.154,5.154,0,0,0-4.337,2.949,8.438,8.438,0,0,0-.549,2.665,15.57,15.57,0,0,0-.369,3.479,20.042,20.042,0,0,0,3.692,9.218,17.731,17.731,0,0,0,6.222,5.3,33.663,33.663,0,0,0,4.314,1.819,32.6,32.6,0,0,1,4.468,1.454c2.239,1.277,4.257-2.178,2.019-3.454Z"/><path class="a" d="M89.783,151.418a33.232,33.232,0,0,1-.336-12.7,45.161,45.161,0,0,1,1.131-5.4c.193-.7.4-1.391.642-2.074.1-.28.2-.559.312-.835.02-.049.147-.35.022-.059.052-.121.105-.242.161-.361a23.363,23.363,0,0,1,10.57-10.784c6.6-3.457,14.359-4.089,21.684-3.592a15.8,15.8,0,0,1,8.816,3.054,17.913,17.913,0,0,1,2.03,1.884,27.721,27.721,0,0,0,2.4,2.864,11.808,11.808,0,0,0,2.9,1.187,7.951,7.951,0,0,1,2.254,1.242,13.5,13.5,0,0,1,2.285,3.1,32.557,32.557,0,0,1,1.889,3.473,29.674,29.674,0,0,1,2.162,6.744,38.322,38.322,0,0,1,.181,12.339,2.01,2.01,0,0,0,2,2,2.05,2.05,0,0,0,2-2,38.952,38.952,0,0,0-1.317-17.174A34.313,34.313,0,0,0,146.808,125a10.246,10.246,0,0,0-3.47-3.29,35.7,35.7,0,0,0-4.377-1.793l1.195.919a22.716,22.716,0,0,0-7.272-6.866,20.421,20.421,0,0,0-7.866-2.269,48.711,48.711,0,0,0-18.483,1.522c-8.741,2.59-16.492,8.691-19.372,17.553-2.218,6.829-2.956,14.7-1.237,21.708.612,2.5,4.471,1.44,3.857-1.064Z"/><path class="a" d="M133.7,138.176c-.764-.1.079.051.269.113.111.036.219.082.33.118-.534-.172-.15-.069-.017,0a13.738,13.738,0,0,1,1.64.962q.273.189.538.389c-.283-.212.049.041.144.119q.429.351.838.725a23.964,23.964,0,0,1,1.906,1.958,25.907,25.907,0,0,1,5.526,10.963,2,2,0,1,0,3.857-1.063,29.636,29.636,0,0,0-6.7-12.889c-2.157-2.433-5-4.953-8.336-5.393a2.01,2.01,0,0,0-2,2,2.051,2.051,0,0,0,2,2Z"/><path class="a" d="M131.975,134.6a22.523,22.523,0,0,1-5.329,4.467c-.754.416-4.835,2.253-4.613.244.212-1.925-2.234-2.362-3.415-1.414-4.289,3.444-8.9,7.069-14.339,8.419a15.354,15.354,0,0,1-3.906.463,9.1,9.1,0,0,0-4.117.406,6.167,6.167,0,0,0-2.429,2.287,14.667,14.667,0,0,1-1.02,1.568,2.058,2.058,0,0,0-2,2,2.014,2.014,0,0,0,2,2,4.428,4.428,0,0,0,3.116-1.6c.6-.726,1.062-2,1.852-2.536s2.482-.1,3.421-.134a20.559,20.559,0,0,0,4.539-.7c5.969-1.612,10.976-5.544,15.712-9.347l-3.414-1.414a4.489,4.489,0,0,0,2.328,4.212,6.921,6.921,0,0,0,5.606.175c3.527-1.169,6.324-3.614,8.837-6.27,1.768-1.87-1.056-4.7-2.829-2.828Z"/><path class="a" d="M129.6,184.984c.162,1.635.508,3.242.791,4.859a8.6,8.6,0,0,0,1.159,3.488,8.467,8.467,0,0,0,3.482,2.74,35.628,35.628,0,0,0,3.813,1.777,2.013,2.013,0,0,0,2.46-1.4,2.049,2.049,0,0,0-1.4-2.461c.669.23.256.1.092.028l-.418-.193-.812-.385q-.8-.381-1.6-.767a13.95,13.95,0,0,1-1.478-.776c-.053-.034-.475-.344-.255-.168s-.2-.187-.239-.225-.287-.274-.273-.295c-.013.02.272.4.012,0-.065-.1-.126-.207-.183-.314-.028-.053-.054-.107-.079-.161q-.1-.209.084.206a3.856,3.856,0,0,0-.217-.68c-.137-.53-.22-1.073-.315-1.612-.127-.721-.265-1.441-.4-2.162-.054-.3-.107-.6-.155-.9-.015-.1-.029-.191-.043-.287.035.272.043.332.024.178s-.039-.33-.055-.5a2.046,2.046,0,0,0-2-2,2.022,2.022,0,0,0-2,2Z"/><path class="a" d="M101.145,197.052c1.4-.613,2.768-1.306,4.156-1.947.42-.195-.234.047-.249.1.008-.025,1.021-.424.807-.33.17-.074.338-.15.5-.239a5.693,5.693,0,0,0,1.9-1.692,7.185,7.185,0,0,0,1.088-3.281c.235-1.591.514-3.167.675-4.768a2.006,2.006,0,0,0-2-2,2.055,2.055,0,0,0-2,2c-.026.254-.052.509-.08.764-.017.147-.035.294-.053.441-.055.466.045-.293-.008.067-.1.694-.227,1.384-.337,2.076-.079.5-.137,1-.242,1.5a5.7,5.7,0,0,1-.169.641c-.017.051-.04.1-.055.154-.054.191.1-.23.1-.226a2.636,2.636,0,0,0-.209.386c-.029.046-.069.091-.094.139-.086.168.118-.177.137-.18-.053.006-.2.216-.249.259s-.1.079-.141.123c-.156.158.144-.134.144-.114,0,.056-.373.232-.426.26-.128.07-.527.236-.181.1-.065.025-.13.047-.194.073-.222.089-.443.185-.661.283-.719.324-1.43.667-2.144,1-.677.319-1.349.654-2.034.954a2,2,0,0,0-.718,2.736,2.062,2.062,0,0,0,2.736.718Z"/><path class="a" d="M88.831,234.105c-.042-2.039-.084-4.078-.085-6.117a2,2,0,0,0-4,0c0,2.039.043,4.078.085,6.117a2,2,0,0,0,4,0Z"/><path class="a" d="M150.266,226.275c0,2.61-.065,5.221-.14,7.83a2.018,2.018,0,0,0,2,2,2.04,2.04,0,0,0,2-2c.075-2.609.139-5.22.14-7.83a2,2,0,0,0-4,0Z"/><path class="a" d="M139.044,197.553c2.479.973,4.944,1.975,7.363,3.089l-.991-1.727v.01a1.969,1.969,0,0,0,.991,1.727,37.723,37.723,0,0,1,9.911,6.112,24.18,24.18,0,0,1,5.542,7.909c2.75,6.05,3.53,12.905,4.336,19.432a2.063,2.063,0,0,0,2,2,2.012,2.012,0,0,0,2-2c-.9-7.29-1.823-14.695-4.882-21.451a26.954,26.954,0,0,0-6.167-8.719,39.757,39.757,0,0,0-10.722-6.737l.991,1.727v-.01a1.968,1.968,0,0,0-.991-1.727c-2.732-1.258-5.518-2.394-8.317-3.492a2.016,2.016,0,0,0-2.461,1.4,2.048,2.048,0,0,0,1.4,2.46Z"/><path class="a" d="M98.514,193.7c-2.8,1.1-5.585,2.234-8.317,3.492a1.968,1.968,0,0,0-.991,1.727v.01L90.2,197.2a39.773,39.773,0,0,0-10.722,6.737,26.938,26.938,0,0,0-6.167,8.719c-3.059,6.756-3.982,14.161-4.882,21.451a2.011,2.011,0,0,0,2,2,2.049,2.049,0,0,0,2-2c.806-6.527,1.586-13.382,4.336-19.432a24.139,24.139,0,0,1,5.542-7.909,37.8,37.8,0,0,1,9.911-6.112,1.969,1.969,0,0,0,.991-1.727v-.01l-.991,1.727c2.419-1.114,4.884-2.116,7.363-3.089a2.06,2.06,0,0,0,1.4-2.46,2.015,2.015,0,0,0-2.461-1.4Z"/><path class="a" d="M100.384,197.328c4.078,2.9,9.446,4.558,14.332,5.305a39.263,39.263,0,0,0,20.192-2.113,17.2,17.2,0,0,0,5.916-3.43c1.822-1.823-1.005-4.652-2.829-2.829-.16.161-.322.309-.5.455.39-.33-.189.129-.269.183-.4.271-.819.517-1.243.749A22.937,22.937,0,0,1,132.4,197.2a36.781,36.781,0,0,1-11.714,1.912c-6.166.03-13.176-1.6-18.284-5.233a2.016,2.016,0,0,0-2.737.718,2.043,2.043,0,0,0,.718,2.736Z"/><path class="a" d="M148.22,154.4a2.079,2.079,0,0,1,1.515-.382,1.747,1.747,0,0,1,1.288.85,4.962,4.962,0,0,1,.342,2.168,13.2,13.2,0,0,1-.187,2.663,14.134,14.134,0,0,1-1.9,5.016,6.949,6.949,0,0,1-1.453,1.712,4.246,4.246,0,0,1-.387.263c-.5.314.07.014-.231.129-.327.125-.352.084-.738-.02-2.49-.664-3.552,3.194-1.064,3.858,3.015.8,5.38-1.121,7.025-3.467a17.339,17.339,0,0,0,2.807-7.826c.32-2.621.294-5.92-1.823-7.825a6.071,6.071,0,0,0-8.026.032,2.016,2.016,0,0,0,0,2.829,2.044,2.044,0,0,0,2.828,0Z"/><path class="a" d="M143.838,166.228a13.04,13.04,0,0,1-.875,3.729,6.579,6.579,0,0,0-.243.677c-.073.323.225-.422.05-.123-.146.248-.253.526-.389.781a32.51,32.51,0,0,1-2.937,4.5c-2.613,3.385-6.17,6.95-10.47,7.892-2.513.551-1.449,4.408,1.064,3.857,5.215-1.142,9.392-5.239,12.549-9.326,2.7-3.5,5.054-7.443,5.251-11.988.112-2.574-3.888-2.569-4,0Z"/><path class="a" d="M93.784,151.575a6.074,6.074,0,0,0-8.026-.032c-2.179,1.961-2.14,5.375-1.792,8.056a17.045,17.045,0,0,0,2.937,7.818c1.7,2.333,4.226,4.29,7.257,3.622a2,2,0,0,0-1.064-3.858,1.967,1.967,0,0,1-1.57-.612,7.676,7.676,0,0,1-1.484-1.62,13.952,13.952,0,0,1-2.017-5.1,13.143,13.143,0,0,1-.217-2.62,5.375,5.375,0,0,1,.346-2.354,1.756,1.756,0,0,1,1.287-.85,2.046,2.046,0,0,1,1.515.382,2.055,2.055,0,0,0,2.828,0,2.016,2.016,0,0,0,0-2.829Z"/><path class="a" d="M91.363,165.746A31.032,31.032,0,0,0,98.5,179.927c3.745,4.245,8.764,7.761,14.47,8.573a2.067,2.067,0,0,0,2.46-1.4,2.015,2.015,0,0,0-1.4-2.461c-9.746-1.387-16.921-10.776-18.81-19.96-.519-2.52-4.375-1.453-3.857,1.063Z"/><path class="a" d="M114.738,174.444a9.429,9.429,0,0,0,11.3,0,2,2,0,1,0-2.829-2.829c-.076.075-.357.3-.024.041s-.018,0-.115.063-.223.129-.338.187c-.076.038-.161.069-.235.111.085-.048.486-.186.171-.078a7.966,7.966,0,0,1-1.125.308c-.063.012-.125.022-.188.032q-.23.036.206-.024c-.015.033-.312.032-.346.035-.275.023-.551.033-.827.034-.252,0-.5-.009-.757-.028-.134-.011-.283-.042-.417-.041.182,0,.388.058.08,0a7,7,0,0,1-1.141-.3c-.16-.058-.419-.223.125.061-.064-.034-.132-.06-.2-.092-.128-.063-.253-.131-.375-.206-.093-.058-.179-.126-.271-.184.585.364.292.237.133.08a2,2,0,1,0-2.829,2.829Z"/><path class="a" d="M119.341,162.676a24.584,24.584,0,0,1,.578,2.642l-.071-.531a1.584,1.584,0,0,1,.009.364l.072-.531a.934.934,0,0,1-.04.164l.2-.478a.592.592,0,0,1-.057.1l.312-.4a.576.576,0,0,1-.086.085l.405-.313a1.685,1.685,0,0,1-.21.111l.478-.2a1.539,1.539,0,0,1-.353.1l.532-.071a1.41,1.41,0,0,1-.331,0l.532.072c-.125-.018-.248-.048-.372-.065a1.526,1.526,0,0,0-.8-.036,1.484,1.484,0,0,0-.744.238,2,2,0,0,0-.717,2.736l.313.405a1.99,1.99,0,0,0,.882.514c.342.046.673.131,1.021.146a3.365,3.365,0,0,0,1.576-.385,2.42,2.42,0,0,0,1.3-1.576,3.668,3.668,0,0,0-.013-1.625c-.144-.852-.34-1.695-.559-2.53a2,2,0,0,0-2.461-1.4,2.024,2.024,0,0,0-1.195.919,2.109,2.109,0,0,0-.2,1.541Z"/><path class="a" d="M106.151,155.56c-.432,1.4-.15,4.627,2.505,4.9,3.51-.021,3.7-3.919,2.515-5.752C110.2,153.208,107.359,152.584,106.151,155.56Z"/><path class="a" d="M134.143,155.561c.431,1.4.15,4.626-2.506,4.9-3.509-.021-3.7-3.92-2.515-5.753C130.089,153.208,132.934,152.584,134.143,155.561Z"/></svg>