<svg xmlns="http://www.w3.org/2000/svg" width="397.205" height="290.426" viewBox="0 0 397.205 290.426"><defs><style>.a{fill:#fce0cd;}.b{fill:#fff;}.c{fill:#d9d9d9;}.d{fill:#b3b3b3;}.e{fill:#f9cbac;}.f{fill:#8c7c72;}.g{fill:#a0a0a0;}.h{fill:#3f88c9;}.i{fill:none;}.j{fill:#211715;}</style></defs><path class="a" d="M320.834,34.958c9.518,8.621,15.02,19.514,16.855,32.3l3.391,7.178a6.628,6.628,0,0,1,5.173-1.944,6.26,6.26,0,0,1,4.711,2.647,8.839,8.839,0,0,1,1.19,3.481,26.511,26.511,0,0,1-1.645,14.22,16.843,16.843,0,0,1-3.918,6.03c-1.382,1.283-3.988,1.45-5.879,1.887,0,0-.444.11-1.112.279-2.777,14.64-10.452,24.6-18.9,29.04a61.382,61.382,0,0,0,.911,8.444c.536,3.055.368,5.786,4.616,7.32.281.1,12.329,5.834,12.759,6.011,0,0-11.869,25.627-39.816,25.627s-39.718-25.959-39.718-25.959c1.392-.519,8.285-2.708,12.922-4.186,2.409-.758,4.214-1.334,4.31-1.363,4.253-1.527,4.09-4.263,4.618-7.315.1-.567.182-1.1.259-1.623.192-1.3.317-2.505.412-3.865-12.585-4.53-20.723-15.574-24.8-27.327-2.763,1.129-5.084-.108-6.722-1.225a16.858,16.858,0,0,1-4.774-5.378,26.526,26.526,0,0,1-3.748-13.816,8.84,8.84,0,0,1,.658-3.619,6.258,6.258,0,0,1,4.264-3.32,6.627,6.627,0,0,1,5.4,1.15l3.751-5.751a31.2,31.2,0,0,1,1.569-8.334,15.183,15.183,0,0,1,5.6-8.329c3.425-2.346,7.84-2.637,11.616-4.36,1.371-.625,2.826-1.281,4.241-2.012,2.555.269,4.671.4,4.671.4A53.794,53.794,0,0,0,300.86,47.2c5.972-2.464,11.615-4.644,13.643-10.778"/><path class="b" d="M383.3,194.465c-.359-4.159-3.168-14.358-6.733-19.111a42.268,42.268,0,0,0-12.873-11.421c-8.3-4.509-15.312-8.2-23.322-11.937-.732-.24-1.236-.328-1.427-.205-9.121,5.323-26.886,10.072-40.369,10.019A90.945,90.945,0,0,1,257.848,151.3c-11.493,4.184-23.217,8.295-30.943,13.954-5.281,4.093-8.968,11.54-10.034,19.277-1.97,21.574,1.557,42.64,8.834,63.277,2.225,6.307,4.968,12.674,9.823,17.274,4.216,4,10.388,6.359,15.946,5.144-1.492,5.972-2.744,8.135-6.063,17.049,24.924,0,129.682-.565,149.229-.569-2.092-21.437-8.323-71.923-11.347-92.236"/><path class="c" d="M343.878,156.318c4.15,2.026,8.256,4.142,12.333,6.312a90.811,90.811,0,0,1,9.179,5.182,41.936,41.936,0,0,1,8.284,7.743,28.558,28.558,0,0,1,4.745,9.031q.963,2.761,1.663,5.608c.211.863.4,1.73.567,2.6.062.336.118.673.172,1.01.081.5.023.152.01.046.026.2.046.408.065.613a2.466,2.466,0,0,0,2.4,2.4,2.417,2.417,0,0,0,2.4-2.4,45.927,45.927,0,0,0-2.141-9.633,38.4,38.4,0,0,0-4.593-10.236,43.853,43.853,0,0,0-9.227-9.51,60.791,60.791,0,0,0-8.642-5.285c-4.887-2.627-9.806-5.194-14.793-7.628a2.462,2.462,0,0,0-3.283.861,2.421,2.421,0,0,0,.861,3.284Z"/><path class="c" d="M219.185,185.168c1.043-7.246,4.189-14.737,10.47-18.915,7.08-4.71,15.241-7.664,23.174-10.577a2.466,2.466,0,0,0,1.677-2.953,2.421,2.421,0,0,0-2.953-1.676c-8.523,3.13-17.422,6.288-24.947,11.486-6.964,4.81-10.869,13.154-12.049,21.359a2.479,2.479,0,0,0,1.676,2.952,2.417,2.417,0,0,0,2.952-1.676Z"/><path class="d" d="M318.533,35.445c9.445,6,17.321,19.027,19.156,31.813l3.391,7.178a6.628,6.628,0,0,1,5.173-1.944,6.545,6.545,0,0,1,1.907.438c.206-1.177.337-1.914.337-1.914,3.347-18.92-2.861-39.9-14.2-49.91-2.811-2.481-7.038-5.41-10.7-6.2L317,13.472l-1.916-1.319a36.637,36.637,0,0,0-6.065-3.321c-8.41-3.675-19.1-5.153-26.083-2.209a64.936,64.936,0,0,0-8.5,4.629l-12.124,7.4a62.8,62.8,0,0,0-10.863,7.741c-4.664,4.444-9.346,13.87-9.7,27.405-.181,6.955-.037,15.4,3.387,23.976l.455,1.141a6.176,6.176,0,0,1,1.265-.434,6.627,6.627,0,0,1,5.4,1.15l3.751-5.751a31.2,31.2,0,0,1,1.569-8.334,15.183,15.183,0,0,1,5.6-8.329c3.425-2.346,7.84-2.637,11.616-4.36,1.371-.625,2.826-1.281,4.241-2.012,2.555.269,4.671.4,4.671.4A53.794,53.794,0,0,0,300.86,47.2c5.972-2.464,11.615-4.644,13.643-10.778"/><path class="a" d="M267.838,186.081c1.8-2.778,6.667-8.945,7-10.728a24.092,24.092,0,0,0,.045-7.028c-1.035-7.716-1.605-18.256-2.959-22.846a47.366,47.366,0,0,0-4.857-11.649,94.644,94.644,0,0,0-6.845-10.281,7.122,7.122,0,0,1-1.447-3.708,2.97,2.97,0,0,1,1.913-3,6.3,6.3,0,0,1,4.1.092c4.022,2.18,6.691,5.4,9.712,10.1,2.079,3.232,8.612,11.847,10.51,15.189l.19.294c1.6-.919,3.156-1.6,5.345-2.593.971-.438,3.92-1.426,5-1.28a7.1,7.1,0,0,1,6.074,6.346c2.048-.522,3.759.681,4.944,2.093,1.053,1.256,2.018,3.228.986,7.158h0a6.206,6.206,0,0,1,3.615,5.511c.151,2.092.345,3.934-.813,6.261-1.2,2.411-4.3.952-5.186-.168l-.341-.164c.889,3.15,2.2,8.689.617,12.718-.572,1.449-5.339,5.063-7.361,6.328-2.671,4.16-5.282,12.675-6.206,15.183Z"/><path class="e" d="M283.121,146.778a33.561,33.561,0,0,1,5.078-3.139c.908-.449,1.833-.864,2.756-1.281.266-.12.531-.247.8-.361-.247.1-.205.084.02,0q.618-.231,1.246-.43c1.614-.508,2.293-.842,3.736-.048a4.8,4.8,0,0,1,2.456,3.472,2.451,2.451,0,0,0,3.038,2.314,2.155,2.155,0,0,1,1.837.666c.11.095.987,1.093.647.64a6.056,6.056,0,0,1,.466.73q.179.375.056.074.092.24.162.486a3.259,3.259,0,0,1,.151.8,8.965,8.965,0,0,1-.341,2.9c-.742,3,3.885,4.278,4.628,1.276.685-2.766.866-5.842-.737-8.344-1.8-2.813-4.788-4.538-8.145-3.86l3.038,2.315a9.889,9.889,0,0,0-3.375-6.6,8.4,8.4,0,0,0-7.05-1.945,28.39,28.39,0,0,0-6.331,2.344,36.749,36.749,0,0,0-6.558,3.841,2.472,2.472,0,0,0-.861,3.283,2.417,2.417,0,0,0,3.284.861Z"/><path class="e" d="M290.241,152.465c1.022-.52,2.062-1,3.109-1.47q.915-.409,1.837-.805l.849-.362c.577-.245-.473.2.1-.043l.42-.176c1.889-.787,3.789-1.548,5.691-2.3a2.461,2.461,0,0,0,1.676-2.952,2.426,2.426,0,0,0-2.952-1.677c-4.426,1.76-8.908,3.482-13.156,5.645a2.416,2.416,0,0,0-.861,3.283,2.457,2.457,0,0,0,3.284.861Z"/><path class="e" d="M308.753,152.17c-2.683-1.182-5.451-.553-8.149.268-1.222.371-2.447.719-3.634,1.194-.751.3-1.493.622-2.233.949-.3.134-.6.269-.905.4l-.587.259c-.042.018-.5.213-.287.125a2.467,2.467,0,0,0-1.676,2.952c.358,1.107,1.713,2.2,2.952,1.676.753-.316,1.5-.637,2.25-.969.3-.133.6-.267.9-.4.075-.032.9-.383.531-.231,1.107-.457,2.239-.8,3.383-1.151a31.122,31.122,0,0,1,3.188-.863c.14-.028.281-.053.422-.076q-.432.052-.01,0c.271-.018.541-.042.813-.039.18,0,.913.166.323.005.131.035.879.294.3.038a2.462,2.462,0,0,0,3.283-.861,2.426,2.426,0,0,0-.861-3.283Z"/><path class="e" d="M311.986,154.936a8.3,8.3,0,0,0-1.4-1.555,9.291,9.291,0,0,0-1.83-1.211,1.774,1.774,0,0,0-.892-.285,2.462,2.462,0,0,0-2.391,1.146l-.242.573a2.4,2.4,0,0,0,0,1.276l.242.573a2.4,2.4,0,0,0,.861.861,7,7,0,0,1,1.24.754l-.486-.375a6,6,0,0,1,1.066,1.065l-.375-.486.066.087a2.69,2.69,0,0,0,1.434,1.1,1.823,1.823,0,0,0,.957.043,1.794,1.794,0,0,0,.892-.285l.486-.375a2.407,2.407,0,0,0,.617-1.059l.086-.638a2.389,2.389,0,0,0-.328-1.212Z"/><path class="e" d="M287.081,141.013c-2.582-4.488-5.906-8.575-8.881-12.8-3.548-5.04-6.637-10.265-12.2-13.346-2.705-1.5-5.129,2.647-2.423,4.145,4.973,2.752,7.63,7.6,10.807,12.086,2.878,4.066,6.067,8.017,8.555,12.34,1.54,2.677,5.69.263,4.145-2.422Z"/><path class="c" d="M214.471,184.53c-1.9,21.28,1.569,42.663,8.526,62.784,2.995,8.665,6.942,18.03,15.3,22.79a19.929,19.929,0,0,0,13.076,2.575c3.93-.656,7.5-3.04,10.651-5.37a55.279,55.279,0,0,0,9.418-8.569,63.9,63.9,0,0,0,5.448-8c3.748-6.122,7.229-12.409,10.585-18.753,3.1-5.853,6.106-11.764,8.837-17.8.958-2.117,1.909-4.252,2.691-6.442.449-1.261.983-2.735.56-4.07-.626-1.974-2.766-3.359-4.36-4.482-2.379-1.677-4.908-3.144-7.438-4.577-6.028-3.415-12.209-6.554-18.373-9.714q-1.827-.937-3.65-1.882a2.463,2.463,0,0,0-3.283.861c-3.23,4.865-6.15,9.943-9.026,15.022s-5.724,10.2-8.244,15.466a2.465,2.465,0,0,0,.861,3.283,2.421,2.421,0,0,0,3.284-.861c2.52-5.267,5.368-10.385,8.244-15.465s5.8-10.158,9.025-15.022l-3.283.861c5.559,2.892,11.162,5.7,16.685,8.661,2.847,1.528,5.68,3.086,8.453,4.744,1.155.691,2.3,1.4,3.42,2.149.473.316.941.639,1.4.975.127.093.72.555.266.194.178.141.355.283.528.43.293.251.562.521.84.788.153.147.441.61-.007-.048a2.045,2.045,0,0,1,.22.356c-.195-.478-.022-.22-.168-.531-.114-.245-.038-.361-.038-.118,0,.423.178-.606.045-.306a2.992,2.992,0,0,0-.079.372c-.183.646-.38,1.282-.612,1.913-.139.38-.285.758-.434,1.134q-.132.333-.269.665c-.063.154-.374.9-.167.408-2.265,5.345-4.873,10.552-7.522,15.715-3.2,6.239-6.539,12.413-10.06,18.479-3.15,5.428-6.231,10.994-10.782,15.386a52.128,52.128,0,0,1-9.3,7.23c-3.094,1.857-6.294,2.878-9.924,2.127-8.618-1.781-13.5-9.613-16.515-17.249a147.876,147.876,0,0,1-10.5-58.571q.125-3.776.468-7.538a2.418,2.418,0,0,0-2.4-2.4,2.45,2.45,0,0,0-2.4,2.4Z"/><path class="c" d="M248.961,270.365c-1.465,5.583-3.851,10.874-5.864,16.271a2.421,2.421,0,0,0,1.676,2.952,2.453,2.453,0,0,0,2.953-1.676c2.012-5.4,4.4-10.688,5.863-16.271a2.4,2.4,0,0,0-4.628-1.276Z"/><path class="c" d="M354.244,191.464q.742,14.648.889,29.316c.049,5.034.023,9.986-.383,15-.932,11.54-2.221,23.055-3.52,34.559-.622,5.51-1.256,11.02-1.949,16.521a2.411,2.411,0,0,0,2.4,2.4,2.46,2.46,0,0,0,2.4-2.4c1.372-10.882,2.571-21.788,3.71-32.7,1.03-9.857,2.212-19.733,2.168-29.654q-.072-16.53-.915-33.044c-.156-3.074-4.957-3.092-4.8,0Z"/><path class="c" d="M380.979,195.107c1.675,11.264,3.073,22.261,4.508,33.609q2.55,20.161,4.861,40.352c.666,5.876,1.317,11.753,1.893,17.638a2.466,2.466,0,0,0,2.4,2.4,2.417,2.417,0,0,0,2.4-2.4c-1.145-11.7-2.53-23.379-3.929-35.051Q390.7,231.5,388.044,211.38c-.778-5.854-1.568-11.707-2.436-17.549a2.417,2.417,0,0,0-2.953-1.676,2.462,2.462,0,0,0-1.676,2.952Z"/><path class="c" d="M245.411,289.674q11.335,0,22.671-.057,16.749-.06,33.5-.136,18.486-.079,36.973-.164,16.578-.074,33.156-.142,10.818-.043,21.636-.069h1.542c3.089,0,3.094-4.8,0-4.8-6.6,0-13.2.031-19.8.057q-16.013.061-32.024.135l-36.886.164q-17.232.076-34.464.143-12.165.045-24.329.069h-1.978c-3.088,0-3.093,4.8,0,4.8Z"/><path class="f" d="M295.645,114.878c.46-.291.932-.562,1.419-.808.231-.116.465-.226.7-.333q.23-.1-.046.017c.144-.058.29-.115.436-.17a15.846,15.846,0,0,1,1.857-.568q.364-.087.734-.156c.166-.03.332-.058.5-.083-.217.032-.177.031.122,0,1.266-.083,2.523-.148,3.792-.109.524.016,1.047.046,1.569.1.134.012.268.027.4.042-.32-.045-.347-.049-.082-.009.214.039.427.076.639.124a2.4,2.4,0,0,0,1.276-4.629,24.54,24.54,0,0,0-7.851-.29,18.421,18.421,0,0,0-7.89,2.736,2.4,2.4,0,1,0,2.423,4.144Z"/><path class="f" d="M313.192,107.023a17.621,17.621,0,0,1,1.216,1.416l-.375-.486a24.244,24.244,0,0,1,1.506,2.211,2.494,2.494,0,0,0,1.434,1.1,1.823,1.823,0,0,0,.957.043,1.774,1.774,0,0,0,.892-.285,2.417,2.417,0,0,0,1.1-1.434,2.474,2.474,0,0,0-.242-1.849,23.441,23.441,0,0,0-3.1-4.114,2.4,2.4,0,0,0-3.394,0,2.418,2.418,0,0,0-.7,1.7,2.544,2.544,0,0,0,.7,1.7Z"/><path class="f" d="M298.685,90.861c.247.72.478,1.445.7,2.174a16.325,16.325,0,0,1,.61,2.317l-.086-.638a2.064,2.064,0,0,1,.007.458l.086-.638a1.455,1.455,0,0,1-.051.207l.242-.573a1.069,1.069,0,0,1-.1.179l.375-.485a.611.611,0,0,1-.1.1l.486-.375a2.669,2.669,0,0,1-.5.291l.574-.242a2.353,2.353,0,0,1-.537.154l.638-.086a5.71,5.71,0,0,1-1.012-.046,2.4,2.4,0,0,0-2.4,2.4,2.454,2.454,0,0,0,2.4,2.4,7.635,7.635,0,0,0,.841.061,4.687,4.687,0,0,0,2.178-.629,3.173,3.173,0,0,0,1.59-2.08,4.874,4.874,0,0,0-.1-2.2c-.342-1.36-.759-2.7-1.215-4.029a2.551,2.551,0,0,0-1.1-1.434,2.4,2.4,0,0,0-3.283.861,2.393,2.393,0,0,0-.242,1.849Z"/><path class="f" d="M275.185,80.465c-.545,2.395.328,7.745,4.8,7.871,5.859-.475,5.682-7.009,3.48-9.922C281.659,76.029,276.83,75.342,275.185,80.465Z"/><path class="f" d="M322.126,76.945c.9,2.287.83,7.707-3.57,8.5-5.865.4-6.665-6.083-4.922-9.292C315.062,73.523,319.734,72.125,322.126,76.945Z"/><path class="b" d="M15.178,272.59a20.1,20.1,0,0,1-8.49-10.2c-6.792-16.17-6.009-43.094,5.938-80.5,2.64-7.647,5.194-12.345,8.4-15.71l.244.35c2.481,4.8,6.7,16.924,8.7,22.785a118.43,118.43,0,0,1,2.858,14.332l.415,2.187c1.674-3.2,3.231-6.157,4.554-8.645a2.015,2.015,0,0,1,2.714-.894c7.61,3.9,24.21,10.8,32.693,14.89,1.454.7,1.388,2.045,1,3.638-2.9,8.763-10.492,25.018-12.588,29.337-3.337,6.877-9.176,17.428-15.811,23.469a25.121,25.121,0,0,1-5.473,3.87c-5.282,2.54-12.57,4.353-18.918,3.257A19.235,19.235,0,0,1,15.178,272.59Z"/><path class="b" d="M192.26,280.107c-3.979,2.992-8.863,4.217-13.48,5.019-22.834,3.941-63.571,2.756-78.751,2.542-1.717-.328-2.061-38.451-.286-42.549,12.8-.706,46.106-.935,61.98-.889,0-.308.01-.495.01-.495,1.115-10.79,3.391-41.51,5.382-50.612,1.412-6.218,4.267-19.912,6.827-25.245l.155-.27q.72.454,1.426.925c4.108,3.967,7.231,10.09,8.872,14.492,7.878,22.466,13.867,47.36,15.619,66.044.828,8.826.886,17.779-2.072,24A18.587,18.587,0,0,1,192.26,280.107Z"/><path class="a" d="M64.421,150.7c2.515-.8,8.985-2.784,9.292-2.9,4.628-1.67,4.445-4.646,5.031-7.968.144-.777.259-1.536.374-2.285-13.459-4.777-22.318-16.374-26.931-28.866-2.828,1.412-5.132.081-6.951-1.143a18,18,0,0,1-5.134-5.713A28.318,28.318,0,0,1,36.009,87.1a9.432,9.432,0,0,1,.679-3.87,6.685,6.685,0,0,1,4.532-3.574A7.082,7.082,0,0,1,47,80.846a13.236,13.236,0,0,0,4.562-5.91c4.977-4.871-2.489-21.689,7.324-29.8a26.628,26.628,0,0,1,12.444-5.475c7.191-1.41,21.655-4.353,27.919-4.293,7.666.072,13.519.094,22.791,3.382,10.883,3.281,16.3,20.416,16.98,28.824,0,0,1.646,4.088,2.976,8.033a6.862,6.862,0,0,1,6.242-3.079,6.684,6.684,0,0,1,5.05,2.8,9.446,9.446,0,0,1,1.294,3.71,28.333,28.333,0,0,1-1.664,15.2,18,18,0,0,1-4.146,6.466c-1.75,1.645-3.572,2.521-6.765,1.26-2.882,15.854-11.032,26.746-20.11,31.758.159,2.089.438,4.17.791,6.241.562,3.181.383,6.024,4.813,7.62.2.08,6.256,2.941,10.106,4.768,0,0-7.186,23-39.613,23C71.968,175.345,64.421,150.7,64.421,150.7Z"/><path class="d" d="M37.381,59.08a64.125,64.125,0,0,1,6.65-31.395c5.125-10.339,15-19.454,24.856-21.329a50.358,50.358,0,0,0,7.671-2.381c12.2-6.8,33.841-4.893,43.351,5.871,14.143,3.132,21.861,11.908,26.372,25.642,4.037,12.29,4.768,28.033,2.536,37.117a4.287,4.287,0,0,0-.578-.073A6.862,6.862,0,0,0,142,75.611c-1.33-3.945-2.976-8.033-2.976-8.033-.683-8.408-6.1-25.543-16.98-28.824-9.272-3.288-15.125-3.31-22.791-3.382-6.264-.06-20.728,2.883-27.919,4.293A26.628,26.628,0,0,0,58.887,45.14c-9.813,8.107-2.347,24.925-7.324,29.8A13.236,13.236,0,0,1,47,80.846a7.082,7.082,0,0,0-5.781-1.194c-.112.026-.222.055-.331.091A84.754,84.754,0,0,1,37.381,59.08Z"/><path class="g" d="M113.678,35.9c-.977-2.783-2.019-5.7-4.067-7.9a13.76,13.76,0,0,0-3.077-2.328,18.887,18.887,0,0,0-3.837-1.822,2.42,2.42,0,0,0-2.953,1.676,2.454,2.454,0,0,0,1.677,2.952c.1.034.208.068.31.106.08.029.59.232.174.063s.064.034.147.072c.13.061.26.123.389.187.569.281,1.126.587,1.671.911.479.285.951.584,1.4.911.349.253.018.044-.124-.1.082.084.185.152.273.229.193.17.378.35.553.538q.123.132.24.27c.06.07.348.435.081.089s.018.032.071.107c.086.122.169.245.249.371a14.248,14.248,0,0,1,.8,1.434c.132.27.257.543.378.818.042.1.084.192.125.288l-.118-.276a1.988,1.988,0,0,1,.186.46c.291.734.559,1.476.821,2.221a2.4,2.4,0,0,0,4.628-1.276Z"/><path class="g" d="M101.825,35.266a27.622,27.622,0,0,0-11.664-7.858,27.027,27.027,0,0,0-5.442-1.245,23.471,23.471,0,0,0-6.28-.347,2.478,2.478,0,0,0-2.4,2.4,2.414,2.414,0,0,0,2.4,2.4,19.7,19.7,0,0,1,5.152.2,27.627,27.627,0,0,1,5.131,1.163,22.467,22.467,0,0,1,9.709,6.683,2.4,2.4,0,0,0,3.394-3.394Z"/><path class="h" d="M162.8,232.13c1.2-13.586,2.835-32.251,4.313-39.007,1.412-6.218,4.267-19.912,6.827-25.245l.13-.288c-12.6-8.018-27.5-13.186-34.942-16l-.493.406c-7.251,5.242-25.391,10.266-38.514,10.234-14.961-.038-27.727-3.9-36.953-11.969l-2.623-2.084c-10.923,3.55-24.662,8.414-33.379,13.305a26.067,26.067,0,0,0-6.151,4.7l.249.344c2.481,4.8,6.7,16.924,8.7,22.785a118.43,118.43,0,0,1,2.858,14.332l.333,2.344c1.7-3.258,3.291-6.274,4.636-8.8a2.015,2.015,0,0,1,2.714-.894c7.61,3.9,24.21,10.8,32.693,14.89,1.454.7,1.388,2.045,1,3.638-2.9,8.763-10.492,25.018-12.588,29.337l-.016.033c8.8,1.507,27.23,3.949,37.484,4.944a16.281,16.281,0,0,1,.661-4.015c12.794-.706,46.053-.935,61.938-.89l.052-.494C162.02,240.953,162.385,236.848,162.8,232.13Z"/><path class="a" d="M55.924,257.654a54.2,54.2,0,0,1-8.2,9.972,30.383,30.383,0,0,1-3.049,2.431c.223.424.373.706.373.706,1.689,3.328,7.239,11.666,7.655,12.271a12.148,12.148,0,0,0,4.1,4.141,5.176,5.176,0,0,0,5.606-.273,23.825,23.825,0,0,0,2.167-2.873c2.617-3.136,7.525-2.621,11.664-2.8a26.2,26.2,0,0,0,14.436-5.118l8.066-.238a264.993,264.993,0,0,1,.339-26.8c-9.033-.816-26.986-3.174-35.677-4.652A118.451,118.451,0,0,1,55.924,257.654Z"/><path class="c" d="M177.324,174.451c3.078,4.617,4.941,9.6,6.673,14.838q2.678,8.087,4.96,16.3a296.09,296.09,0,0,1,7.195,32.193c.777,4.82,1.394,9.669,1.728,14.541.364,5.31.51,10.837-.812,16.036a17.248,17.248,0,0,1-7.02,10.382c-3.386,2.227-7.34,3.245-11.284,3.962a185.056,185.056,0,0,1-24.267,2.356c-9.077.431-18.168.553-27.255.543-7.52-.008-15.039-.124-22.558-.255-1.35-.024-2.741-.147-4.088-.069-1.014.059.709.311,1.03.632.023.023.444.636.258.3.469.857.1.2.022-.162-.07-.306-.111-.617-.165-.925-.1-.583.038.41,0,.008-.025-.26-.062-.52-.09-.781-.114-1.073-.194-2.15-.263-3.228-.392-6.139-.458-12.307-.413-18.457.022-3.089.082-6.178.225-9.263.058-1.253.129-2.5.231-3.755.04-.492.085-.983.138-1.474.021-.195.049-.388.067-.583.048-.5-.075.493-.023.168.019-.124.034-.249.055-.373a7.435,7.435,0,0,1,.389-1.622l-2.314,1.762c8.584-.469,17.194-.557,25.788-.675q15.07-.207,30.141-.219c3.814,0,7.628,0,11.441.038,3.089.033,3.092-4.767,0-4.8-18.182-.2-36.389-.009-54.566.414-4.269.1-8.54.209-12.8.442a2.527,2.527,0,0,0-2.314,1.761,17.477,17.477,0,0,0-.8,5.161c-.229,2.8-.324,5.614-.388,8.422-.153,6.62-.112,13.255.177,19.871.105,2.421.228,4.851.529,7.257.216,1.729.385,4.224,2.431,4.788a18.779,18.779,0,0,0,4.375.149q2.421.042,4.844.084,5.85.1,11.7.154c18.269.155,36.768.193,54.9-2.281,8.7-1.187,17.688-3.225,23.072-10.819,3.095-4.366,4.165-9.757,4.509-15a92.789,92.789,0,0,0-.756-16.838,256.982,256.982,0,0,0-6.116-32.306q-2.166-8.662-4.775-17.207a149.376,149.376,0,0,0-5.674-16.569,47.986,47.986,0,0,0-3.994-7.314c-1.706-2.558-5.865-.158-4.145,2.422Z"/><path class="i" d="M63.17,150.257c9.226,8.071,21.992,11.931,36.953,11.969,13.123.032,31.263-4.992,38.514-10.234"/><path class="j" d="M65.059,153.017c2.8-.885,5.6-1.738,8.4-2.614a12.612,12.612,0,0,0,3.742-1.7,8.407,8.407,0,0,0,3.216-4.634,50.283,50.283,0,0,0,1.018-5.88,2.464,2.464,0,0,0-1.676-2.953,2.428,2.428,0,0,0-2.952,1.677c-.258,1.679-.49,3.38-.823,5.047-.066.33-.142.658-.238.981-.044.147-.095.291-.143.436-.172.509.165-.284-.025.057-.074.134-.139.273-.218.405-.039.065-.385.572-.166.273s-.116.12-.182.188c-.138.145-.3.267-.437.41.02-.021.357-.236.128-.1-.108.066-.208.146-.314.214-.17.11-.345.211-.523.307-.094.05-.19.1-.285.146-.013.007-.342.166-.124.065.166-.076-.313.123-.4.151-.272.095-.55.177-.826.263-1.3.41-2.613.813-3.919,1.218-1.511.468-3.022.935-4.53,1.412a2.4,2.4,0,1,0,1.276,4.629Z"/><path class="b" d="M120.081,174.439a114.847,114.847,0,0,0,17.527-22.089,47.529,47.529,0,0,0-9.217-11,76.3,76.3,0,0,1-21.554,15.255,3.176,3.176,0,0,0-1.387.946c-.218.354.25.667.591,1.159.36.519,2.263,2.788,4.7,5.483C113.932,167.729,117.937,172.053,120.081,174.439Z"/><path class="a" d="M45.545,197.274A104.435,104.435,0,0,0,52.41,186.3c.952-2.632,1.054-5.593,1.849-10.034,1.587-8.831.382-10.914,2.773-17.825,2.307-6.088,4.632-8.767,8.286-14.032,1.218-1.755,5.847-5.659,8.173-7.353a123.873,123.873,0,0,1,10.667-6.444,20.3,20.3,0,0,1,10.483-2.491c1.833.109,3.868.894,4.483,2.624.524,1.474.241,3.595-1.126,4.354-3.723,2.065-7.893,3.435-10.92,5.264-4.2,2.539-6.571,4.916-10.341,8.275l-.623.553c4.109-.566,9.661-.88,12.765-.135a9.925,9.925,0,0,1,1.788.671c.871.456,3.079,1.681,3.9,2.218,3.588,2.337,6.955,4.45,8.434,7.439a5.871,5.871,0,0,1,.172,4.273c-.452.916-1.535,2.013-3.908,1.832,1.05.832,1.229,2.867,1.036,4.489-.174,1.457-1.882,3.317-4.588,3.515,1.122,2.872-1.062,6.469-3.532,5.842-.8-.2-2.57-.8-4.213-1.139l-.244.263c-.867.933-1.415,3.981-1.682,5.226-.785,3.658-2.2,7.555-5.423,9.448-1.526.9-3.309,1.242-4.916,1.984-1.519.7-2.837,4.416-3.555,6.637L70.6,208.449"/><path class="e" d="M81.687,134.736a31.275,31.275,0,0,1,8.576-3.859,12.831,12.831,0,0,1,4.685-.331c.778.116,1.723.464,1.946,1.105a1.851,1.851,0,0,1,.028,1.044c-.056.223-.039.3-.208.458.268-.255-.382.121-.454.16-1.518.808-3.089,1.509-4.662,2.2a45.754,45.754,0,0,0-8.375,4.516,99.084,99.084,0,0,0-8.183,6.912c-2.309,2.062,1.095,5.447,3.394,3.394a79.708,79.708,0,0,1,7.943-6.673c3.174-2.164,6.7-3.516,10.161-5.139,1.714-.8,3.589-1.556,4.526-3.311a6.666,6.666,0,0,0,.317-5.245c-1.437-4-6.227-4.583-9.883-4.145-4.457.534-8.412,2.522-12.234,4.769-2.661,1.564-.249,5.715,2.423,4.144Z"/><path class="e" d="M74.108,151.944a43.353,43.353,0,0,1,12.936-.785,12.449,12.449,0,0,1,4.524,1.8,57.3,57.3,0,0,1,6.234,4.089,2.416,2.416,0,0,0,3.284-.861,2.46,2.46,0,0,0-.861-3.284c-3.735-2.813-8.122-5.958-12.875-6.51a48.206,48.206,0,0,0-14.519.921,2.424,2.424,0,0,0-1.676,2.952,2.451,2.451,0,0,0,2.953,1.677Z"/><path class="e" d="M98.38,162.593a47.807,47.807,0,0,0-8.4-4.811,37.7,37.7,0,0,0-10.409-2.422,2.414,2.414,0,0,0-2.4,2.4,2.458,2.458,0,0,0,2.4,2.4,42.464,42.464,0,0,1,4.23.719c.828.185,1.652.4,2.464.643.372.114.743.234,1.109.365.179.064.357.132.535.2a2.841,2.841,0,0,1,.31.124,46.727,46.727,0,0,1,7.741,4.529,2.423,2.423,0,0,0,3.284-.861,2.448,2.448,0,0,0-.861-3.284Z"/><path class="e" d="M95.022,170.628a49.424,49.424,0,0,0-5.792-3.517,24.97,24.97,0,0,0-8.115-2.092,2.408,2.408,0,0,0-2.4,2.4,2.464,2.464,0,0,0,2.4,2.4c.261.024.521.053.782.082-.613-.068.28.044.388.062q.873.147,1.731.362c.61.154,1.214.335,1.807.545.309.109.617.225.919.352-.4-.167.393.185.465.22a55.346,55.346,0,0,1,5.392,3.331,2.421,2.421,0,0,0,3.284-.861,2.451,2.451,0,0,0-.861-3.284Z"/><path class="f" d="M95.234,118.378a15.845,15.845,0,0,1,2.9-1.619c-.42.177.426-.152.5-.18.224-.078.45-.152.678-.219a14.336,14.336,0,0,1,1.9-.43c-.407.063.509-.056.594-.065q.493-.05.989-.083c.56-.039,1.121-.065,1.682-.074.578-.01,1.158,0,1.736.028.251.013.5.039.75.057.486.034-.522-.1.154.026a2.455,2.455,0,0,0,2.952-1.677,2.43,2.43,0,0,0-1.676-2.952,25.858,25.858,0,0,0-8.212.076,17.461,17.461,0,0,0-7.368,2.967,2.4,2.4,0,1,0,2.423,4.145Z"/><path class="f" d="M113.336,109.145a8.514,8.514,0,0,1,1.094,1.16l-.375-.485a8.654,8.654,0,0,1,1.073,1.833l-.242-.573a8.5,8.5,0,0,1,.521,1.746,2.416,2.416,0,0,0,1.1,1.434,2.456,2.456,0,0,0,1.85.242,2.426,2.426,0,0,0,1.434-1.1l.242-.573a2.423,2.423,0,0,0,0-1.276,10.546,10.546,0,0,0-3.3-5.8,2.543,2.543,0,0,0-1.7-.7,2.4,2.4,0,0,0-2.4,2.4,2.393,2.393,0,0,0,.7,1.7Z"/><path class="f" d="M98.45,92.485c.271.773.525,1.552.768,2.335a17.5,17.5,0,0,1,.671,2.49l-.085-.638a2.2,2.2,0,0,1,.01.493l.086-.638a1.287,1.287,0,0,1-.082.291l.242-.574a.727.727,0,0,1-.076.126l.375-.485a.7.7,0,0,1-.1.109l.485-.375a2.867,2.867,0,0,1-.537.316l.573-.242a2.419,2.419,0,0,1-.577.169l.638-.085a6.1,6.1,0,0,1-1.089-.043,2.416,2.416,0,0,0-2.4,2.4,2.453,2.453,0,0,0,2.4,2.4,8.317,8.317,0,0,0,.905.06,4.859,4.859,0,0,0,2.251-.658,3.24,3.24,0,0,0,1.622-2.133,5.036,5.036,0,0,0-.116-2.266c-.377-1.461-.834-2.9-1.334-4.328a2.559,2.559,0,0,0-1.1-1.434,2.4,2.4,0,0,0-3.283.861,2.384,2.384,0,0,0-.242,1.849Z"/><path class="f" d="M73.135,80.732c-.558,2.523.395,8.146,5.1,8.249,6.161-.537,5.934-7.41,3.6-10.461C79.918,76.022,74.833,75.331,73.135,80.732Z"/><path class="f" d="M122.294,76.742c.957,2.4.923,8.1-3.7,8.963-6.168.464-7.052-6.356-5.238-9.744C114.84,73.188,119.746,71.686,122.294,76.742Z"/><path class="c" d="M13.88,172.5a100.869,100.869,0,0,0-5.911,16.44c-1.6,5.532-3.034,11.115-4.236,16.748a157.547,157.547,0,0,0-3.7,28.751,80.617,80.617,0,0,0,2.121,21.9c1.878,7.374,5.3,15,12.4,18.645a25.684,25.684,0,0,0,15.456,2.133,32.558,32.558,0,0,0,14.862-5.645c7.913-5.93,13.244-15.112,17.658-23.785,3.348-6.577,6.351-13.357,9.243-20.144,1.638-3.842,3.362-7.722,4.615-11.712.774-2.465.575-5.184-1.83-6.632a51.466,51.466,0,0,0-5.292-2.475c-8.179-3.707-16.473-7.168-24.578-11.036-1.77-.845-3.71-2.252-5.742-1.945-2.792.42-3.746,3.195-4.906,5.394q-3.822,7.245-7.588,14.52-2,3.855-4,7.714c-1.417,2.74,2.723,5.17,4.144,2.422q3.764-7.278,7.552-14.543,1.742-3.338,3.5-6.67.78-1.483,1.565-2.964c.213-.4.468-.8.646-1.216.038-.089-.262.147-.357.076a26.24,26.24,0,0,0,4.545,2.195q2.758,1.287,5.541,2.526c4.049,1.816,8.115,3.595,12.171,5.4q2.845,1.262,5.68,2.546,1.267.577,2.531,1.166a13.705,13.705,0,0,1,2.321,1.126c-.51-.377-.056-.359-.261.021a9.766,9.766,0,0,0-.312,1.227c-.272.8-.559,1.6-.855,2.4-.675,1.818-1.394,3.62-2.132,5.413-2.727,6.629-5.7,13.17-8.8,19.634-3.674,7.668-7.9,15.478-13.74,21.733a25.721,25.721,0,0,1-11.289,7.224c-4.6,1.47-9.663,2.217-14.412,1.038a15.668,15.668,0,0,1-9.171-6.2A28.546,28.546,0,0,1,7.441,257.4a66.309,66.309,0,0,1-2.634-19.128,133.9,133.9,0,0,1,2.356-25.241c.911-5.038,2.028-10.038,3.3-15,1.41-5.5,2.891-11.058,4.8-16.414a64.017,64.017,0,0,1,2.768-6.7,2.461,2.461,0,0,0-.861-3.283,2.421,2.421,0,0,0-3.283.861Z"/><path class="g" d="M312.189,35.788c-1.641,4.74-6.467,6.828-10.767,8.607a60.157,60.157,0,0,1-17.716,4.453,2.465,2.465,0,0,0-2.4,2.4,2.417,2.417,0,0,0,2.4,2.4,67.5,67.5,0,0,0,10.559-1.687,68.29,68.29,0,0,0,9.451-3.361c5.7-2.4,10.965-5.366,13.1-11.536,1.012-2.925-3.623-4.182-4.629-1.276Z"/><path class="g" d="M290.81,33.447a34.837,34.837,0,0,1-5.5,9.292,22.886,22.886,0,0,1-4.018,3.954,32.466,32.466,0,0,1-5.227,2.947,36.384,36.384,0,0,1-5.238,2.1c-1.86.555-3.753,1.012-5.56,1.734a15.917,15.917,0,0,0-8.621,7.912,33.681,33.681,0,0,0-3.038,12.493,2.4,2.4,0,0,0,4.8,0,27.441,27.441,0,0,1,2.383-10.07,12.289,12.289,0,0,1,3.148-4.182,13.314,13.314,0,0,1,4.554-2.211c1.859-.582,3.762-1.022,5.592-1.7a55.5,55.5,0,0,0,5.566-2.5,27.551,27.551,0,0,0,9.184-7.247,42.135,42.135,0,0,0,6.6-11.249,2.418,2.418,0,0,0-1.676-2.952,2.458,2.458,0,0,0-2.953,1.676Z"/></svg>